<svg xmlns="http://www.w3.org/2000/svg" viewBox="0 0 48 48" fill="none">
  <circle cx="24" cy="24" r="3.8" fill="#61DAFB"/>
  <path stroke="#61DAFB" stroke-width="2.4" d="M24 14.1c6.6 0 12.6 1 16.1 2.7 4 1.9 4 4.4 0 6.3-3.5 1.7-9.5 2.7-16.1 2.7s-12.6-1-16.1-2.7c-4-1.9-4-4.4 0-6.3 3.5-1.7 9.5-2.7 16.1-2.7Z"/>
  <path stroke="#61DAFB" stroke-width="2.4" d="M15.4 19.1c3.3-5.8 7.1-10.5 10.5-12.6 3.8-2.4 6-.9 6.2 3.5.2 3.9-1.9 9.6-5.2 15.4-3.3 5.8-7.1 10.5-10.5 12.6-3.8 2.4-6 .9-6.2-3.5-.2-3.9 1.9-9.6 5.2-15.4Z"/>
  <path stroke="#61DAFB" stroke-width="2.4" d="M15.4 28.9C12.1 23.1 10 17.4 10.2 13.5c.2-4.4 2.4-5.9 6.2-3.5 3.4 2.1 7.2 6.8 10.5 12.6 3.3 5.8 5.4 11.5 5.2 15.4-.2 4.4-2.4 5.9-6.2 3.5-3.4-2.1-7.2-6.8-10.5-12.6Z"/>
</svg>
