<svg xmlns="http://www.w3.org/2000/svg" viewBox="0 0 1200 900">
  <defs><linearGradient id="g" x2="1" y2="1"><stop stop-color="#c5efff"/><stop offset="1" stop-color="#33a5d1"/></linearGradient><filter id="s"><feDropShadow dy="18" stdDeviation="24" flood-opacity=".18"/></filter></defs>
  <rect width="1200" height="900" fill="url(#g)"/><path d="M0 690C230 580 360 760 580 650S930 540 1200 680V900H0Z" fill="#0a6485" opacity=".18"/><g filter="url(#s)"><rect x="110" y="125" width="980" height="650" rx="40" fill="#f7fdff"/></g>
  <text x="165" y="195" font-family="Arial" font-size="27" font-weight="700" fill="#123f50">lumen</text><text x="165" y="258" font-family="Arial" font-size="16" fill="#61808c">Your home this month</text><text x="165" y="320" font-family="Arial" font-size="52" font-weight="700" fill="#123f50">428 kWh</text><text x="165" y="356" font-family="Arial" font-size="15" fill="#2794bb">↓ 12% from last month</text>
  <rect x="165" y="415" width="560" height="285" rx="28" fill="#e9f7fb"/><g fill="#7ccce7"><rect x="205" y="610" width="38" height="55" rx="12"/><rect x="270" y="560" width="38" height="105" rx="12"/><rect x="335" y="515" width="38" height="150" rx="12"/><rect x="400" y="575" width="38" height="90" rx="12"/><rect x="465" y="475" width="38" height="190" rx="12"/><rect x="530" y="535" width="38" height="130" rx="12"/><rect x="595" y="500" width="38" height="165" rx="12"/><rect x="660" y="450" width="38" height="215" rx="12"/></g>
  <rect x="775" y="250" width="245" height="205" rx="28" fill="#123f50"/><circle cx="897" cy="342" r="62" fill="none" stroke="#315f70" stroke-width="22"/><path d="M897 280A62 62 0 01152 370" fill="none"/><path d="M897 280A62 62 0 01952 370" fill="none" stroke="#70d9a2" stroke-width="22" stroke-linecap="round"/><text x="861" y="350" font-family="Arial" font-size="24" font-weight="700" fill="#fff">76%</text><text x="828" y="410" font-family="Arial" font-size="14" fill="#b7d0d9">Monthly goal</text>
  <rect x="775" y="485" width="245" height="215" rx="28" fill="#d9f2fa"/><text x="810" y="535" font-family="Arial" font-size="14" font-weight="700" fill="#207897">SMART TIP</text><text x="810" y="580" font-family="Arial" font-size="20" font-weight="700" fill="#123f50">Shift laundry</text><text x="810" y="612" font-family="Arial" font-size="20" font-weight="700" fill="#123f50">after 8 PM</text><text x="810" y="660" font-family="Arial" font-size="14" fill="#5d7b87">Save up to 4.2 kWh</text>
</svg>
