<svg xmlns="http://www.w3.org/2000/svg" viewBox="0 0 1200 900">
  <defs><linearGradient id="g" x2="1" y2="1"><stop stop-color="#c8d8ff"/><stop offset="1" stop-color="#7757db"/></linearGradient><filter id="s"><feDropShadow dy="20" stdDeviation="26" flood-opacity=".2"/></filter></defs>
  <rect width="1200" height="900" fill="url(#g)"/><path d="M0 700L500 180 1200 620V900H0Z" fill="#2d246d" opacity=".14"/><g filter="url(#s)"><rect x="105" y="115" width="990" height="670" rx="38" fill="#101229"/></g>
  <path d="M143 115H295V785H143A38 38 0 01105 747V153A38 38 0 01143 115Z" fill="#181b38"/><circle cx="158" cy="172" r="18" fill="#856af1"/><text x="190" y="181" font-family="Arial" font-size="24" font-weight="700" fill="#fff">Orbital</text>
  <g font-family="Arial" font-size="15" fill="#8f94b6"><text x="150" y="270">Overview</text><text x="150" y="325">Workflows</text><text x="150" y="380">Analytics</text><text x="150" y="435">Team</text></g><text x="345" y="185" font-family="Arial" font-size="28" font-weight="700" fill="#fff">Operations overview</text><text x="345" y="222" font-family="Arial" font-size="15" fill="#8f94b6">Live performance across your organization</text>
  <g fill="#202444"><rect x="345" y="270" width="215" height="140" rx="20"/><rect x="585" y="270" width="215" height="140" rx="20"/><rect x="825" y="270" width="215" height="140" rx="20"/><rect x="345" y="445" width="695" height="270" rx="22"/></g>
  <g font-family="Arial" fill="#9298bd" font-size="14"><text x="375" y="310">ACTIVE PROJECTS</text><text x="615" y="310">ON-TIME RATE</text><text x="855" y="310">TEAM CAPACITY</text></g><g font-family="Arial" fill="#fff" font-size="38" font-weight="700"><text x="375" y="370">48</text><text x="615" y="370">94%</text><text x="855" y="370">82%</text></g><path d="M385 650C470 590 520 630 600 545S750 620 840 510 950 560 1000 490" fill="none" stroke="#8c70ff" stroke-width="10" stroke-linecap="round"/>
</svg>
