<svg xmlns="http://www.w3.org/2000/svg" viewBox="0 0 1200 900">
  <defs><linearGradient id="g" x2="1" y2="1"><stop stop-color="#ffd3a4"/><stop offset="1" stop-color="#ee6d6d"/></linearGradient><filter id="s"><feDropShadow dy="20" stdDeviation="24" flood-opacity=".18"/></filter></defs>
  <rect width="1200" height="900" fill="url(#g)"/><circle cx="150" cy="160" r="240" fill="#fff" opacity=".16"/><circle cx="1080" cy="800" r="300" fill="#8f3348" opacity=".13"/><g filter="url(#s)"><rect x="120" y="150" width="960" height="600" rx="42" fill="#fff9f3"/></g>
  <text x="175" y="218" font-family="Arial" font-size="26" font-weight="700" fill="#482b31">sonder</text><rect x="855" y="185" width="160" height="48" rx="24" fill="#482b31"/><text x="895" y="216" font-family="Arial" font-size="14" fill="#fff">Plan a trip</text>
  <rect x="170" y="270" width="520" height="410" rx="30" fill="#df8b68"/><path d="M170 565L295 430 385 520 500 375 690 580V680H170Z" fill="#6b6851" opacity=".65"/><circle cx="565" cy="370" r="75" fill="#f8d58b"/><text x="210" y="625" font-family="Arial" font-size="32" font-weight="700" fill="#fff">Kyoto in autumn</text>
  <text x="745" y="300" font-family="Arial" font-size="13" font-weight="700" fill="#b06a5f">YOUR ITINERARY</text><text x="745" y="350" font-family="Arial" font-size="25" font-weight="700" fill="#482b31">Four slow days</text><text x="745" y="383" font-family="Arial" font-size="16" fill="#866a69">Temples, tea, and quiet streets.</text>
  <g fill="#f09872"><circle cx="765" cy="450" r="17"/><circle cx="765" cy="535" r="17"/><circle cx="765" cy="620" r="17"/></g><g fill="#55373b"><rect x="800" y="435" width="190" height="13" rx="7"/><rect x="800" y="520" width="175" height="13" rx="7"/><rect x="800" y="605" width="200" height="13" rx="7"/></g><g fill="#c5aba6"><rect x="800" y="460" width="145" height="9" rx="5"/><rect x="800" y="545" width="125" height="9" rx="5"/><rect x="800" y="630" width="150" height="9" rx="5"/></g>
</svg>
