<svg xmlns="http://www.w3.org/2000/svg" viewBox="0 0 1200 900">
  <defs><linearGradient id="g" x2="1" y2="1"><stop stop-color="#d8f7b4"/><stop offset="1" stop-color="#68c98b"/></linearGradient><filter id="s"><feDropShadow dy="18" stdDeviation="20" flood-opacity=".16"/></filter></defs>
  <rect width="1200" height="900" fill="url(#g)"/><circle cx="1050" cy="100" r="230" fill="#fff" opacity=".2"/><circle cx="100" cy="850" r="300" fill="#176451" opacity=".14"/>
  <g filter="url(#s)"><rect x="115" y="150" width="665" height="545" rx="34" fill="#f8fff8"/><rect x="830" y="90" width="270" height="610" rx="44" fill="#163c32"/></g>
  <text x="165" y="225" font-family="Arial" font-size="28" font-weight="700" fill="#163c32">NutriFlow</text><text x="165" y="275" font-family="Arial" font-size="17" fill="#6b827a">Good morning, Maya</text>
  <rect x="165" y="320" width="565" height="125" rx="22" fill="#e6f5e6"/><circle cx="225" cy="382" r="35" fill="#75c887"/><rect x="285" y="360" width="180" height="14" rx="7" fill="#24483c"/><rect x="285" y="393" width="125" height="10" rx="5" fill="#91a79f"/>
  <rect x="165" y="480" width="270" height="155" rx="22" fill="#fff" stroke="#dce9df"/><rect x="460" y="480" width="270" height="155" rx="22" fill="#fff" stroke="#dce9df"/><path d="M195 590C245 530 300 600 405 530" fill="none" stroke="#56b877" stroke-width="9" stroke-linecap="round"/>
  <text x="865" y="155" font-family="Arial" font-size="19" font-weight="700" fill="#fff">TODAY</text><rect x="860" y="195" width="210" height="170" rx="25" fill="#285d4d"/><circle cx="965" cy="260" r="40" fill="#89d796"/><rect x="895" y="325" width="140" height="9" rx="5" fill="#a8cabf"/><rect x="860" y="400" width="210" height="72" rx="20" fill="#e1f4cd"/><rect x="860" y="495" width="210" height="72" rx="20" fill="#fff" opacity=".9"/>
</svg>
