<svg xmlns="http://www.w3.org/2000/svg" viewBox="0 0 48 48" fill="none">
  <path fill="#111827" d="M35.9 12.2a.8.8 0 0 0-.7-.7l-5.1-.4s-.4-.4-1-1c-.9-.8-1.8-.8-2.1-.7l-1.7.5c-.8-2.2-2.2-4.2-4.7-4.2h-.2c-.7-.9-1.6-1.3-2.3-1.3-5.5 0-8.1 6.9-9 10.4l-5.2 1.6c-1.6.5-1.7.6-1.9 2.1L.2 39.7 25.4 44l13.7-3c0-.1-3.2-28.6-3.2-28.8ZM23.4 10.4l-2.8.9v-.6c0-1.7-.2-3.1-.7-4.2 1.3.2 2.4 1.6 3.5 3.9Zm-4.2-3.5c.6 1 .8 2.5.8 4.5v.1l-5.7 1.8c1.1-4 3-5.9 4.9-6.4Zm-1.3-1c.2 0 .4.1.6.2-2.5 1.1-5.2 4.1-6.3 7.8l-2.4.7c1-3.2 3.2-8.7 8.1-8.7Zm1.8 19.2s-1.5-.8-3.4-.8c-2.8 0-2.9 1.7-2.9 2.2 0 2.4 6.3 3.4 6.3 9.1 0 4.5-2.9 7.4-6.7 7.4-4.6 0-6.9-2.9-6.9-2.9l1.2-4s2.4 2 4.4 2c1.3 0 1.9-1 1.9-1.8 0-3.2-5.2-3.3-5.2-8.6 0-4.4 3.1-8.6 9.5-8.6 2.4 0 3.6.7 3.6.7l-1.8 5.3Z"/>
</svg>
