<svg xmlns="http://www.w3.org/2000/svg" viewBox="0 0 48 48" fill="none">
  <circle cx="24" cy="24" r="21" stroke="#111827" stroke-width="3"/>
  <path fill="#111827" d="M9.8 24c0 5.6 3.2 10.5 7.9 12.8L11 18.6c-.8 1.7-1.2 3.5-1.2 5.4Zm23.8-.7c0-1.7-.6-2.9-1.1-3.9-.7-1.1-1.4-2-1.4-3.1 0-1.2.9-2.3 2.2-2.3h.2A14.1 14.1 0 0 0 24 10.2c-5.3 0-9.9 2.9-12.3 7.1h.9c1.5 0 3.9-.2 3.9-.2.8 0 .9 1.1.1 1.2l-1.6.1 5.3 15.8 3.2-9.5-2.3-6.3-1.4-.1c-.8 0-.7-1.3.1-1.2 0 0 2.4.2 3.8.2 1.5 0 3.9-.2 3.9-.2.8 0 .9 1.1.1 1.2l-1.6.1 5.2 15.7 1.5-5c.6-2.1.8-3.6.8-4.8ZM24.3 25.3 20 37.7c1.3.4 2.6.6 4 .6 1.6 0 3.2-.3 4.6-.8l-.1-.2-4.2-12Zm12.2-7.8c.1.9.2 1.8.2 2.8 0 1.7-.3 3.7-1.3 6.1l-4.4 12.8c4.3-2.5 7.2-7 7.2-12.2 0-3.4-1.3-6.7-3.4-9.1Z"/>
</svg>
