<svg width="386" height="121" viewBox="0 0 386 121" fill="none" xmlns="http://www.w3.org/2000/svg">
<path d="M339.843 2.90641C345.742 2.85961 352.955 2.64326 358.729 2.99931C357.497 10.0967 356.207 17.1837 354.857 24.2596C337.45 24.1778 319.98 24.4706 302.587 24.2692C301.159 32.9691 299.592 41.6459 297.888 50.2962C312.111 49.9699 326.856 50.2853 341.153 50.179C339.271 56.8189 338.355 64.8846 336.642 71.717L309.836 71.7182C304.751 71.7238 299.164 71.8245 294.11 71.6321C293.558 75.1809 292.723 78.6433 292.11 82.1603C291.213 87.3282 290.396 92.4582 289.329 97.6012C295.802 97.3135 302.862 97.4375 309.377 97.4404L341.585 97.4536C340.332 104.563 338.613 111.784 337.767 118.858C317.63 118.666 297.401 119.164 277.25 118.946C271.15 118.88 265.02 119.06 258.921 118.898L259.33 116.459C257.267 116.829 252.279 116.682 250.02 116.674C245.021 116.664 240.022 116.681 235.022 116.724L177.064 117.211C170.411 117.272 163.132 116.999 156.574 117.227C156.479 116.505 156.424 115.724 156.358 114.994L225.865 114.1C231.615 114.024 237.365 113.994 243.116 113.922C248.349 113.857 254.35 113.515 259.522 113.972L259.773 111.752C257.514 112.163 251.522 112.114 248.956 112.153C241.921 112.275 234.884 112.348 227.848 112.373L178.551 112.637C170.919 112.689 163.301 112.614 155.67 112.774C155.542 111.879 155.441 110.947 155.333 110.046C160.177 109.721 167.694 109.929 172.802 109.882L207.656 109.524L242.339 109.015C248.397 108.935 254.434 108.688 260.482 108.923C260.602 108.253 260.657 107.303 260.717 106.605C257.545 106.946 252.007 106.865 248.615 106.929C240.831 107.121 233.045 107.258 225.259 107.342C201.88 107.973 178.494 108.228 155.108 108.106L154.769 105.393C183.517 105.419 212.064 103.995 240.777 104C247.63 104.001 254.447 103.805 261.307 104.022L261.714 101.889C259.493 102.005 257.286 102.052 255.064 102.051C242.25 102.046 229.447 102.288 216.635 102.573L181.972 103.314C173.278 103.497 163.082 103.771 154.405 103.493C154.233 102.735 154.088 101.729 153.952 100.944C159.391 100.595 165.875 100.611 171.353 100.516L200.407 100.103C211.744 100 223.193 99.0687 234.532 99.327C243.789 99.5378 252.968 99.5869 262.229 99.6401C262.422 98.9795 262.568 98.0441 262.698 97.3489C254.815 97.5881 246.074 96.9687 238.346 97.689C239.654 97.0411 241.711 95.7078 243.02 94.9061C249.674 94.9485 256.666 95.1741 263.282 95.0988L263.537 93.0481C261.797 93.2945 245.753 93.3212 245.027 92.8912C244.877 91.7924 246.354 90.4193 247.446 90.4324C248.662 90.4468 249.822 90.592 251.053 90.5957L263.95 90.6315L264.183 88.601C262.527 88.8699 249.255 89.0085 248.113 88.3958C247.809 87.8104 247.868 87.4234 247.885 86.7724C248.111 86.3844 248.277 86.0866 248.788 85.9752C251.384 85.411 262.875 86.606 264.603 86.0007C264.997 85.6347 265.086 84.7575 265.201 84.1916C261.106 84.6623 252.772 84.2732 248.333 84.1688C248.255 83.2632 248.245 82.1512 248.212 81.2272C253.313 81.147 258.524 81.3329 263.623 81.5066C264.705 81.5434 265.395 81.4793 266.045 80.5677C266.041 79.9303 266.121 80.1584 265.742 79.6536C263.99 79.4159 260.674 79.5766 258.713 79.5781C255.109 79.5738 251.507 79.5203 247.905 79.4171C247.397 78.3906 247.016 77.5237 246.578 76.4638C249.687 76.2193 254.015 76.4317 257.185 76.4742C260.095 76.5129 263.823 76.5254 266.666 76.8051L266.927 74.6018C264.395 74.8507 261.112 74.7906 258.518 74.7871C254.169 74.7598 249.82 74.7635 245.47 74.7982C244.383 73.6315 243.593 73.0936 242.32 72.179C249.267 71.8305 256.162 71.9491 263.119 71.9707C264.494 71.9656 266.028 72.0686 267.413 72.1317C267.571 71.1793 267.635 70.3745 267.711 69.4122C266.25 69.734 264.882 69.7897 263.395 69.7899C255.848 69.7915 248.319 69.8442 240.781 70.1538C239.259 70.216 237.056 69.4841 235.421 69.473C227.596 69.4202 219.768 69.5302 211.943 69.51C211.147 69.507 210.986 70.2988 210.532 70.8285C208.207 71.0518 204.653 71.0242 202.26 71.0621C196.299 71.1846 190.337 71.1443 184.378 70.9412C184.437 70.1061 184.623 69.1299 184.761 68.2889C188.701 67.8404 193.886 68.0504 197.977 67.9648C210.445 67.7043 222.975 67.9882 235.451 67.8244C242.785 67.7283 250.158 67.0687 257.532 67.1427C260.787 67.1752 265.037 67 268.244 67.403L268.729 65.0717C262.901 65.4462 256.027 65.2568 250.102 65.3497L216.598 65.9144L196.875 66.1701C193.306 66.2135 188.588 66.3817 185.119 66.1009C185.153 65.2654 185.331 64.2443 185.456 63.3988C200.02 62.7869 214.681 63.3424 229.231 63.1302C242.594 62.9351 255.841 62.2658 269.243 62.6014L269.42 60.3675C267.304 60.7086 262.79 60.6009 260.492 60.6317C254.679 60.7635 248.868 60.8347 243.055 60.8456C224.829 61.1429 206.605 61.33 188.377 61.4073C187.757 61.404 186.568 61.4555 186.078 61.1937C185.897 60.5509 185.958 59.4412 186.299 58.8636C187.671 58.4207 201.378 58.6954 203.7 58.6919C218.752 58.6105 233.802 58.453 248.851 58.2194L263.111 57.9638C265.065 57.935 267.05 58.0282 268.994 57.9735C269.657 57.9548 269.57 57.9169 269.932 57.4748C270.029 56.7848 270.077 57.0416 269.77 56.4377C269.212 56.0926 265.512 56.3476 264.524 56.3503C258.756 56.3577 252.986 56.4003 247.218 56.4778L220.515 56.5438C209.318 56.7292 198.121 56.7266 186.924 56.536L187.221 53.8974C205.451 54.3525 224.561 53.6188 242.884 53.5392L264.387 53.4825C265.604 53.4722 269.671 53.6192 270.482 53.3682C270.998 52.7303 270.877 52.3662 270.99 51.4269C268.515 51.8359 263.208 51.6901 260.515 51.7289L236.246 51.9035L205.453 52.139C199.952 52.178 194.33 52.2601 188.819 52.0777C188.459 52.0656 187.92 51.8408 187.731 51.5348C187.419 51.0298 187.476 50.964 187.55 50.4605C188.521 49.0018 191.107 49.6672 192.726 49.6549L205.965 49.5124C208.631 49.4975 211.196 49.9043 213.659 48.9202C213.803 49.2837 213.774 49.521 213.776 49.9096C214.553 50.3505 238.938 49.7813 241.748 49.8298C242.711 49.8465 246.008 48.6683 247.16 48.2336C247.582 48.3872 248.356 48.6925 248.781 48.7065C256.374 48.96 264.055 48.4707 271.644 48.796L271.897 46.8434C268.651 47.1613 263.249 47.0165 259.838 47.0525C256.551 47.0872 251.293 47.2624 248.261 46.9781C249.041 45.9925 250.152 45.0016 251.077 44.1261L271.302 44.2267C271.891 44.2275 272.183 44.1812 272.568 43.7979C272.596 43.2861 272.705 42.6654 272.407 42.2786C270.868 42.109 267.129 42.2438 265.477 42.2702L251.984 42.4998C252.145 41.5669 252.451 40.5742 252.711 39.6561C253.809 39.6216 254.91 39.616 256.008 39.6505C261.714 39.8298 267.413 39.6592 273.119 39.761L273.413 37.553L253.136 37.7412L253.017 34.9159C259.995 35.036 266.976 35.0475 273.954 34.9503L274.324 32.7456C269.729 33.2576 263.905 32.9718 259.205 33.1075C257.25 33.164 254.422 32.8667 252.564 33.1644C252.062 32.243 251.69 31.2505 251.301 30.2754C256.341 30.6449 261.778 30.4229 266.847 30.4083C268.528 30.4035 273.407 30.5023 274.717 30.2045C275.133 29.7789 275.223 28.904 275.347 28.2863C270.652 28.8435 265.341 28.3591 260.587 28.553C257.378 28.6841 253.881 28.3831 250.701 28.7576C249.569 27.8569 248.454 26.7828 247.387 25.7939C254.05 25.7841 260.711 25.7203 267.375 25.6023C269.926 25.5721 272.45 25.5842 274.999 25.6319C275.875 25.6484 276.381 24.7179 276.108 23.8765C275.271 23.6847 270.99 23.9927 269.834 24.0024L247.928 24.195C245.243 24.2092 242.684 23.8111 240.111 23.7776C235.108 23.7126 230.052 23.8142 225.045 23.7834C224.096 23.7776 219.246 23.7365 218.557 23.8845C218.478 24.0511 218.378 24.2598 218.275 24.4101C218.238 24.4636 218.005 24.6311 217.97 24.6309C216.123 24.6219 213.815 24.6256 212.027 24.6515C205.397 24.8106 198.767 24.9168 192.135 24.9708C192.216 24.09 192.401 22.9928 192.528 22.0995L214 22.0091C221.813 22.0459 229.626 22.2219 237.447 22.0557C242.378 21.9509 247.446 21.3936 252.369 21.2779C260.437 21.0883 268.711 20.9402 276.77 21.084C276.906 20.4825 277.145 19.7265 276.999 19.1503C276.746 19.0091 266.143 19.3241 264.317 19.3278C259.797 19.3074 255.278 19.3479 250.758 19.4493C246.403 19.5858 241.763 20.0127 237.443 19.9627C222.671 19.7916 207.899 20.1424 193.143 20.2076L193.417 17.3945C204.719 16.579 217.3 17.3069 228.713 17.0951C244.855 16.7955 261.626 15.7613 277.735 16.3341L279.936 3.01763L339.843 2.90641Z" fill="#FEFEFE"/>
<path d="M152.404 77.8525C157.939 77.9013 163.546 77.7407 169.086 77.8147C170.731 77.8367 175.004 77.7275 176.393 78.0399C176.684 78.4569 176.67 79.6768 176.543 80.1767C176.207 80.37 147.75 80.4551 145.536 80.4658L41.1199 81.8813C33.9955 82.0016 24.1277 82.2931 17.1504 81.9228C17.5627 80.5667 17.7093 80.1874 18.4081 78.9538C35.9 79.151 53.2779 78.5159 70.7833 78.3925L97.226 78.1349C115.619 78.1529 134.012 78.0586 152.404 77.8525Z" fill="#FEFEFE"/>
<path d="M164.063 86.8041C168.055 86.7175 172.155 86.5736 176.151 86.6422C176.526 86.6965 177.783 86.7321 178.022 87.0656C179.296 88.8469 176.855 89.1685 175.842 89.2407C171.924 89.5201 168.037 89.3441 164.133 89.4385C154.083 89.7058 144.032 89.9052 133.979 90.0368C98.6024 90.6685 63.2208 90.9592 27.8385 90.9083C22.8844 90.854 17.8089 91.0183 12.8074 90.9956C13.3068 89.9001 13.5502 89.4993 14.2353 88.505L164.063 86.8041Z" fill="#FEFEFE"/>
<path d="M161.866 82.1358C166.386 82.1021 172.952 81.8858 177.247 82.3006C177.374 82.901 177.489 83.9126 177.581 84.5503C172.969 84.8457 167.218 84.6286 162.476 84.6617C154.375 84.7548 146.275 84.9117 138.176 85.1326C102.622 86.1327 67.0554 86.5904 31.4875 86.5057C28.2986 86.465 25.1093 86.4753 21.9208 86.5368C20.0556 86.5639 17.726 86.6879 15.884 86.4775C15.4547 86.4284 15.501 86.3667 15.2733 86.0287C15.2058 84.3763 16.3654 83.6796 17.9257 83.7216C21.8021 83.826 25.6369 83.832 29.5139 83.8034L61.4595 83.5633L161.866 82.1358Z" fill="#FEFEFE"/>
<path d="M372.108 2.85052C378.049 1.54984 383.91 5.34822 385.152 11.3042C386.393 17.2602 382.538 23.0851 376.574 24.2684C370.691 25.4353 364.966 21.6443 363.742 15.7707C362.518 9.89727 366.25 4.13319 372.108 2.85052Z" fill="#FEFEFE"/>
<path d="M371.452 4.49745C376.49 2.79071 381.953 5.52091 383.615 10.5762C385.276 15.6315 382.5 21.0723 377.432 22.6905C372.427 24.2884 367.07 21.552 365.429 16.5591C363.787 11.5663 366.476 6.18313 371.452 4.49745Z" fill="#111111"/>
<path d="M370.565 7.55274C372.98 7.45587 377.134 7.0662 378.654 9.28892C378.787 10.1198 378.325 13.307 378.306 14.5313C378.284 15.9404 378.882 18.591 378.693 19.491C378.232 19.9017 378.442 19.7991 377.814 19.854C376.706 19.3849 376.161 17.8679 375.655 16.7812C375.313 15.9774 374.723 14.2197 373.791 14.0055C371.888 15.1306 373.332 19.9821 370.571 19.3646C370.088 19.2568 370.226 19.4489 369.751 19.1409C369.492 17.5002 369.576 9.8629 369.983 7.84283C370.008 7.71921 370.39 7.61852 370.565 7.55274Z" fill="#FEFEFE"/>
<path d="M372.989 9.64657C373.816 9.59048 374.521 9.44629 375.145 9.95327C375.585 11.006 375.249 11.5786 374.867 12.6761C372.579 13.0503 372.678 11.3496 372.989 9.64657Z" fill="#111111"/>
<path d="M270.977 11.668C272.677 11.6368 275.709 11.1116 276.478 12.8398C276.468 13.4561 276.462 13.5365 276.108 14.0367C275.005 14.8516 270.889 14.5467 269.247 14.5888L252.612 14.9273L198.94 15.7251C197.184 15.7594 195.787 15.7674 194.038 15.6611C194.077 14.6143 194.242 13.7558 194.421 12.7244C206.807 12.2811 219.377 12.4146 231.78 12.3132L270.977 11.668Z" fill="#FEFEFE"/>
<path d="M60.6209 73.9691C63.7664 73.8429 96.4195 73.5279 97.7041 73.9714C97.9732 74.5642 97.7689 75.5662 97.44 76.1097C96.1107 76.7086 86.9431 76.5067 84.799 76.5501C75.1234 76.7586 65.4463 76.8997 55.7687 76.9737C43.7775 76.9663 31.4911 77.8484 19.4114 77.5284C19.829 76.1351 19.987 75.7418 20.6848 74.46C30.0417 74.9368 40.1566 74.3742 49.5456 74.1122C53.1928 74.0105 56.9525 74.0314 60.6209 73.9691Z" fill="#FEFEFE"/>
<path d="M263.557 7.1956C266.511 7.07159 269.597 6.48162 271.965 8.56261C272.411 8.95477 272.421 8.87762 272.526 9.43116C271.831 10.1154 268.305 9.79266 267.176 9.81273L253.722 10.0265C237.155 10.3609 220.587 10.5921 204.019 10.7202C200.983 10.7431 197.948 10.7498 194.912 10.7402L195.233 7.79527C204.074 8.03439 213.996 7.76511 222.86 7.66285L263.557 7.1956Z" fill="#FEFEFE"/>
<path d="M138.115 73.1882C143.799 73.005 148.792 73.1831 154.424 73.2176L175.95 73.2629L176.199 75.8691C162.848 75.6894 149.496 75.6643 136.144 75.7939C127.576 75.8321 119.009 75.9542 110.444 76.1597C108.877 76.1915 99.7301 76.4923 98.6153 76.2172L98.3987 75.8091C98.4104 75.082 98.8482 74.3152 99.165 73.6404C112.342 73.7619 125.028 73.2762 138.115 73.1882Z" fill="#FEFEFE"/>
<path d="M226.184 3.09337C233.417 2.99737 240.65 2.95367 247.884 2.96225C253.175 2.96216 258.612 2.86875 263.878 3.28267C264.905 3.36354 266.003 3.59211 266.699 4.42419C266.764 4.8934 266.806 4.70361 266.495 5.13235C265.483 5.34188 258.694 5.30242 257.082 5.32033C250.055 5.37877 243.028 5.49978 236.001 5.68331C222.922 5.79468 208.53 6.63581 195.667 6.21933C195.657 5.2694 195.766 4.51699 195.885 3.5786C205.73 3.26691 216.244 3.27549 226.184 3.09337Z" fill="#FEFEFE"/>
<path d="M130.849 27.0464L168.809 26.9204C168.947 27.8008 168.978 28.7751 169.029 29.6714L157.446 29.7215C146.246 30.0799 134.826 29.9671 123.603 30.1797C122.786 30.1953 120.699 30.2971 120.182 29.7812C120.09 28.8405 120.993 27.8479 121.556 27.0956L130.849 27.0464Z" fill="#FEFEFE"/>
<path d="M89.8895 27.8191L90.1242 27.7079L90.3733 27.8382C90.6337 28.6361 90.6074 29.8957 90.6298 30.772C89.4509 30.8311 88.1603 30.8436 86.9785 30.8346C71.9547 30.7211 56.9159 31.1835 41.8985 31.296L41.455 31.2353L41.2896 30.9618C41.3705 30.1577 41.9432 29.2293 42.3338 28.4849C52.3185 28.5659 62.0782 28.4557 72.0578 28.1794C78.0445 28.0138 83.8025 28.3326 89.8895 27.8191Z" fill="#FEFEFE"/>
<path d="M89.3602 22.752L89.6665 22.7674C89.8901 23.4013 89.882 25.2367 89.9041 26.0047C74.674 26.0594 59.0757 26.6509 43.8879 26.3522C43.5426 26.2455 43.6625 26.3059 43.4119 25.9745C43.5068 25.2062 44.1515 24.3679 44.5869 23.6896C53.6124 23.8265 63.4151 23.5539 72.4776 23.4104C76.3441 23.3491 85.7644 23.2896 89.3602 22.752Z" fill="#FEFEFE"/>
<path d="M85.8991 18.4714L89.1799 18.3651L89.362 21.5035C76.0871 21.3334 62.4137 22.1341 48.9154 21.9365L45.355 21.8606C45.7909 20.4521 46.0186 19.9557 46.7938 18.7101C50.4996 19.4182 61.1002 18.9737 65.2247 18.8633L85.8991 18.4714Z" fill="#FEFEFE"/>
<path d="M158.206 22.3718L167.981 22.285L168.12 25.1143C164.5 25.2139 160.404 25.1263 156.741 25.1448L132.29 25.2973C129.286 25.3346 125.313 25.4549 122.387 25.2529C122.712 24.0281 122.881 23.6121 123.432 22.4664C127.687 22.5665 132.443 22.4515 136.735 22.4369L158.206 22.3718Z" fill="#FEFEFE"/>
<path d="M75.9241 13.9931C80.0634 13.9115 84.2035 13.8759 88.3436 13.886C88.4775 14.6717 88.5719 15.709 88.6692 16.5198C87.9677 16.6031 87.3263 16.5899 86.6246 16.6002C77.8991 16.7281 69.2011 17.0002 60.4728 17.0945C57.5322 17.1795 50.361 17.434 47.7139 16.9197C48.0846 16.1187 48.8834 14.8814 49.3648 14.0885C57.5509 14.325 67.7305 14.2058 75.9241 13.9931Z" fill="#FEFEFE"/>
<path d="M91.2743 92.2627C97.1868 92.0926 107.778 91.9927 114.043 92.4407C114.946 92.5053 113.521 94.7836 113.231 95.2217C109.726 94.9215 100.472 94.9314 96.877 95.0126C89.324 95.063 81.7718 95.1767 74.2208 95.3537C73.9507 94.418 73.7316 93.3979 73.5095 92.4434C75.4746 92.3782 78.0022 92.5043 80.0483 92.4962C83.7908 92.4475 87.5329 92.3696 91.2743 92.2627Z" fill="#FEFEFE"/>
<path d="M155.461 17.8991C159.341 17.7934 163.381 17.8276 167.273 17.8109C167.358 18.655 167.397 19.6101 167.45 20.4653C157.418 20.7793 146.258 20.6911 136.174 20.6806C132.708 20.7237 127.451 20.9542 124.156 20.7071C124.592 19.6401 125.051 18.9762 125.677 18.0058C135.707 18.2516 145.434 18.0591 155.461 17.8991Z" fill="#FEFEFE"/>
<path d="M160.889 13.222C162.809 13.1544 164.814 13.149 166.742 13.1149C166.768 14.0297 166.748 15.0305 166.749 15.9533C163.79 16.2149 157.813 16.0271 154.563 16.0362L132.533 16.1844C130.496 16.205 128.459 16.206 126.422 16.1869C126.82 14.9468 127.023 14.4901 127.633 13.3362C137.875 13.7768 150.51 13.4276 160.889 13.222Z" fill="#FEFEFE"/>
<path d="M85.8617 9.52443C86.7411 9.51576 86.9131 9.37098 87.5802 9.79106C87.9099 10.3792 87.7676 11.55 87.7417 12.2772C75.8122 12.1051 63.4314 12.5122 51.4338 12.586C50.8854 12.6296 50.7879 12.6486 50.2732 12.4551L50.071 11.9921C50.1074 11.1937 50.662 10.2769 51.0328 9.53593C62.642 9.66533 74.2525 9.6615 85.8617 9.52443Z" fill="#FEFEFE"/>
<path d="M85.3254 97.1291C91.9155 96.9348 98.5984 97.0265 105.196 97.0043C107.359 96.9971 109.733 96.9889 111.879 97.1869C111.628 98.1062 111.229 98.9614 110.849 99.8351C107.548 99.7321 104.114 99.7366 100.802 99.7023C92.1304 99.7091 83.4584 99.7755 74.7871 99.9015L74.4504 97.2515C77.9853 97.1462 81.757 97.184 85.3254 97.1291Z" fill="#FEFEFE"/>
<path d="M53.5173 4.75885C64.634 4.96155 75.7226 4.64481 86.6852 4.87202C86.8774 5.75731 87.3005 6.77554 86.7144 7.50128L85.9751 7.56167C74.7325 7.34814 63.1756 7.92725 51.884 7.86893C52.4593 6.50546 52.7142 5.99537 53.5173 4.75885Z" fill="#FEFEFE"/>
<path d="M160.335 8.73443C162.316 8.67591 164.027 8.69234 166.01 8.75246C166.044 9.67817 165.969 10.4584 165.897 11.3784C155.628 11.3015 145.057 11.668 134.747 11.7661L128.751 11.7717C129.152 10.5617 129.311 10.1495 129.935 9.04449C139.479 9.37179 150.867 9.07757 160.335 8.73443Z" fill="#FEFEFE"/>
<path d="M159.837 4.2595C161.745 4.23248 163.34 4.22208 165.241 4.34101C165.324 5.08172 165.361 6.06296 165.412 6.82605C155.601 7.11573 145.786 7.27348 135.97 7.29926L130.631 7.42451C131.056 6.03868 131.274 5.60531 131.982 4.32966C140.242 4.91311 151.468 4.48994 159.837 4.2595Z" fill="#FEFEFE"/>
<path d="M101.962 110.571L105.267 110.474C105.05 111.609 104.771 112.486 104.167 113.465C103.558 113.845 100.522 113.609 99.512 113.612L80.3494 113.713L77.4781 113.766C77.2958 112.713 77.2004 111.733 77.093 110.67C80.2265 110.513 83.7972 110.639 86.9845 110.657C91.9771 110.687 96.97 110.659 101.962 110.571Z" fill="#FEFEFE"/>
<path d="M91.0494 101.606C96.3845 101.403 104.89 101.19 110.114 101.824C109.66 102.674 109.15 103.318 108.574 104.086C104.538 103.746 99.0054 103.94 94.9054 103.998L75.7591 104.236C75.6042 103.468 75.4667 102.671 75.3232 101.899C79.7955 101.494 86.2854 101.786 91.0494 101.606Z" fill="#FEFEFE"/>
<path d="M88.3305 106.278C93.9756 106.178 102.073 105.849 107.51 106.27C107.26 107.03 106.894 107.932 106.61 108.695C102.885 108.694 99.1599 108.744 95.4361 108.845C89.1762 109.036 82.9125 109.069 76.651 108.943L76.3467 106.42C80.2389 106.25 84.4122 106.295 88.3305 106.278Z" fill="#FEFEFE"/>
<path d="M85.2138 50.7946C88.0497 50.686 91.153 50.6945 94.0089 50.6529C94.0934 51.7649 94.2195 52.922 94.3236 54.0371C88.3305 53.9402 82.3363 53.9172 76.3424 53.9682C73.4102 53.9445 70.4778 53.9458 67.5456 53.9725C67.458 53.2271 67.4549 52.0666 67.4312 51.2846C73.1804 50.9786 79.3342 51.0331 85.2138 50.7946Z" fill="#FEFEFE"/>
<path d="M173.091 95.9601C174.71 95.941 177.147 95.6667 178.621 95.8803C179.324 96.4115 179.452 97.865 179.069 98.6532C178.423 98.9891 162.18 99.2425 159.701 99.3245L153.628 99.3506L153.185 96.0967C159.585 95.8987 166.573 96.0796 173.091 95.9601Z" fill="#FEFEFE"/>
<path d="M142.577 31.6669C144.342 31.5822 146.148 31.5904 147.919 31.6048C155.136 31.6638 162.343 31.4444 169.56 31.5059L169.839 34.3719C163.999 34.788 157.113 34.3698 151.197 34.529C150.146 34.5573 145.127 34.457 144.422 34.6398C143.892 34.6365 143.558 34.6665 143.06 34.4755C142.429 33.8342 142.589 32.6253 142.577 31.6669Z" fill="#FEFEFE"/>
<path d="M200.267 72.5941C203.747 72.5855 207.224 72.5343 210.702 72.4406C210.686 73.584 210.561 74.3905 210.394 75.5265C205.593 75.7877 199.142 75.5896 194.221 75.5837C190.693 75.575 187.166 75.5181 183.64 75.4136L183.921 72.8524C187.713 72.4214 196.077 72.6414 200.267 72.5941Z" fill="#FEFEFE"/>
<path d="M173.846 91.091C175.635 91.0674 177.182 91.1093 178.969 91.1924C178.974 92.1161 178.943 93.0934 178.929 94.0222C172.579 94.338 164.48 94.2404 158.015 94.3175C156.443 94.3467 154.769 94.4441 153.217 94.294C152.372 94.2122 152.393 92.3692 152.565 91.764C153.332 91.1996 171.396 91.1272 173.846 91.091Z" fill="#FEFEFE"/>
<path d="M189.385 40.258C198.096 40.2436 206.689 40.0627 215.403 40.2167L214.798 43.2969C209.875 43.215 205.171 43.2017 200.246 43.2562C196.926 43.293 192.388 43.4457 189.237 42.952C189.214 42.029 189.305 41.1759 189.385 40.258Z" fill="#FEFEFE"/>
<path d="M200.117 95.376L206.59 95.2516C206.399 96.5369 206.185 97.229 205.796 98.4788C201.01 97.858 191.333 98.369 186.19 98.5206L179.93 98.6314C179.522 97.3596 179.483 96.8474 179.365 95.5041C186.282 95.5407 193.199 95.4981 200.117 95.376Z" fill="#FEFEFE"/>
<path d="M7.87529 102.372C13.3224 102.292 24.1684 102.285 29.9941 102.424C30.1058 102.526 30.2024 102.614 30.2839 102.688C30.4616 103.603 30.0138 105.147 29.0799 105.545C24.2155 105.682 19.3496 105.76 14.4832 105.779C12.0743 105.79 8.60942 105.873 6.27905 105.632C6.68065 104.265 6.96661 103.467 7.87529 102.372Z" fill="#FEFEFE"/>
<path d="M160.093 59.3657C164.615 59.2621 169.138 59.2313 173.661 59.2732L173.847 62.2247L160.993 62.3666C156.963 62.404 151.963 62.5313 147.982 62.2494L147.548 59.527C151.452 59.3337 156.129 59.4067 160.093 59.3657Z" fill="#FEFEFE"/>
<path d="M84.2796 46.5021C87.2941 46.3953 90.4583 46.4283 93.4847 46.4155L93.5723 49.3368C87.7524 49.2775 82.0635 49.4721 76.2438 49.6117C73.2006 49.5708 70.1573 49.5568 67.1142 49.5695C66.9478 48.6763 66.8804 47.7344 66.7954 46.8274C72.2249 46.4032 78.6562 46.7334 84.2796 46.5021Z" fill="#FEFEFE"/>
<path d="M167.192 63.8378C169.634 63.811 172.076 63.8472 174.516 63.9465C174.583 64.8324 174.606 65.8148 174.645 66.7105C168.376 66.8174 162.106 66.881 155.836 66.9019C153.47 66.8814 151.019 66.8226 148.664 66.9778C148.471 66.2051 148.311 64.7731 148.195 63.9373C154.527 63.9835 160.86 63.9502 167.192 63.8378Z" fill="#FEFEFE"/>
<path d="M187.052 90.8953C193.773 90.8013 200.495 90.7619 207.216 90.7771L206.878 93.5135L200.594 93.59C194.719 93.6837 185.974 94.1308 180.356 93.7878C180.272 92.9686 180.288 91.9078 180.279 91.0654L187.052 90.8953Z" fill="#FEFEFE"/>
<path d="M168.136 36.0094C169.049 35.9689 169.314 35.8182 170.033 36.2235C170.446 36.8177 170.396 38.1816 170.425 38.9741C162.324 38.8055 154.117 39.2272 145.974 39.1077C145.516 39.1188 145.057 39.1254 144.598 39.1277C143.9 38.6687 143.665 37.2055 144.074 36.4638C144.849 36.2268 153.526 36.2928 154.799 36.2788L168.136 36.0094Z" fill="#FEFEFE"/>
<path d="M172.87 54.504L173.034 54.5869C173.248 55.2157 173.252 56.5997 173.281 57.328C165.201 57.5801 155.413 57.6342 147.292 57.4857C146.852 56.8384 146.81 55.5909 146.736 54.7966C154.68 54.1618 164.613 54.8663 172.87 54.504Z" fill="#FEFEFE"/>
<path d="M141.564 31.7037L142.577 31.6669C142.589 32.6253 142.429 33.8342 143.06 34.4755C143.558 34.6665 143.892 34.6365 144.422 34.6398C143.237 34.9283 137.582 34.9264 136.282 34.698C135.281 34.5357 131.762 34.6676 130.563 34.6632C126.277 34.6474 121.842 34.8843 117.562 34.6951C117.946 33.3635 118.268 32.7055 119.098 31.6229C121.613 31.9476 124.412 31.7905 126.953 31.7812C131.718 31.7634 136.829 31.449 141.564 31.7037Z" fill="#FEFEFE"/>
<path d="M141.563 31.7037L142.576 31.6669C142.589 32.6253 142.428 33.8342 143.06 34.4755C143.557 34.6665 143.892 34.6365 144.421 34.6398C143.237 34.9283 137.582 34.9264 136.282 34.698C137.366 34.5686 140.142 34.6163 141.354 34.6083L141.563 31.7037Z" fill="#242525"/>
<path d="M190.222 35.6117C197.944 35.3559 208.724 35.4388 216.358 35.7061C216.288 36.5923 216.107 37.5201 215.958 38.4001C213.825 38.3934 190.922 38.6121 190.237 38.3179C189.852 37.5207 190.012 36.4439 190.222 35.6117Z" fill="#FEFEFE"/>
<path d="M165.295 68.7114C168.602 68.644 171.91 68.6232 175.217 68.6491C175.369 69.5442 175.471 70.6391 175.58 71.5554L159.193 71.5453C155.798 71.5272 152.403 71.5358 149.008 71.5708L148.888 68.9493C154.096 68.6764 159.984 68.8047 165.295 68.7114Z" fill="#FEFEFE"/>
<path d="M80.7857 37.3661C84.5331 37.2892 88.3649 37.3061 92.1193 37.2845L92.1868 40.0005L76.2939 40.1515C72.7958 40.186 69.0795 40.2502 65.6013 40.1005L65.0315 37.5627C69.1099 37.2205 76.4519 37.3912 80.7857 37.3661Z" fill="#FEFEFE"/>
<path d="M90.1344 55.6592L94.7307 55.682C94.8967 56.6125 94.9702 57.6029 95.0589 58.5484C92.7064 58.6438 89.5656 58.5264 87.1302 58.5128L73.3109 58.5042L68.4374 58.4341L68.1282 55.9822C70.4021 55.6781 74.758 55.7692 77.1484 55.7678C81.4773 55.77 85.8061 55.7338 90.1344 55.6592Z" fill="#FEFEFE"/>
<path d="M83.4977 41.8293C86.566 41.7395 89.636 41.7207 92.7052 41.7724C92.7974 42.614 92.8467 43.5639 92.9088 44.4167C87.0636 44.5768 81.2168 44.6819 75.3695 44.7321C72.31 44.7958 69.2111 44.7035 66.149 44.6418L65.9126 42.154C71.7963 41.9589 77.6668 42.052 83.4977 41.8293Z" fill="#FEFEFE"/>
<path d="M124.213 50.4035C127.368 50.341 130.593 50.4637 133.752 50.5466C133.295 51.8065 133.102 52.2415 132.422 53.3928C128.751 53.7305 122.666 53.5818 118.911 53.5838C115.565 53.568 112.308 53.5668 108.965 53.3939C109.419 52.1975 109.685 51.6592 110.314 50.5407C114.782 50.3803 119.708 50.4415 124.213 50.4035Z" fill="#FEFEFE"/>
<path d="M171.662 50.0188C171.984 49.9764 172.006 49.9991 172.318 50.1204C172.649 50.8006 172.538 52.0106 172.523 52.8126L146.982 52.7626C146.691 52.7826 146.62 52.7139 146.349 52.5743C145.983 51.935 146.023 50.9056 145.989 50.1368C154.136 49.8206 163.375 50.0945 171.662 50.0188Z" fill="#FEFEFE"/>
<path d="M93.3852 115.426C96.5809 115.435 99.7766 115.418 102.972 115.373L102.562 118.329C97.7379 118.246 92.7043 118.364 87.8782 118.432L78.3751 118.479C78.1957 117.62 78.05 116.522 77.9067 115.638C82.0443 115.301 89.068 115.47 93.3852 115.426Z" fill="#FEFEFE"/>
<path d="M84.4309 69.2847C86.282 69.2597 96.3328 68.8879 97.1412 69.8991C97.2093 70.5575 97.2975 71.0072 97.1102 71.651C96.4615 72.1562 84.5156 71.9188 83.0357 71.9188C78.7952 71.9111 74.4772 72.0726 70.1894 72.0756C70.1014 71.256 70.1264 70.3768 70.1281 69.5488C74.1193 69.186 80.147 69.3869 84.4309 69.2847Z" fill="#FEFEFE"/>
<path d="M170.714 40.6931L170.763 40.7338C171.025 41.1925 170.996 42.8677 171.014 43.4944C162.526 43.451 153.682 43.7056 145.132 43.748C144.909 42.8786 144.903 41.9708 144.859 41.072C145.717 41.0159 146.544 41.0239 147.402 41.015C155.159 40.9332 162.964 41.0262 170.714 40.6931Z" fill="#FEFEFE"/>
<path d="M89.0007 32.5083L91.3708 32.2936L91.4566 35.1565C86.2837 35.3726 81.0364 35.0608 75.8561 35.1435C72.8864 35.191 69.9195 35.2615 66.949 35.3027C66.1941 35.3045 65.2664 35.4706 64.7276 35.017C64.3871 34.4761 64.4727 33.5275 64.4696 32.8508C72.5164 32.3528 80.905 32.7242 89.0007 32.5083Z" fill="#FEFEFE"/>
<path d="M204.163 44.7504C207.368 44.6032 211.147 44.6673 214.399 44.6497C214.259 45.687 214.14 46.8469 213.825 47.8339C211.563 47.2779 202.096 47.5255 199.28 47.5405C195.855 47.583 191.786 47.6809 188.432 47.3951C188.454 46.5915 188.404 45.5953 188.928 45.0161C194.007 44.9805 199.086 44.8919 204.163 44.7504Z" fill="#FEFEFE"/>
<path d="M108.119 55.2558C112.99 55.1081 118.125 55.257 123.014 55.264C124.861 55.2665 129.702 55.1986 131.253 55.4618L131.349 55.7951C131.119 56.6314 130.432 57.3969 129.893 58.101C123.55 58.4608 117.047 58.1283 110.685 58.2593C109.447 58.2846 108.181 58.2492 106.945 58.1805C107.312 56.99 107.484 56.3197 108.119 55.2558Z" fill="#FEFEFE"/>
<path d="M47.6565 42.229C51.5352 42.1497 55.4731 42.1474 59.3573 42.1112C58.8959 43.4484 58.4843 43.969 57.6474 45.0946C54.1304 45.0613 50.2651 45.1935 46.7146 45.2231C43.1075 45.243 38.2546 45.3936 34.7532 45.1503C35.0422 44.0523 35.3465 43.3246 35.7799 42.2708C39.7388 42.3027 43.6979 42.2889 47.6565 42.229Z" fill="#FEFEFE"/>
<path d="M209.573 26.6495C212.406 26.5889 215.391 26.6763 218.236 26.7163C218.12 27.6386 217.948 28.4236 217.754 29.3314C212.111 29.2648 206.467 29.2835 200.824 29.3874C199.499 29.4071 192.361 29.6989 191.678 29.1928C191.489 28.3798 191.709 27.5876 191.864 26.7612C197.769 26.8115 203.671 26.7743 209.573 26.6495Z" fill="#FEFEFE"/>
<path d="M38.3257 37.7436C40.6825 37.6794 60.3312 37.4173 61.0014 37.8456C61.1193 38.7555 60.4711 40.1253 59.5985 40.5205C57.0833 40.5552 37.9583 41.0948 37.1069 40.1942C36.7998 39.2399 37.4926 38.2001 38.3257 37.7436Z" fill="#FEFEFE"/>
<path d="M182.343 81.9158L208.827 81.9417L208.353 84.4955C207.051 84.6724 200.734 84.5807 199.055 84.5617C193.495 84.4988 187.564 84.6851 182.043 84.468L182.343 81.9158Z" fill="#FEFEFE"/>
<path d="M105.756 59.881C113.329 59.6509 121.786 59.7116 129.386 59.8423C129.008 61.0078 128.71 61.6193 128.16 62.7227C120.727 62.7087 112.075 63.0044 104.776 62.5216C104.96 61.482 105.075 60.6994 105.756 59.881Z" fill="#FEFEFE"/>
<path d="M204.947 31.3313C209.001 31.275 213.054 31.2955 217.106 31.392L216.713 33.9497C211.912 33.9303 207.111 33.9353 202.31 33.9649C198.43 34.0763 194.548 34.128 190.666 34.1203L190.922 31.4142C195.326 31.2281 200.485 31.3342 204.947 31.3313Z" fill="#FEFEFE"/>
<path d="M169.923 45.1663C170.715 45.0699 170.809 44.9216 171.421 45.2693C171.817 45.8846 171.741 47.2628 171.754 48.0586C163.367 48.1012 154.979 48.079 146.593 47.992C146.166 47.9908 146.113 47.9778 145.719 47.8129C145.325 47.3089 145.367 46.3561 145.328 45.6769C152.731 44.9451 162.239 45.9345 169.923 45.1663Z" fill="#FEFEFE"/>
<path d="M208.637 77.4532C209.318 77.5118 209.17 77.4103 209.693 77.7576C209.948 78.3705 209.606 79.3517 209.44 80.0437C202.087 80.4325 191.547 80.0951 183.956 80.0741C183.535 80.0887 183.409 80.1156 183.031 79.8952C182.696 79.3065 182.955 78.3008 183.059 77.5811C191.28 77.4734 200.553 77.7989 208.637 77.4532Z" fill="#FEFEFE"/>
<path d="M46.3447 69.6599L46.8308 69.7142C46.9873 70.074 47.083 70.3319 47.0924 70.7316C47.0994 71.119 46.9482 71.4926 46.6738 71.7661C46.3124 72.1272 45.0327 72.5228 44.5065 72.5273C37.1766 72.5923 29.7898 72.8479 22.4649 72.8509L21.9889 72.7307L21.833 72.4292C21.9426 71.6343 22.6299 70.6547 23.0672 69.9365C29.5405 69.9646 40.0502 70.2095 46.3447 69.6599Z" fill="#FEFEFE"/>
<path d="M71.967 60.3406C79.088 60.1197 88.2394 59.984 95.3139 60.2297C95.4211 60.9177 95.4501 62.0258 95.488 62.7564L92.0417 62.7945C84.6537 62.7848 76.4679 62.983 69.1804 62.7363L68.8484 60.4134L71.967 60.3406Z" fill="#FEFEFE"/>
<path d="M57.4825 0.957262C66.4613 0.652396 75.7135 1.07985 84.7176 0.869228C85.5534 0.849663 86.4821 1.16006 86.6387 2.05536C85.993 3.25777 83.9425 3.00504 82.7923 2.96334C79.5392 2.93902 55.8471 3.3942 54.8768 3.04396C54.4347 2.88438 54.3561 2.7907 54.1628 2.36648C54.61 0.894653 56.2939 0.943595 57.4825 0.957262Z" fill="#FEFEFE"/>
<path d="M5.17069 107.342C10.3145 107.583 16.2106 107.194 21.4167 107.334C23.3355 107.386 26.3327 107.154 28.1411 107.428L28.4244 107.82C28.3923 108.896 27.6238 109.519 26.8828 110.238C26.2142 110.329 24.2302 110.242 23.4491 110.228C16.9444 110.116 10.2809 110.422 3.79517 110.029C4.27555 108.844 4.4871 108.421 5.17069 107.342Z" fill="#FEFEFE"/>
<path d="M22.2015 97.5146C23.9687 97.4988 32.1105 96.9144 32.8239 98.12C32.3744 100.598 31.5448 100.454 29.398 100.407C28.5159 100.387 27.5777 100.382 26.6941 100.374C24.2699 100.345 21.8454 100.367 19.4223 100.441C16.0876 100.508 11.8558 100.605 8.55957 100.364C9.13224 99.1606 9.52147 98.6488 10.321 97.5667C14.2812 97.6024 18.2418 97.5848 22.2015 97.5146Z" fill="#FEFEFE"/>
<path d="M33.5579 47.0352C40.9217 46.8654 49.8001 46.8701 57.1704 46.9649C56.8267 47.9762 56.3832 48.7849 55.8946 49.7328C50.7785 49.7065 45.5569 49.9279 40.437 49.8849C38.5272 49.8689 34.7667 49.9857 33.0418 49.6296C32.3677 48.8776 32.9906 47.6869 33.5579 47.0352Z" fill="#FEFEFE"/>
<path d="M181.744 86.6064C190.438 86.4703 199.14 86.6274 207.839 86.4913C207.82 87.3841 207.921 88.2909 207.432 88.9752L206.821 89.0167C198.736 88.5243 188.615 89.6427 180.814 88.9254C180.875 88.5915 180.941 88.2584 181.012 87.9265C181.17 87.2083 181.207 86.9498 181.744 86.6064Z" fill="#FEFEFE"/>
<path d="M136.865 36.3887C137.877 36.3581 138.95 36.3976 139.967 36.4188C139.729 37.2665 139.218 38.3656 138.858 39.201C137.096 39.1457 134.478 39.3059 132.625 39.3256C127.775 39.3746 122.924 39.3976 118.073 39.3941C117.258 39.3773 115.94 39.1852 115.092 39.0859C115.596 38.1254 116.051 37.5631 116.714 36.7003C122.143 36.9739 131.136 36.4825 136.865 36.3887Z" fill="#FEFEFE"/>
<path d="M53.6718 51.3689C54.4753 51.4092 54.3538 51.2803 54.8886 51.7026C54.9045 52.8088 54.2373 53.3188 53.4596 54.1287L31.7794 54.2675C30.9451 54.2784 30.6943 54.3751 30.4629 53.5672C30.6104 52.7928 30.8717 52.4916 31.3135 51.8558C32.865 51.2161 50.5558 51.4392 53.6718 51.3689Z" fill="#FEFEFE"/>
<path d="M114.447 41.1693C118.809 41.2795 123.174 41.2982 127.536 41.2254C130.205 41.1892 135.049 41.0027 137.572 41.3175L137.723 41.6932C137.64 42.4893 137.258 43.1572 136.911 43.881C129.088 43.9299 121.41 44.0788 113.579 43.9926C113.813 43.0782 114.157 42.0777 114.447 41.1693Z" fill="#FEFEFE"/>
<path d="M87.6057 64.8073C90.0533 64.7528 92.4954 64.6412 94.9331 64.8252C96.1314 64.9156 96.6065 66.1841 96.1565 67.1C94.9592 67.5704 81.41 67.284 78.8827 67.3695C75.955 67.4503 72.8187 67.4222 69.8765 67.4417L69.6082 65.1377C75.6059 64.9601 81.6054 64.8501 87.6057 64.8073Z" fill="#FEFEFE"/>
<path d="M43.2238 65.3882L49.01 65.2957C48.6454 66.2212 48.138 67.2213 47.7021 68.1281C42.5799 67.7062 35.1575 68.1797 29.8101 68.2463C28.9056 68.273 24.5952 68.5118 24.1066 68.2046C23.926 67.6204 24.3656 66.1749 24.7906 65.9113C25.9648 65.1826 29.9574 65.4891 31.2406 65.4893C35.2353 65.5185 39.2303 65.4848 43.2238 65.3882Z" fill="#FEFEFE"/>
<path d="M103.879 64.5061L127.219 64.5459L125.965 67.2379C118.226 66.9077 109.816 67.5538 102.344 67.1543C102.872 65.9917 103.149 65.5621 103.879 64.5061Z" fill="#FEFEFE"/>
<path d="M112.59 46.0771C114.641 46.0275 135.372 45.9397 135.687 46.1439C135.959 47.1876 135.296 48.0002 134.327 48.2766C134.001 48.3292 133.674 48.3747 133.346 48.4131C131.265 48.6576 112.012 49.0575 111.259 48.4596C111.161 47.5629 112.019 46.6991 112.59 46.0771Z" fill="#FEFEFE"/>
<path d="M155.844 0.962791C158.252 0.911804 160.796 0.834654 163.214 0.869326C163.923 0.879508 164.432 1.28983 164.784 1.87894L164.634 2.30607C163.578 3.05018 144.237 3.04329 141.339 3.06782C139.596 3.09093 134.134 3.50925 133.122 2.58562C132.907 1.94009 132.905 2.19857 133.131 1.55843C133.966 0.711306 140.119 1.00829 141.67 1.0121C146.395 1.04944 151.119 1.03301 155.844 0.962791Z" fill="#FEFEFE"/>
<path d="M2.77636 112.089C10.4087 112.353 18.2468 112.095 25.878 112.09C26.7607 112.699 25.8696 114.02 25.4281 114.722C22.73 114.725 2.95128 114.998 1.95381 114.254C1.77328 113.493 2.24427 112.607 2.77636 112.089Z" fill="#FEFEFE"/>
<path d="M102.907 69.259C108.58 69.0842 119.899 68.8218 125.384 69.2604C124.883 70.2758 124.515 71.4447 123.333 71.7301C119.087 71.6578 114.84 71.6432 110.593 71.6865C107.593 71.7141 103.353 71.8443 100.429 71.5648C100.622 70.8351 100.71 70.351 101.136 69.713C101.624 69.2592 102.238 69.3015 102.907 69.259Z" fill="#FEFEFE"/>
<path d="M62.4109 32.8617L62.7073 33.0978C62.8264 33.8271 62.4765 34.7804 62.269 35.5198C59.5907 35.7598 56.0734 35.7112 53.3307 35.7258C48.7508 35.7596 44.1705 35.761 39.5906 35.73L39.2713 35.577C39.0722 34.7395 39.4342 34.0708 39.9201 33.4062C41.8065 32.7556 58.8639 33.157 62.4109 32.8617Z" fill="#FEFEFE"/>
<path d="M43.229 56.243C45.6874 56.2206 50.3749 56.0892 52.7056 56.3433L51.8435 58.7361C47.9937 58.5011 42.3095 58.7406 38.4195 58.8081C36.5332 58.8354 30.0776 59.0152 28.4731 58.774L28.3176 58.4092C28.3556 57.64 28.7775 57.0216 29.1515 56.3408C33.7812 56.3828 38.586 56.2794 43.229 56.243Z" fill="#FEFEFE"/>
<path d="M12.0802 93.0397C19.1527 93.8537 28.491 92.459 35.4181 93.3658C35.0336 94.0555 34.5553 94.7612 34.1236 95.428C33.2972 95.7747 13.3627 95.8964 11.0066 95.7426C11.36 94.5553 11.5151 94.1387 12.0802 93.0397Z" fill="#FEFEFE"/>
<path d="M40.3144 60.7206L50.8202 60.6663C50.6632 61.1213 49.8778 63.2366 49.3753 63.2119C45.2449 63.0094 41.113 63.1218 36.9848 63.2417C33.6764 63.4266 29.6305 63.4007 26.2698 63.4426C26.5052 62.5369 26.8555 61.6956 27.1945 60.8238L40.3144 60.7206Z" fill="#FEFEFE"/>
<path d="M8.69593 116.599C13.9272 116.529 19.159 116.494 24.3908 116.495L23.9133 118.899L15.8271 118.879C13.4472 118.875 1.59768 118.911 0.0346177 118.542C-0.0852748 118.02 0.132443 117.484 0.288589 116.964C1.00475 116.337 7.34719 116.609 8.69593 116.599Z" fill="#FEFEFE"/>
<path d="M208.456 119.242C213.757 119.188 253.12 118.443 254.323 118.958L254.408 119.31C253.751 120.004 252.295 120.008 251.338 120.008C241.596 120.007 231.796 120.044 222.06 119.958C220.036 119.382 207.152 119.745 204.175 119.733L204.116 119.603C205.048 119.215 207.146 119.458 208.351 119.26L208.456 119.242Z" fill="#FEFEFE"/>
<path d="M66.8026 70.6607C67.9175 70.5863 69.08 70.2961 69.7475 71.3974L69.6111 71.7013C68.6 72.2977 52.3611 72.1825 49.8544 72.2327C48.8195 72.2559 47.8948 72.6314 47.3435 71.6592L47.6043 71.2578C48.7497 70.5856 64.1946 70.7325 66.8026 70.6607Z" fill="#FEFEFE"/>
<path d="M224.87 1.09186C221.463 1.34167 198.531 2.37284 196.437 1.41765L196.416 1.27698C197.041 0.932751 198.296 0.787326 199.008 0.771479C207.639 0.579196 216.308 0.784211 224.938 0.39505L224.87 1.09186Z" fill="#FEFEFE"/>
<path d="M222.06 119.958C216.152 120.29 207.531 119.952 201.423 119.967C194.347 120.038 187.273 120.017 180.199 119.903C178.059 119.862 172.925 119.832 170.977 119.418C172.664 119.234 175.481 119.282 177.264 119.275L187.907 119.25L200.915 119.203C203.256 119.194 206.177 119.096 208.456 119.242L208.351 119.26C207.146 119.458 205.048 119.215 204.116 119.603L204.174 119.733C207.152 119.745 220.036 119.382 222.06 119.958Z" fill="#AEADB0"/>
<path d="M238.414 0.106616C241.874 -0.112883 248.746 -0.0915271 251.867 1.13767C249.594 1.29584 240.333 1.23483 238.198 0.910909C237.105 0.913965 236.013 0.893913 234.921 0.850753C231.629 0.844912 227.943 1.13722 224.87 1.09184L224.938 0.395031C225.499 0.288854 227.268 0.26779 227.926 0.24587C229.362 -0.0717475 236.463 0.103638 238.414 0.106616Z" fill="#242525"/>
<path d="M227.926 0.245891C230.152 0.27153 233.962 0.162315 236.052 0.315274L236.188 0.65339L236.568 0.491476C236.038 0.697893 235.478 0.767004 234.921 0.850774C231.629 0.844933 227.943 1.13724 224.87 1.09186L224.938 0.395052C225.499 0.288875 227.268 0.267811 227.926 0.245891Z" fill="#AEADB0"/>
<path d="M227.926 0.245882C229.362 -0.0717348 236.463 0.10365 238.414 0.106629C240.637 0.22217 242.721 0.350054 244.924 0.684861C242.54 0.854737 240.45 0.791837 238.198 0.910921C237.105 0.913978 236.013 0.893925 234.921 0.850765C235.478 0.766995 236.038 0.697885 236.568 0.491468L236.188 0.653381L236.052 0.315265C233.962 0.162307 230.152 0.271521 227.926 0.245882Z" fill="#575C5B"/>
</svg>
