<svg width="219" height="136" viewBox="0 0 219 136" fill="none" xmlns="http://www.w3.org/2000/svg">
<g clip-path="url(#clip0_25_1001)">
<path d="M118.8 55.1327C107.667 59.266 95.2667 59.7327 83.8001 56.9327C74.3334 54.7327 65.6001 50.266 56.6001 47.066C42.2667 41.9327 35.0667 47.066 25.7334 57.7993C29.4667 48.666 37.4667 38.1993 53.4667 39.5327C64.0667 40.3993 73.7334 43.466 81.4667 44.5327C117.8 49.5327 143.8 28.9993 143.267 7.39932C145.2 18.1327 146.267 43.466 118.8 55.1327Z" fill="#F6F6F6"/>
<path d="M112.2 83.266C95.5333 84.3327 80.9999 75.9993 73.2666 62.5993C99.4666 85.7993 151.067 67.5327 148.667 29.266C156.733 54.3327 138.4 81.5993 112.2 83.266Z" fill="#F6F6F6"/>
<path d="M13.4 109.399C4.66667 109.399 0 109.399 0 109.399V135.466C0 135.466 4.8 135.466 13.4 135.466C22 135.466 26.8667 129.199 26.8667 122.466C26.8667 115.666 22.1333 109.399 13.4 109.399ZM13.4 129.599C8.8 129.599 6.2 129.599 6.2 129.599V115.133C6.2 115.133 8.73333 115.133 13.4 115.133C18.0667 115.133 20.6667 118.599 20.6667 122.399C20.6 126.133 18 129.599 13.4 129.599Z" fill="#F6F6F6"/>
<path d="M204.8 109.399C196.067 109.399 191.4 109.399 191.4 109.399V135.466C191.4 135.466 196.2 135.466 204.8 135.466C213.4 135.466 218.267 129.199 218.267 122.466C218.267 115.666 213.533 109.399 204.8 109.399ZM204.8 129.599C200.2 129.599 197.6 129.599 197.6 129.599V115.133C197.6 115.133 200.133 115.133 204.8 115.133C209.467 115.133 212.067 118.599 212.067 122.399C212.067 126.133 209.4 129.599 204.8 129.599Z" fill="#F6F6F6"/>
<path d="M29.5334 109.399C29.5334 109.399 39.1334 109.399 44.8001 109.399C50.4668 109.399 54.8001 113.399 54.8001 119.133C54.8001 124.866 50.4001 128.933 44.7334 128.933C39.0668 128.933 35.7334 128.933 35.7334 128.933V135.466H29.5334V109.399ZM35.7334 114.999V123.066H44.4668C49.8668 123.133 49.8668 114.933 44.4668 114.999H35.7334Z" fill="#F6F6F6"/>
<path d="M98.8666 109.399L93.4666 125.333L87.6666 109.399C87.5999 109.399 79.8666 109.399 79.7999 109.399L73.9999 125.333L68.5999 109.399H62.3333L70.5333 135.466H76.7332L83.7999 115.999L90.8666 135.466H97.0666L105.267 109.399H98.8666Z" fill="#F6F6F6"/>
<path d="M136.067 109.399H152.067C154.867 109.399 157.4 110.199 159.267 112.066C163.2 115.866 162.4 123.399 157.6 126.066L162.4 135.466H155.6L151.933 127.666H142.2V135.466H136V109.399H136.067ZM142.267 115.066V121.999H151.667C154.067 122.066 155.467 120.666 155.533 118.533C155.533 116.199 154.067 115.066 151.667 115.133L142.267 115.066Z" fill="#F6F6F6"/>
<path d="M165.333 109.399H171.533V129.466H188.8V135.399H165.333V109.399Z" fill="#F6F6F6"/>
<path d="M119.067 109.066C110.667 109.066 104.867 114.333 104.867 122.399C104.867 130.466 110.667 135.733 119.067 135.733C127.467 135.733 133.267 130.466 133.267 122.399C133.2 114.333 127.467 109.066 119.067 109.066ZM119.067 129.599C114.333 129.599 111.067 126.733 111.067 122.399C111.067 118.066 114.333 115.199 119.067 115.199C123.8 115.199 127.067 118.066 127.067 122.399C127.067 126.733 123.733 129.599 119.067 129.599Z" fill="#F6F6F6"/>
<path d="M81.5334 44.5327C80.5334 20.1993 102.333 0.132653 127.067 4.13265C99.4001 -9.06735 67.8001 10.9327 67.7334 41.7327C72.7334 42.866 77.4001 43.9993 81.5334 44.5327Z" fill="#F6F6F6"/>
<path opacity="0.5" d="M81.5334 44.5327C80.5334 20.1993 102.333 0.132653 127.067 4.13265C99.4001 -9.06735 67.8001 10.9327 67.7334 41.7327C72.7334 42.866 77.4001 43.9993 81.5334 44.5327Z" fill="#F6F6F6"/>
</g>
<defs>
<clipPath id="clip0_25_1001">
<rect width="218.267" height="135.733" fill="white"/>
</clipPath>
</defs>
</svg>
