<svg width="45" height="43" viewBox="0 0 45 43" fill="none" xmlns="http://www.w3.org/2000/svg">
<path fill-rule="evenodd" clip-rule="evenodd" d="M21.5821 10.5612H24.9561L23.6541 13.8248H20.2857C20.2857 13.8248 17.1781 21.8156 16.6017 23.1004C16.0261 24.3848 17.3905 25.2048 18.4869 25.2732C23.9641 25.8728 29.1773 21.7312 30.1289 16.0192C30.9693 10.984 28.2141 6.40922 23.7945 4.98682L21.5821 10.5612Z" fill="#F6F6F6"/>
<path fill-rule="evenodd" clip-rule="evenodd" d="M21.5821 10.5612H24.9561L23.6541 13.8248H20.2857C20.2857 13.8248 17.1781 21.8156 16.6017 23.1004C16.0261 24.3848 17.3905 25.2048 18.4869 25.2732C23.9641 25.8728 29.1773 21.7312 30.1289 16.0192C30.9693 10.984 28.2141 6.40922 23.7945 4.98682L21.5821 10.5612Z" fill="#F6F6F6"/>
<path fill-rule="evenodd" clip-rule="evenodd" d="M8.41211 13.7132C8.41211 13.9048 8.41971 14.0952 8.42811 14.2852C8.72611 7.6072 14.2333 2.2864 20.9841 2.2864C27.9261 2.2864 33.5553 7.9136 33.5553 14.856C33.5553 21.6068 28.2329 27.1128 21.5545 27.412C21.7457 27.4204 21.9353 27.426 22.1265 27.426C29.7013 27.426 35.8405 21.2876 35.8405 13.7132C35.8405 6.1396 29.7013 0 22.1265 0C14.5525 0 8.41211 6.1396 8.41211 13.7132Z" fill="#F6F6F6"/>
<path fill-rule="evenodd" clip-rule="evenodd" d="M8.41211 13.7132C8.41211 13.9048 8.41971 14.0952 8.42811 14.2852C8.72611 7.6072 14.2333 2.2864 20.9841 2.2864C27.9261 2.2864 33.5553 7.9136 33.5553 14.856C33.5553 21.6068 28.2329 27.1128 21.5545 27.412C21.7457 27.4204 21.9353 27.426 22.1265 27.426C29.7013 27.426 35.8405 21.2876 35.8405 13.7132C35.8405 6.1396 29.7013 0 22.1265 0C14.5525 0 8.41211 6.1396 8.41211 13.7132Z" fill="#F6F6F6"/>
<path fill-rule="evenodd" clip-rule="evenodd" d="M0.318072 38.2316V41.7664H1.46207C1.98647 41.7664 2.42286 41.6048 2.77326 41.2828C3.12126 40.9604 3.29687 40.5332 3.29687 39.9996C3.29687 39.4788 3.12407 39.0544 2.77967 38.7248C2.43527 38.3956 1.98887 38.2316 1.44207 38.2316H0.318072ZM0.00366211 37.9696H1.42407C2.14286 37.9696 2.69087 38.158 3.06806 38.5364C3.44726 38.9132 3.63607 39.402 3.63607 39.9996C3.63607 40.5868 3.44886 41.072 3.07406 41.4544C2.70046 41.8376 2.16807 42.028 1.47927 42.028H0.00366211V37.9696Z" fill="#F6F6F6"/>
<path fill-rule="evenodd" clip-rule="evenodd" d="M8.25447 37.9698H8.56367V40.1538C8.56367 40.7522 8.40767 41.2134 8.09607 41.5382C7.78447 41.8638 7.38087 42.0266 6.88647 42.0266C6.39247 42.0266 5.99047 41.8658 5.67887 41.5438C5.36727 41.2238 5.21167 40.7842 5.21167 40.2258V37.9698H5.52407V40.2138C5.52407 40.6918 5.65047 41.0658 5.90327 41.3358C6.15767 41.6046 6.48447 41.7398 6.88647 41.7398C7.29127 41.7398 7.62087 41.6034 7.87367 41.331C8.12727 41.0586 8.25447 40.6714 8.25447 40.1706V37.9698Z" fill="#F6F6F6"/>
<path fill-rule="evenodd" clip-rule="evenodd" d="M10.668 40.1132V41.7664H11.5084C11.8548 41.7664 12.118 41.6912 12.298 41.5432C12.478 41.3936 12.568 41.1944 12.568 40.9444C12.568 40.39 12.1688 40.1132 11.3716 40.1132H10.668ZM10.668 38.2316V39.8492H11.1044C11.842 39.8492 12.212 39.58 12.212 39.0412C12.212 38.5012 11.8384 38.2316 11.092 38.2316H10.668ZM10.3552 37.97H11.2C11.6448 37.97 11.98 38.0628 12.2076 38.2488C12.4372 38.4344 12.5512 38.6908 12.5512 39.018C12.5512 39.4096 12.356 39.7112 11.9672 39.922C12.5928 40.0564 12.906 40.4004 12.906 40.9504C12.906 41.2796 12.7828 41.5412 12.538 41.7356C12.2928 41.9308 11.9616 42.0284 11.5428 42.0284H10.3552V37.97Z" fill="#F6F6F6"/>
<path fill-rule="evenodd" clip-rule="evenodd" d="M16.9147 40.3769L16.0459 38.4793L15.1811 40.3769H16.9147ZM16.1347 37.9709L17.9963 42.0285H17.6707L17.0327 40.6357H15.0639L14.4287 42.0285H14.1011L15.9631 37.9709H16.1347Z" fill="#F6F6F6"/>
<path fill-rule="evenodd" clip-rule="evenodd" d="M19.3733 42.0286H19.6877V37.9698H19.3733V42.0286Z" fill="#F6F6F6"/>
<path fill-rule="evenodd" clip-rule="evenodd" d="M26.1353 37.9698V38.231H24.6141V42.0282H24.2957V38.231H22.7749V37.9698H26.1353Z" fill="#F6F6F6"/>
<path fill-rule="evenodd" clip-rule="evenodd" d="M27.8383 38.2316V39.8192H28.5131C28.8547 39.8192 29.1175 39.7508 29.2991 39.6124C29.4799 39.4732 29.5703 39.278 29.5703 39.0236C29.5703 38.7744 29.4783 38.5792 29.2951 38.4404C29.1103 38.3012 28.8463 38.2316 28.5003 38.2316H27.8383ZM27.5259 37.9696H28.5647C29.0007 37.9696 29.3343 38.0628 29.5647 38.2528C29.7967 38.4416 29.9107 38.6968 29.9107 39.0184C29.9107 39.4872 29.6519 39.8164 29.1375 40.006C29.2711 40.07 29.4503 40.276 29.6779 40.6252L30.5967 42.028H30.2247L29.5183 40.916C29.2803 40.5436 29.0975 40.3124 28.9659 40.2192C28.8339 40.1272 28.6415 40.0812 28.3871 40.0812H27.8383V42.028H27.5259V37.9696Z" fill="#F6F6F6"/>
<path fill-rule="evenodd" clip-rule="evenodd" d="M34.2165 40.3636L33.3413 38.452L32.4693 40.3636H34.2165ZM33.4433 37.9712L35.3069 42.0284H34.9789L34.3421 40.6356H32.3717L31.7377 42.0284H31.4109L33.2729 37.9712H33.4433Z" fill="#F6F6F6"/>
<path fill-rule="evenodd" clip-rule="evenodd" d="M37.0032 38.2316V41.7664H38.1468C38.672 41.7664 39.1084 41.6048 39.4584 41.2828C39.8076 40.9604 39.9816 40.5332 39.9816 39.9996C39.9816 39.4788 39.81 39.0544 39.4644 38.7248C39.122 38.3956 38.674 38.2316 38.1268 38.2316H37.0032ZM36.6904 37.9696H38.1096C38.8276 37.9696 39.376 38.158 39.7548 38.5364C40.1316 38.9132 40.322 39.402 40.322 39.9996C40.322 40.5868 40.1348 41.072 39.7612 41.4544C39.3852 41.8376 38.8528 42.028 38.1652 42.028H36.6904V37.9696Z" fill="#F6F6F6"/>
<path fill-rule="evenodd" clip-rule="evenodd" d="M44.2059 37.9698V38.231H42.3059V39.8554H44.1575V40.1198H42.3059V41.767H44.2535V42.0282H41.9939V37.9698H44.2059Z" fill="#F6F6F6"/>
<path fill-rule="evenodd" clip-rule="evenodd" d="M1.48224 32.269H1.86344V31.857H1.48224V32.269ZM0.654242 32.269H1.03544V31.857H0.654242V32.269ZM0.986642 34.8666C1.86984 34.8666 1.80824 33.893 1.79744 33.2262C1.40304 33.2374 0.393842 33.0918 0.338242 34.1006C0.327442 34.319 0.459442 34.8666 0.986642 34.8666ZM0.932242 35.1578C0.453042 35.1578 -0.0121575 34.7138 0.000242481 34.1054C0.0182425 33.183 0.751442 32.8482 1.79744 32.9214V32.6598L2.12384 32.5574L2.12904 34.4282C2.14824 34.8954 2.40744 35.1578 2.85064 35.1578H3.18264V35.4686H2.76464C2.08144 35.4686 1.88184 34.9994 1.82744 34.6342C1.82744 34.6342 1.58544 35.1578 0.932242 35.1578Z" fill="#F6F6F6"/>
<path fill-rule="evenodd" clip-rule="evenodd" d="M6.48059 36.2962H6.86299V35.8838H6.48059V36.2962ZM5.78019 36.2962H6.16179V35.8838H5.78019V36.2962ZM3.15259 35.4686V35.1578H6.41259C6.85979 35.1578 7.13179 34.8906 7.13179 34.4102V33.2278H7.45819V34.3614C7.45819 34.6782 7.38619 35.4686 6.49739 35.4686H3.15259Z" fill="#F6F6F6"/>
<path fill-rule="evenodd" clip-rule="evenodd" d="M9.25566 33.2277H9.58246V35.2445C9.58246 35.8097 9.09726 36.2893 8.47526 36.2841C8.22686 36.2841 7.94287 36.1629 7.87647 36.1201C7.87647 36.1201 7.85847 35.9677 7.83887 35.8157C8.08806 35.9557 8.34806 35.9733 8.43846 35.9733C8.86206 35.9733 9.20086 35.7121 9.25566 35.2445V33.2277Z" fill="#F6F6F6"/>
<path fill-rule="evenodd" clip-rule="evenodd" d="M11.4154 35.4679C10.5258 35.4679 10.4534 34.6775 10.4534 34.3619V31.8639H10.7794V34.4099C10.7794 34.8899 11.0526 35.1579 11.4946 35.1579H11.7838V35.4679H11.4154Z" fill="#F6F6F6"/>
<path fill-rule="evenodd" clip-rule="evenodd" d="M15.6094 36.2898H15.9898V35.877H15.6094V36.2898ZM11.7346 35.4686V35.1578H17.1582L17.1642 34.8118C17.1762 34.0034 16.8134 33.0678 15.8086 33.0678C15.289 33.0678 14.9078 33.3042 14.8414 33.7842H14.5334C14.5874 33.0746 15.1686 32.7578 15.8086 32.7578C16.995 32.7578 17.4974 33.7306 17.4974 34.8118V35.1578H18.3922V35.4686H11.7346Z" fill="#F6F6F6"/>
<path fill-rule="evenodd" clip-rule="evenodd" d="M21.3729 32.7478H21.7529V32.3358H21.3729V32.7478ZM20.5441 32.7478H20.9245V32.3358H20.5441V32.7478ZM18.3381 35.4686V35.1578H20.6893C21.1361 35.1578 21.4093 34.8906 21.4093 34.4102V33.2278H21.7357V34.2582C21.7485 34.7638 22.0017 35.1578 22.5585 35.1578H22.8061V35.4686H22.6121C22.1469 35.4686 21.7781 35.1634 21.6569 34.8666C21.5541 35.1698 21.3185 35.4686 20.7733 35.4686H18.3381Z" fill="#F6F6F6"/>
<path fill-rule="evenodd" clip-rule="evenodd" d="M22.7766 35.4679V35.1579H24.5646C25.0106 35.1579 25.2838 34.8899 25.2838 34.4099V31.8639H25.6098V34.3619C25.6098 34.6775 25.5378 35.4679 24.6486 35.4679H22.7766Z" fill="#F6F6F6"/>
<path fill-rule="evenodd" clip-rule="evenodd" d="M26.4817 35.4686H26.8073V31.8634H26.4817V35.4686Z" fill="#F6F6F6"/>
<path fill-rule="evenodd" clip-rule="evenodd" d="M31.3871 36.3138H31.7679V35.9078H31.3871V36.3138ZM30.6291 36.3138H31.0039V35.9078H30.6291V36.3138ZM36.0135 35.4686C35.1179 35.4686 35.0463 34.6782 35.0463 34.3614V32.5826H33.1719C32.7167 32.5826 32.5603 32.9642 33.0679 33.2566C33.6603 33.6022 34.1923 33.6022 34.2183 34.2818C34.2539 35.1518 33.4063 35.4926 32.7839 35.4926H30.0327C28.9931 35.4926 28.5439 34.757 28.5199 34.211C28.5019 33.931 28.5439 33.5542 28.7323 33.3042C28.8047 33.3718 28.9067 33.4566 28.9559 33.4982C28.8287 33.7178 28.8095 34.0222 28.8287 34.1978C28.8647 34.5926 29.1979 35.1774 30.0571 35.1774H32.7531C33.2867 35.1774 33.8983 34.9518 33.8983 34.2818C33.8983 33.7786 33.4791 33.8694 32.9531 33.553C32.0275 32.995 32.5303 32.2834 33.1103 32.2834H35.3719V34.4102C35.3719 34.8906 35.6447 35.1578 36.0923 35.1578H39.8723V35.4686H36.0135Z" fill="#F6F6F6"/>
<path fill-rule="evenodd" clip-rule="evenodd" d="M40.6814 36.2962H41.063V35.8838H40.6814V36.2962ZM39.8474 35.4686V35.1578H40.367C40.8154 35.1578 41.0866 34.8906 41.0866 34.4102V33.2278H41.4146V34.3614C41.4146 34.6782 41.3406 35.4686 40.453 35.4686H39.8474Z" fill="#F6F6F6"/>
<path fill-rule="evenodd" clip-rule="evenodd" d="M43.8997 33.6452C43.8649 33.1952 43.6521 33.0552 43.2709 33.0552C42.9253 33.0552 42.6413 33.1592 42.5997 33.5288H42.2489C42.3337 32.9644 42.7497 32.752 43.2709 32.752C43.8761 32.752 44.2381 33.0304 44.2381 33.6572V35.4688H42.1753V35.1576H43.8997V33.6452Z" fill="#F6F6F6"/>
</svg>
