<svg width="742" height="148" viewBox="0 0 742 148" fill="none" xmlns="http://www.w3.org/2000/svg">
<path d="M357.193 0.101863C357.725 -0.0356335 357.969 0.14483 358.452 0.379932C359.539 2.48369 359.018 23.4949 359 27.7173C359.547 27.2644 360.106 26.8234 360.672 26.3953C364.825 23.2855 371.625 22.1458 376.667 23.0025C402.519 27.3938 406.616 63.9399 386.924 78.4006C378.028 84.9084 366.01 83.7477 357.271 77.6366C356.511 79.0588 354.809 81.3194 353.826 82.7049L348.749 82.8392C348.181 74.2175 348.584 60.7171 348.583 51.8129C348.513 34.5963 348.553 17.3792 348.704 0.162843L357.193 0.101863ZM359.063 69.4296C362.711 72.5945 366.538 74.0701 371.46 73.7199C373.594 73.577 375.704 73.2092 377.758 72.6227C382.868 69.9553 384.888 68.1345 386.703 62.479C391.198 48.4791 385.11 30.0766 367.633 31.5397C365.444 32.2167 360.664 33.6397 359.554 35.7536C358.377 37.995 358.91 64.887 359.063 69.4296Z" fill="#FDFCFC"/>
<path d="M472.298 22.9335C477.501 21.9775 485.396 23.371 489.887 26.3596C503.544 35.4507 505.418 58.601 496.919 71.7352C492.575 78.4497 487.203 81.0274 479.589 82.602C472.991 83.1574 465.82 82.2789 460.373 78.285C443.597 65.9907 445.502 31.0452 466.645 24.1418C468.5 23.5358 470.375 23.2262 472.298 22.9335ZM479.39 73.6295C490.914 70.91 492.196 52.6246 489.857 43.3759C487.428 33.7575 481.52 30.468 472.167 31.542C467.796 33.1241 464.632 35.5907 462.802 39.9858C457.363 53.0606 459.365 77.9492 479.39 73.6295Z" fill="#FDFCFC"/>
<path d="M162.016 22.9309C192.766 17.8361 201.042 63.1668 179.94 78.5124C176.255 81.1926 173.051 81.8478 168.632 82.6535C162.005 83.0775 155.196 82.1833 149.686 78.061C136.71 68.3849 135.883 44.7666 144.926 32.3049C149.172 26.4531 155.097 23.9077 162.016 22.9309ZM167.905 73.8547C180.083 71.739 181.595 54.6604 179.757 44.9865C177.742 34.379 172.155 30.5896 161.794 31.5262C152.807 34.8162 150.514 42.1627 150.137 50.9269C149.793 58.9335 150.488 68.9057 158.69 72.9878C160.898 74.0663 165.532 74.5864 167.905 73.8547Z" fill="#FDFCFC"/>
<path d="M588.677 22.9342C590.413 22.3976 595.837 22.7391 597.674 23.069C613.239 25.8613 619.822 39.1354 617.34 53.7342C604.981 54.2697 588.104 53.7361 575.399 53.8374C575.8 58.0115 575.913 61.3802 577.784 65.2844C581.986 74.0558 595.17 75.9573 603.219 71.7491C605.547 70.7254 606.177 70.2991 608.212 68.7665C609.685 71.2774 611.215 73.8096 612.489 76.4207C608.216 80.1032 603.301 81.3089 597.907 82.3153C558.515 89.6645 551.542 28.4701 588.677 22.9342ZM575.722 46.0872L592.599 46.1427C597.389 46.1344 602.731 46.2414 607.481 46.0819C606.225 36.172 600.984 31.1363 590.822 31.5803C581.885 32.4636 577.311 37.3743 575.722 46.0872Z" fill="#FDFCFC"/>
<path d="M308.671 22.9369C315.419 21.1704 325.681 24.51 330.593 29.3857C335.962 34.7152 337.964 40.9671 338.15 48.4761C338.204 50.6822 337.952 53.7046 335.158 53.759C330.608 53.8847 326.058 53.804 321.51 53.7808C312.85 53.7113 304.191 53.7354 295.532 53.8528C295.881 70.8503 309.193 78.5541 323.9 71.5498C324.714 71.1764 327.301 69.4641 328.191 68.9042C331.514 74.0224 334.554 77.2485 327.165 79.8968C316.745 83.631 304.776 84.4933 295.513 77.4823C289.715 73.0403 285.919 66.4729 284.961 59.2269C282.63 42.1401 290.322 25.4222 308.671 22.9369ZM295.755 46.1097L313.362 46.1468C317.774 46.1378 323.413 46.2849 327.725 46.0583C326.095 36.6482 321.154 30.7547 310.887 31.5656C302.326 32.4554 297.033 37.6025 295.755 46.1097Z" fill="#FDFCFC"/>
<path d="M519.513 0.100224C520.739 -0.0069512 521.312 -0.118291 522.49 0.283277C523.213 1.17779 523.104 3.6806 523.063 4.87416C522.557 19.9888 523.412 35.3641 522.767 50.4485C530.141 42.5893 537.38 31.7109 544.952 23.8975C548.292 23.7347 553.188 23.8964 556.637 23.9099C552.663 29.7374 543.453 40.0421 538.519 45.6883C540.285 49.0029 543.445 53.7305 545.507 57.0017L558.095 76.9273L560.865 81.701C557.278 81.7378 553.69 81.7175 550.103 81.6402C548.221 79.559 545.001 74.1125 543.378 71.5228L531.723 52.7642C529.211 55.8278 525.68 58.4524 523.101 61.9045C522.812 65.8068 523.682 79.6416 522.163 81.4898C520.023 81.9551 514.936 81.7431 512.522 81.7115C511.821 61.8422 512.758 41.5003 512.394 21.585C512.263 14.629 512.271 7.08025 512.672 0.161766C514.85 0.217942 517.313 0.132083 519.513 0.100224Z" fill="#FDFCFC"/>
<path d="M51.8704 22.9113C63.0308 20.0774 73.0065 28.806 73.784 39.9625C74.6788 52.7991 73.7953 65.6315 74.3437 78.4997C74.3782 79.3076 74.2597 80.1433 74.0794 80.9291C72.6324 82.1322 66.0751 81.7382 63.8697 81.7153C63.5466 78.7004 63.9773 75.3032 63.6482 72.5814C62.0846 59.6656 70.7097 23.6491 45.7626 32.8854C42.337 34.776 41.3653 35.5066 38.878 38.4577C38.6606 52.7511 39.173 67.4501 38.7689 81.6657C35.9742 81.8414 31.2621 81.7142 28.329 81.7232C27.8661 69.6825 28.3388 57.4118 28.1787 45.343C28.0842 38.2483 28.0396 30.9952 28.4261 23.923C36.6385 23.4731 35.3632 24.0694 38.5027 31.1536C38.7108 30.8207 38.9264 30.4924 39.1487 30.1689C42.6155 25.1408 46.3222 23.9283 51.8704 22.9113Z" fill="#FDFCFC"/>
<path d="M683.149 22.9207C688.739 21.6486 697.71 24.3527 702.725 26.7698C701.976 29.8781 700.937 33.0855 700 36.1559C694.264 32.5638 685.046 28.2768 680.087 34.6537C673.069 43.6806 694.294 48.5737 698.793 52.8723C702.422 56.3431 705.304 58.9928 705.563 64.1042C706.23 77.2422 697.886 81.5078 686.763 82.7683C680.443 82.9462 673.054 81.5224 667.723 77.9788C668.856 74.7793 669.845 71.5862 671.183 68.4595C676.315 71.0556 687.858 77.7319 692.844 70.9047C700.6 60.2803 681.526 55.5062 675.618 51.0658C672.109 48.428 668.882 45.1681 668.211 40.3986C666.902 29.4083 673.478 24.504 683.149 22.9207Z" fill="#FDFCFC"/>
<path d="M255.892 22.9474C255.99 22.9305 256.088 22.9143 256.187 22.899C263.274 21.7893 271.473 24.4578 277.202 28.6626C275.556 31.2121 274.17 33.2671 272.343 35.686C257.824 27.1398 242.989 31.6598 240.901 49.8413C240.26 55.9787 241.048 62.73 244.986 67.7007C251.275 75.639 264.912 75.3407 272.3 69.3001L272.968 69.0333C274.739 69.8319 276.517 74.9621 277.742 77.3022C259.491 88.4899 233.101 82.9668 230.181 59.1909C227.794 39.7651 235.906 25.4616 255.892 22.9474Z" fill="#FDFCFC"/>
<path d="M82.5811 23.7009L93.1814 23.538C95.0438 27.3976 98.297 36.8317 99.9382 41.244C102.518 48.1807 106.417 57.2846 108.449 64.2048C109.238 61.2804 112.805 52.5319 114.043 49.3913C117.309 41.1097 120.468 31.8407 124.021 23.7898C126.804 23.484 131.922 23.6176 134.878 23.6101C133.482 27.6723 130.883 33.3703 129.139 37.3814C127.769 40.0375 125.738 45.2199 124.459 48.2014L115.041 70.1478C114.002 72.563 110.416 82.2016 108.457 82.7172C107.672 82.5191 106.932 82.3337 106.52 81.507C102 72.396 97.9645 61.6815 93.9653 52.4366C92.4549 48.9451 82.2831 25.8114 82.5811 23.7009Z" fill="#FDFCFC"/>
<path d="M0.601551 2.54937C4.01755 2.6007 7.77627 2.50719 11.2159 2.48497C11.691 6.70599 11.3555 80.5448 11.0358 81.7258L0.283135 81.6995C-0.179722 65.0045 0.283771 47.6933 0.0723794 30.9292C0.0190349 26.6977 -0.216499 5.53217 0.601551 2.54937Z" fill="#FDFCFC"/>
<path d="M653.486 22.9061C656.852 22.1199 660.875 23.0693 664.147 23.815C662.809 27.5278 661.793 30.0826 660.144 33.6911C657.553 32.3357 655.206 31.4711 652.215 31.5994C631.672 32.4794 643.285 77.2951 639.334 81.2781C638.435 82.1851 634.221 81.7269 632.943 81.6992C631.406 81.7352 630.581 81.9052 629.475 81.0822C628.999 77.9473 629.239 66.2643 629.235 62.4321C629.183 49.5681 629.213 36.7041 629.325 23.8409C632.305 23.9354 636.928 23.0825 639.031 24.5985C640.661 26.7897 639.784 29.782 639.428 32.6471C643.855 26.4925 645.838 24.2893 653.486 22.9061Z" fill="#FDFCFC"/>
<path d="M435.2 22.9166C439.137 22.2925 442.121 22.986 445.997 23.5902C444.921 26.7957 443.174 30.4624 441.772 33.5951C435.242 30.405 429.487 30.6256 425.056 37.0595C421.712 41.9101 421.326 47.3957 421.308 53.1057C421.274 62.6388 421.3 72.1716 421.506 81.7037L416.078 81.6973L411.118 81.719C410.8 72.5885 410.939 63.091 410.92 53.9245C410.897 43.9756 410.774 33.7752 411.133 23.8548C414.324 23.9381 418.166 23.8176 421.405 23.7955L421.184 32.6205C425.585 26.5833 427.605 24.2829 435.2 22.9166Z" fill="#FDFCFC"/>
<path d="M199.309 23.8893L217.523 23.8454C218.014 28.5343 217.855 79.8956 217.325 81.737L207.23 81.7051C206.325 66.823 207.135 48.0509 206.874 32.5852L199.226 32.5158C199.163 29.7051 199.262 26.7146 199.309 23.8893Z" fill="#FDFCFC"/>
<path d="M724.359 62.9045C731.512 60.8969 738.931 65.1024 740.888 72.2752C742.844 79.4479 738.593 86.8444 731.414 88.7548C724.303 90.6473 717.001 86.441 715.062 79.3365C713.124 72.2324 717.278 64.8934 724.359 62.9045Z" fill="#FDFCFC"/>
<path d="M315.168 111.198C315.95 111.249 316.63 111.357 317.399 111.476C317.567 111.665 317.769 111.892 318.005 112.158C318.193 119.657 318.431 132.365 318.045 139.441C317.168 139.971 309.016 139.998 307.451 140.003C307 140.005 305.1 139.179 304.56 138.927C303.287 138.015 302.263 136.798 301.583 135.387C297.75 127.363 303.788 116.31 314.222 120.194C315.018 118.073 313.489 113.487 315.168 111.198ZM310.16 137.062C311.444 136.957 312.778 136.995 313.759 136.184C314.297 134.992 314.59 132.632 314.607 131.297C314.677 125.968 315.291 121.929 308.69 122.646C302.681 125.599 302.429 136.281 310.16 137.062Z" fill="#FDFCFC"/>
<path d="M652.631 119.336C665.485 118.604 666.674 137.602 655.109 140.259C640.496 140.439 641.017 121.084 652.631 119.336ZM655.135 137.083C660.912 133.787 660.567 121.653 652.237 122.254C646.348 125.812 645.876 137.715 655.135 137.083Z" fill="#FDFCFC"/>
<path d="M532.679 119.358C546.317 118.333 547.509 136.574 536.296 140.257C521.661 140.545 521.882 122.116 532.679 119.358ZM535.205 137.158C541.803 135.19 541.548 121.998 533.428 122.208C527.277 124.679 526.602 137.199 535.205 137.158Z" fill="#FDFCFC"/>
<path d="M14.7441 111.896C16.2901 112.392 25.9187 138.416 25.3309 139.819C24.1216 140.184 23.8858 140.193 22.6412 139.974C20.9037 138.508 20.4205 136.255 19.8746 134.138L15.3375 134.151C13.1819 134.227 11.708 134.098 9.5737 133.915C8.83722 136.488 8.74594 138.937 6.26078 140.106C4.87885 140.019 4.58967 140.261 3.82054 139.438C3.58302 137.792 13.0798 114.484 14.7441 111.896ZM10.8208 131.26L14.0255 131.162L18.7226 131.109C17.3656 127.227 16.2342 123.142 14.9278 119.457C13.3479 123.315 11.977 127.255 10.8208 131.26Z" fill="#FDFCFC"/>
<path d="M279.772 111.909C281.588 112.449 291.099 138.19 290.694 139.739C290.456 139.82 290.215 139.892 289.972 139.956C286.116 140.965 285.825 136.879 285.097 134.025C284.025 134.099 282.603 134.084 281.498 134.108C279.319 134.196 277.115 134.119 274.933 134.072C274.322 135.843 273.451 138.933 272.031 140.033C270.841 140.243 270.61 140.203 269.466 139.911L269.031 139.135C269.228 136.664 278.215 115.462 279.772 111.909ZM275.985 131.342C277.534 131.275 279.21 131.167 280.748 131.142L283.825 131.113C283.246 129.261 280.829 120.827 279.936 119.836C278.583 123.64 277.17 127.486 275.985 131.342Z" fill="#FDFCFC"/>
<path d="M70.6457 119.333C82.524 118.575 80.0011 127.673 80.4846 135.837C80.5236 136.497 81.4777 138.416 81.748 139.452C81.0128 140.337 81.3832 140.113 80.2548 140.35C79.0916 140.061 77.9734 138.881 77.0459 138.048C73.6162 138.171 74.4102 142.018 67.5605 139.533C65.249 138.075 64.2466 136.23 64.539 133.367C65.3315 125.605 74.6756 127.821 76.4353 126.493C76.5099 125.376 75.4827 123.026 74.2587 122.973C71.9012 122.871 67.2962 123.765 65.3622 122.47C66.1735 120.068 68.4107 119.766 70.6457 119.333ZM72.4725 137.186C74.1575 136.697 75.5704 136.325 76.2639 134.66C77.997 130.501 76.0465 129.501 72.4575 129.783C67.1601 131.475 66.127 137.388 72.4725 137.186Z" fill="#FDFCFC"/>
<path d="M411.01 119.344C416.592 119.055 420.22 121.238 421.892 127.049C422.136 127.898 421.926 128.746 421.416 129.47C420.037 130.692 409.315 130.219 406.485 130.287C406.631 131.034 406.8 131.778 406.987 132.517C408.187 137.077 411.621 137.68 415.684 136.598C417.18 135.959 417.206 135.839 418.567 136.211C419.163 137.119 419.073 136.71 418.841 137.885C416.183 141.234 410.305 140.969 407.197 138.778C399.576 133.411 401.687 121.376 411.01 119.344ZM415.328 127.483C416.82 127.413 416.637 127.653 417.626 126.83C417.814 123.128 413.289 122.256 410.361 122.664C408.802 123.623 408.457 123.849 407.313 125.267L407.092 126.254C408.596 128.095 412.948 127.503 415.328 127.483Z" fill="#FDFCFC"/>
<path d="M505.204 111.854C507.626 111.81 511.12 111.442 512.683 113.438C512.743 114.446 512.852 114.913 512.237 115.733C511.067 116.26 501.992 112.66 502.719 119.57C503.131 123.453 514.546 125.702 514.805 131.222C515.063 136.815 511.401 139.453 506.674 140.284C504.106 140.245 500.848 140.534 499.379 138.187C499.371 137.065 499.379 136.826 500.023 135.897C502.078 134.989 507.637 139.002 509.928 134.826C514.044 127.311 498.277 127.546 498.809 119.361C499.124 114.54 500.908 112.721 505.204 111.854Z" fill="#FDFCFC"/>
<path d="M210.407 0.843873C212.633 0.190917 215.035 0.603331 216.916 1.96137C218.797 3.31937 219.946 5.47082 220.03 7.79095C220.094 9.56523 219.529 11.305 218.435 12.7025C217.355 14.0827 215.827 15.0417 214.115 15.4138C210.161 16.2731 206.237 13.8445 205.239 9.9197C204.24 5.99487 206.524 1.98294 210.407 0.843873Z" fill="#FDFCFC"/>
<path d="M587.782 119.623C589.292 119.648 589.828 119.554 590.833 120.407C591.129 122.786 591.407 138.423 590.642 139.835C589.634 140.592 590.02 140.52 588.925 140.496C587.887 139.966 587.609 139.208 587.054 138.181C584.876 137.437 573.956 147.542 574.144 129.19C574.132 126.815 573.758 121.325 575.156 119.845C576.385 119.735 575.913 119.666 577.116 120.351C580.288 124.363 573.668 138.37 583.272 136.942C585.229 136.651 586.117 135.187 587.178 133.675C587.381 130.08 586.889 122.679 587.782 119.623Z" fill="#FDFCFC"/>
<path d="M682.07 119.316C682.992 119.267 684.383 119.278 685.279 119.37C692.004 120.058 691.618 134.95 690.178 139.849L688.866 140.562C683.247 139.807 691.985 122.49 681.459 122.379C674.029 126.486 680.566 135.866 677.061 139.963C675.753 140.184 676.214 140.26 675.078 139.83C673.924 138.105 673.586 121.303 675.386 119.716C676.619 119.771 676.499 120.055 677.594 121.158C679.198 121.298 679.554 120.09 682.07 119.316Z" fill="#FDFCFC"/>
<path d="M111.084 119.551L113.296 119.664C117.108 121.532 118.214 133.271 120.689 134.298C122.827 131.036 123.847 119.969 127.543 119.385C130.329 121.018 125.52 130.855 124.446 133.884C122.222 139.061 122.265 143.519 117.232 146.86C116.242 147.517 115.327 147.969 114.128 147.731C113.067 146.938 113.274 147.316 112.982 146.232C113.788 144.498 118.599 142.654 118.292 140.724C117.177 133.734 112.195 126.458 111.084 119.551Z" fill="#FDFCFC"/>
<path d="M44.1221 119.353C49.852 118.891 52.3764 121.576 52.8394 127.506C53.1003 130.844 53.2964 137.208 51.7151 140.175C50.5028 140.263 50.9665 140.333 49.8014 139.738C46.5959 135.237 53.2191 121.731 43.3607 122.544C36.851 125.346 42.2552 136.182 39.2258 140.151C38.0675 140.539 38.5001 140.485 37.1783 139.972C35.9877 137.281 36.3528 124.833 36.574 121.269C36.6467 120.099 36.8015 120.108 37.546 119.55C39.1321 119.814 39.3203 121.872 40.5139 121.116C41.7319 120.344 42.7767 119.861 44.1221 119.353Z" fill="#FDFCFC"/>
<path d="M707.629 119.336C709.567 119.302 712.18 119.345 713.694 120.602C714.17 121.755 714.084 121.287 713.818 122.671C711.318 124.244 710.249 121.155 706.455 123.4C704.915 126.846 714.931 129.168 715.52 133.522C716.071 137.592 713.398 139.295 709.878 140.256C707.872 140.268 703.535 140.242 702.407 138.377C702.291 137.248 702.474 136.99 703.04 136.049C704.836 135.185 708.963 138.762 711.479 135.767C711.767 131.554 702.512 129.274 701.953 124.393C701.593 121.242 705.087 119.688 707.629 119.336Z" fill="#FDFCFC"/>
<path d="M187.03 119.347C188.733 119.269 191.705 119.396 192.823 120.803C193.1 122.145 193.111 121.615 192.633 123C190.517 123.816 187.53 121.134 184.888 123.896C184.827 127.057 198.084 130.744 194.126 136.679C192.331 139.372 191.514 139.67 188.413 140.295C185.955 140.216 180.455 140.049 181.329 136.39C183.366 135.177 186.518 137.898 189.551 136.543C190.369 135.727 190.471 135.544 190.631 134.4C189.678 130.222 177.436 129.096 182.308 121.367C183.301 119.791 185.386 119.603 187.03 119.347Z" fill="#FDFCFC"/>
<path d="M144.281 119.331C144.472 119.315 144.663 119.31 144.855 119.315C146.888 119.376 149.041 119.312 150.44 120.814C150.768 122.164 150.772 121.628 150.356 123.001C148.563 123.928 145.687 120.919 143.108 123.7C142.18 128.628 151.36 128.168 151.975 132.749C152.604 137.442 150.371 139.18 146.316 140.28C143.627 140.257 139.745 140.405 138.968 136.947L139.449 136.205C142.467 135.309 145.968 138.586 147.515 136.193C150.741 131.203 139.175 130.249 138.993 125.821C138.793 120.974 140.543 120.033 144.281 119.331Z" fill="#FDFCFC"/>
<path d="M384.364 119.367C386.913 119.18 391.299 119.199 391.887 122.283C389.436 124.905 382.354 119.589 380.352 125.916C377.563 134.739 382.358 139.371 390.766 135.69C392.135 136.638 392.262 137.018 391.974 138.522C391.168 139.556 390.249 139.596 389.023 139.903C378.602 142.504 372.146 132.336 377.432 123.516C378.943 120.998 381.47 119.897 384.364 119.367Z" fill="#FDFCFC"/>
<path d="M606.825 114.105C607.59 114.16 607.68 114.19 608.328 114.602C609.048 115.831 608.744 118.048 608.673 119.55C610.585 119.597 612.932 119.171 613.708 121.195L613.209 121.91C611.995 122.773 610.229 122.606 608.707 122.619C608.295 144.565 611.226 132.497 615.747 138.508C615.102 139.572 614.383 140.15 613.104 140.284C602.109 141.436 605.333 130.425 604.73 123.175C604.04 122.47 603.691 122.219 602.908 121.665L602.878 120.83C604.062 118.891 605.7 115.276 606.825 114.105Z" fill="#FDFCFC"/>
<path d="M329.189 119.714C329.672 119.669 331.485 119.575 331.774 119.741C334.504 121.303 336.888 130.245 338.183 133.555C339.799 129.903 342.126 121.113 344.97 119.672C346.19 119.753 346.018 119.547 346.791 120.252C347 121.467 345.97 123.4 345.446 124.624C342.857 130.17 341.054 135.181 338.13 140.788C336.574 138.346 329.434 122.078 329.189 119.714Z" fill="#FDFCFC"/>
<path d="M94.7515 111.185L96.4583 111.362C99.9169 114.421 96.6592 130.147 98.014 135.052C98.1261 135.457 99.9727 136.951 100.642 137.805C100.769 139.311 100.769 138.855 100.13 140.272C97.9383 140.094 94.7451 138.745 94.4216 136.419C93.8706 132.459 93.1658 113.816 94.7515 111.185Z" fill="#FDFCFC"/>
<path d="M556.221 111.166C556.881 111.239 557.555 111.411 558.2 111.559C559.872 113.181 559.074 131.436 559.299 135.493C560.502 136.315 561.769 136.807 562.298 138.145C562.343 139.297 562.219 139.496 561.537 140.414C560.311 140.149 557.57 139.234 556.847 138.471C554.38 135.876 554.856 112.789 556.221 111.166Z" fill="#FDFCFC"/>
<path d="M460.096 114.139C461.351 114.359 462.701 114.924 462.712 116.385C462.75 120.607 463.694 144.921 462.326 146.982C460.767 146.836 460.913 147.075 459.777 146.234C458.93 144.33 459.241 116.465 460.096 114.139Z" fill="#FDFCFC"/>
<path d="M230.467 114.538C231.345 114.596 231.5 114.637 232.318 114.972C233.538 116.903 233.26 144.05 232.706 147.108C231.69 147.133 231.464 147.122 230.492 146.831C229.543 145.38 229.809 117.937 230.467 114.538Z" fill="#FDFCFC"/>
<path d="M357.849 119.779C359.588 119.635 361.815 119.673 363.596 119.654C363.824 122.206 363.79 137.655 363.554 140.164C362.471 140.2 361.935 140.177 360.866 140.072C358.816 138.154 360.203 127.539 359.809 124.438C359.536 122.283 359.502 123.501 357.436 121.749C357.17 120.46 357.088 120.955 357.849 119.779Z" fill="#FDFCFC"/>
<path d="M626.941 119.747C628.429 119.693 630.259 119.497 631.612 120.031C632.56 121.158 632.56 138.607 631.638 140.308C630.476 140.278 630.041 140.299 628.92 139.884C627.485 137.971 629.059 126.01 627.923 122.774C627.222 122.544 627.098 122.394 626.57 121.878C626.431 120.479 626.337 121.004 626.941 119.747Z" fill="#FDFCFC"/>
<path d="M164.135 119.759C165.456 119.687 167.423 119.502 168.488 120.216C169.496 122.1 169.423 138.716 168.263 140.406L166.624 140.219C163.638 137.913 165.845 128.875 165.245 125.295C164.754 122.365 162.668 122.471 164.135 119.759Z" fill="#FDFCFC"/>
<path d="M166.307 110.247C170.125 110.311 171.64 113.584 169.934 116.962C169.722 117.382 168.434 117.363 167.894 117.414C161.717 117.497 161.21 112.419 166.307 110.247Z" fill="#FDFCFC"/>
<path d="M628.83 110.227C633.554 110.217 636.106 115.693 631.514 117.47C630.828 117.471 630.146 117.451 629.46 117.409C624.459 117.066 625.603 112.813 628.83 110.227Z" fill="#FDFCFC"/>
<path d="M360.971 110.252C366.122 110.096 366.924 116.26 362.546 117.506C362.103 117.471 360.345 117.41 360.102 117.273C356.016 114.973 358.156 111.799 360.971 110.252Z" fill="#FDFCFC"/>
</svg>
