<svg xmlns="http://www.w3.org/2000/svg" width="2308" height="458" viewBox="0 0 2308 458" fill="none"><path d="M209.166 252.512V148.331C209.166 129.27 206.291 115.92 200.543 108.281C194.794 100.642 185.165 96.8229 171.656 96.8242C163.635 97.0361 155.8 99.2804 148.883 103.347C141.586 107.137 135.321 112.647 130.63 119.401V252.52H98.8125V73.4117H120.584L130.63 96.4863C141.124 78.8737 158.26 70.0674 182.04 70.0674C221.333 70.0674 240.98 93.925 240.983 141.64V252.512H209.166Z" fill="#0A38C2"></path><path d="M350.831 255.858H342.46L265.597 72.9082H300.428L347.819 198.335L396.212 72.9082H429.535L350.831 255.858Z" fill="#0A38C2"></path><path d="M523.645 255.858C511.966 256.055 500.365 253.908 489.529 249.544C484.605 247.469 479.943 244.82 475.641 241.651C471.304 238.434 467.354 234.727 463.869 230.603C456.577 221.901 451.109 211.823 447.788 200.966C444.065 188.505 442.259 175.55 442.431 162.546C442.272 149.835 444.158 137.18 448.019 125.068C451.582 114.217 457.282 104.189 464.784 95.5773C468.394 91.4316 472.438 87.6856 476.847 84.4035C481.14 81.2318 485.78 78.5584 490.677 76.4348C501.114 72.0747 512.336 69.9075 523.645 70.0677C535.334 69.8692 546.949 71.9498 557.842 76.1932C567.704 80.2036 576.472 86.5008 583.422 94.5656C590.702 103.107 596.133 113.066 599.37 123.813C603.083 136.383 604.878 149.442 604.694 162.548C604.875 175.662 603.039 188.726 599.251 201.282C595.893 212.155 590.336 222.222 582.925 230.857C579.387 234.935 575.403 238.604 571.048 241.795C566.752 244.923 562.109 247.545 557.212 249.608C546.553 253.912 535.139 256.038 523.645 255.858ZM523.645 95.9848C516.838 95.8297 510.099 97.3688 504.034 100.464C497.969 103.559 492.767 108.113 488.898 113.716C480.287 125.476 475.921 141.903 475.921 162.544C475.921 184.904 479.935 201.908 487.851 213.086C495.768 224.264 507.811 229.933 523.645 229.933C530.52 230.137 537.334 228.586 543.443 225.426C549.552 222.266 554.755 217.601 558.561 211.872C566.957 199.887 571.204 183.292 571.204 162.542C571.204 140.459 567.202 123.663 559.313 112.623C551.423 101.582 539.423 95.9848 523.645 95.9848Z" fill="#0A38C2"></path><path d="M653.591 252.511V100.168H628.974V73.4116H685.409V252.511H653.591Z" fill="#0A38C2"></path><path d="M871.286 87.9606L855.543 110.368C852.305 107.136 846.583 104.07 838.377 101.17C830.619 98.3504 822.437 96.8798 814.183 96.8222C796.874 96.8222 783.142 102.871 772.987 114.967C762.832 127.064 757.753 143.649 757.75 164.721C757.75 185.679 762.938 201.648 773.313 212.629C783.688 223.611 798.09 229.102 816.519 229.103C830.808 229.103 845.211 223.584 859.726 212.545L872.289 239.3C855.208 250.337 834.055 255.857 808.83 255.858C784.381 255.858 764.177 247.666 748.218 231.282C732.259 214.898 724.273 192.711 724.26 164.721C724.26 136.186 732.549 113.274 749.127 95.9866C765.705 78.6989 788.396 70.0592 817.197 70.0674C827.507 70.2652 837.705 72.2447 847.34 75.9185C858.165 79.8219 866.147 83.836 871.286 87.9606Z" fill="#0A38C2"></path><path d="M977.783 255.858C967.089 255.954 956.475 254.008 946.511 250.124C936.746 246.169 927.856 240.33 920.347 232.939C911.67 224.653 904.937 214.547 900.63 203.348C898.39 197.506 896.736 191.456 895.695 185.287C894.579 178.6 894.031 171.83 894.057 165.051C894.033 157.999 894.597 150.958 895.742 143.999C896.81 137.561 898.504 131.243 900.798 125.133C905.21 113.412 912.109 102.786 921.019 93.9857C928.558 86.3651 937.5 80.2751 947.352 76.0516C957.107 72.0273 967.567 69.9928 978.119 70.0674C989.743 69.8908 1001.31 71.7148 1012.32 75.4597C1022.04 78.8812 1030.89 84.4055 1038.23 91.6387C1045.18 98.4458 1050.58 106.675 1054.05 115.764C1057.69 125.653 1059.48 136.126 1059.33 146.662C1059.39 153.212 1058.55 159.738 1056.83 166.058H927.549C927.549 186.919 933.352 203.18 944.797 214.391C954.904 224.157 968.088 229.109 983.98 229.109C1002.1 229.109 1017.42 223.764 1029.53 213.223L1042.93 236.128C1038.03 241.008 1030.43 245.284 1020.32 248.825C1013.77 251.211 1007.01 252.975 1000.14 254.093C992.747 255.288 985.271 255.878 977.783 255.858ZM979.626 96.8222C966.811 96.5272 954.367 101.142 944.841 109.721C935.315 118.301 929.428 130.197 928.384 142.975H1027.69C1028.02 131.109 1023.69 119.584 1015.63 110.871C1006.85 101.549 994.736 96.8222 979.626 96.8222Z" fill="#0A38C2"></path><path d="M1108.73 255.86H1092.83V0H1124.64V86.6295C1127.65 82.5213 1133.37 78.6956 1141.64 75.2591C1149.39 71.9279 1157.73 70.1655 1166.17 70.0737C1177.6 69.918 1188.94 72.0776 1199.51 76.4224C1204.48 78.5387 1209.19 81.2033 1213.56 84.3665C1218.04 87.6281 1222.17 91.355 1225.86 95.485C1233.41 103.856 1239.24 113.63 1243.01 124.251C1246.93 135.655 1248.86 147.645 1248.73 159.701C1248.92 173.262 1246.99 186.77 1242.99 199.731C1241.16 205.431 1238.76 210.933 1235.83 216.156C1233 221.178 1229.63 225.882 1225.79 230.185C1222.06 234.38 1217.87 238.147 1213.3 241.418C1208.78 244.634 1203.91 247.326 1198.79 249.442C1187.61 253.863 1175.68 256.044 1163.66 255.86C1155.09 255.832 1146.6 254.212 1138.62 251.082C1131.64 248.664 1125.28 244.756 1119.96 239.628L1108.73 255.85V255.86ZM1154.62 96.8223C1150.73 96.8223 1145.23 98.5098 1138.29 101.838C1131.35 105.166 1126.75 108.207 1124.65 110.871V214.219C1124.65 215.996 1128.64 218.949 1136.52 222.996C1144.4 227.043 1150.5 229.103 1154.61 229.103C1176.16 229.103 1191.83 223.871 1201.16 213.551C1210.49 203.231 1215.23 185.672 1215.23 161.377C1215.23 141.179 1209.7 125.201 1198.82 113.882C1187.93 102.563 1173.06 96.8223 1154.62 96.8223Z" fill="#0A38C2"></path><path d="M1381.35 104.015C1375.28 99.5098 1367.97 96.9969 1360.42 96.8222C1349.14 96.8222 1339.29 102.006 1330.86 112.375C1322.35 122.972 1317.87 136.244 1318.22 149.832V252.512H1286.4V73.4117H1318.22V102.016C1329.83 80.7169 1347.08 70.0674 1369.96 70.0674C1378.24 70.3647 1386.48 71.3712 1394.58 73.0759L1381.35 104.015Z" fill="#0A38C2"></path><path d="M1486.68 255.858C1475 256.055 1463.4 253.908 1452.56 249.544C1447.63 247.469 1442.97 244.82 1438.67 241.651C1434.33 238.434 1430.38 234.727 1426.9 230.603C1419.61 221.9 1414.14 211.822 1410.82 200.966C1407.1 188.505 1405.29 175.551 1405.46 162.546C1405.3 149.835 1407.19 137.18 1411.05 125.068C1414.61 114.216 1420.31 104.188 1427.82 95.5773C1431.43 91.4318 1435.47 87.6858 1439.88 84.4035C1444.17 81.2319 1448.81 78.5585 1453.71 76.4348C1464.15 72.0748 1475.37 69.9075 1486.68 70.0677C1498.37 69.8691 1509.98 71.9497 1520.88 76.1932C1530.74 80.2037 1539.5 86.5009 1546.46 94.5656C1553.74 103.108 1559.17 113.066 1562.4 123.813C1566.12 136.383 1567.91 149.442 1567.73 162.548C1567.91 175.662 1566.07 188.726 1562.28 201.282C1558.93 212.155 1553.37 222.221 1545.96 230.857C1542.42 234.935 1538.44 238.603 1534.08 241.795C1529.79 244.923 1525.14 247.545 1520.24 249.608C1509.59 253.913 1498.17 256.038 1486.68 255.858ZM1486.68 95.9849C1479.87 95.8312 1473.14 97.371 1467.07 100.466C1461.01 103.561 1455.81 108.114 1451.94 113.716C1443.33 125.472 1438.97 141.901 1438.97 162.544C1438.97 184.904 1442.98 201.908 1450.9 213.086C1458.81 224.264 1470.85 229.933 1486.69 229.933C1493.56 230.137 1500.38 228.586 1506.48 225.426C1512.59 222.266 1517.8 217.601 1521.6 211.872C1530 199.883 1534.25 183.288 1534.25 162.542C1534.25 140.461 1530.25 123.665 1522.36 112.623C1514.47 101.58 1502.46 95.9849 1486.68 95.9849Z" fill="#0A38C2"></path><path d="M1717.1 252.516L1660.83 162.876L1633.03 191.486V252.516H1601.22V0H1633.03V156.691L1701.69 73.4119H1738.87L1681.43 141.474L1751.59 252.516H1717.1Z" fill="#0A38C2"></path><path d="M1846.2 255.858C1835.51 255.954 1824.9 254.008 1814.93 250.124C1805.17 246.169 1796.28 240.33 1788.77 232.939C1780.09 224.653 1773.36 214.547 1769.05 203.348C1766.81 197.506 1765.15 191.456 1764.11 185.287C1763 178.6 1762.45 171.83 1762.47 165.051C1762.45 157.999 1763.02 150.958 1764.16 143.999C1765.23 137.561 1766.92 131.243 1769.21 125.133C1773.63 113.412 1780.52 102.786 1789.43 93.9857C1796.97 86.3657 1805.91 80.2759 1815.77 76.0516C1825.52 72.0268 1835.98 69.9922 1846.54 70.0674C1858.16 69.8908 1869.73 71.7148 1880.73 75.4597C1890.46 78.8811 1899.3 84.4054 1906.65 91.6387C1913.6 98.4456 1919 106.675 1922.47 115.764C1926.11 125.653 1927.9 136.126 1927.75 146.662C1927.81 153.212 1926.97 159.739 1925.24 166.058H1795.97C1795.97 186.921 1801.77 203.18 1813.22 214.391C1823.32 224.157 1836.51 229.109 1852.4 229.109C1870.52 229.109 1885.84 223.764 1897.95 213.223L1911.34 236.128C1906.45 241.008 1898.85 245.284 1888.73 248.825C1882.19 251.211 1875.43 252.975 1868.56 254.093C1861.17 255.288 1853.69 255.878 1846.2 255.858ZM1848.05 96.8222C1835.23 96.5272 1822.79 101.142 1813.26 109.721C1803.73 118.301 1797.85 130.197 1796.8 142.975H1896.11C1896.44 131.109 1892.11 119.584 1884.05 110.871C1875.27 101.549 1863.15 96.8222 1848.05 96.8222Z" fill="#0A38C2"></path><path d="M2058.7 104.015C2052.64 99.5098 2045.33 96.9969 2037.78 96.8222C2026.49 96.8222 2016.64 102.006 2008.22 112.375C1999.71 122.972 1995.23 136.244 1995.58 149.832V252.512H1963.76V73.4117H1995.58V102.016C2007.18 80.7169 2024.43 70.0674 2047.32 70.0674C2055.59 70.3647 2063.83 71.3712 2071.94 73.0759L2058.7 104.015Z" fill="#0A38C2"></path><path d="M2082.81 241.811L2094.03 211.706C2111.78 223.3 2126.07 229.096 2136.9 229.095C2156.55 229.095 2166.37 220.845 2166.37 204.345C2166.37 192.53 2156.89 182.385 2137.91 173.912C2123.29 167.222 2113.43 162.149 2108.36 158.692C2103.43 155.38 2098.98 151.415 2095.13 146.906C2091.54 142.75 2088.7 137.995 2086.75 132.856C2084.88 127.74 2083.95 122.33 2083.99 116.882C2083.99 102.167 2089.35 90.6844 2100.07 82.4351C2110.79 74.1859 2124.79 70.0633 2142.09 70.0674C2155.15 70.0674 2171.62 74.1927 2191.49 82.4433L2182.45 111.873C2169.83 101.839 2157.16 96.8229 2144.44 96.8242C2137.65 96.5955 2130.95 98.464 2125.26 102.176C2122.91 103.577 2120.96 105.559 2119.6 107.931C2118.24 110.304 2117.51 112.987 2117.48 115.723C2117.48 127.203 2124.01 135.898 2137.07 141.81L2159.85 152.175C2173.8 158.529 2183.95 165.777 2190.32 173.918C2196.68 182.06 2199.86 192.26 2199.86 204.519C2199.86 220.574 2194.22 233.144 2182.95 242.229C2171.68 251.314 2156.05 255.857 2136.06 255.86C2117.39 255.909 2099.03 251.065 2082.81 241.811Z" fill="#0A38C2"></path><path d="M70.8324 433.45H57.7271L51.7621 415.389H19.5966L13.2221 433.448H0L35.1203 346.653H38.2472L70.8324 433.45ZM36.1237 369.095L22.7296 406.796H48.3998L36.1237 369.095Z" fill="#0A38C2"></path><path d="M142.116 433.446V397.033C142.116 390.368 141.102 385.701 139.075 383.033C137.047 380.365 133.651 379.031 128.885 379.031C126.062 379.105 123.302 379.888 120.86 381.309C118.292 382.63 116.084 384.555 114.424 386.918V433.446H103.209V370.848H110.884L114.424 378.913C118.124 372.755 124.164 369.676 132.545 369.676C146.397 369.676 153.323 378.015 153.323 394.692V433.446H142.116Z" fill="#0A38C2"></path><path d="M208.547 434.616C206.148 434.635 203.77 434.171 201.554 433.253C199.338 432.334 197.329 430.979 195.647 429.269C193.868 427.547 192.465 425.476 191.526 423.186C190.586 420.896 190.131 418.436 190.19 415.961C190.165 412.905 190.887 409.889 192.293 407.175C193.849 404.315 195.999 401.821 198.599 399.862C201.459 397.643 204.704 395.97 208.17 394.928C212.031 393.797 216.037 393.245 220.059 393.29C222.799 393.362 225.508 393.875 228.084 394.809C228.388 390.718 227.168 386.659 224.661 383.412C223.321 382.08 221.711 381.051 219.939 380.395C218.168 379.739 216.276 379.472 214.391 379.611C207.429 379.611 201.978 381.5 198.214 385.225L193.495 375.931C196.151 373.949 199.139 372.455 202.318 371.52C205.789 370.342 209.424 369.72 213.089 369.677C217.103 369.601 221.106 370.124 224.966 371.227C228.005 372.096 230.787 373.69 233.075 375.872C235.259 378.128 236.862 380.882 237.746 383.896C238.851 387.686 239.375 391.622 239.302 395.569V418.009C239.302 423.477 240.969 427.176 244.259 429V434.552C240.74 434.762 237.223 434.1 234.021 432.623C231.651 431.191 229.911 428.914 229.153 426.25C226.901 429.038 223.968 431.197 220.637 432.519C216.779 433.987 212.674 434.699 208.547 434.616ZM220.647 401.535C215.662 401.323 210.758 402.852 206.776 405.86C205.146 407.028 203.811 408.561 202.878 410.336C201.946 412.112 201.441 414.081 201.405 416.086C201.308 417.447 201.519 418.812 202.024 420.08C202.528 421.348 203.313 422.485 204.319 423.407C206.853 425.211 209.936 426.074 213.038 425.848C218.681 425.848 223.745 423.155 228.089 417.843V402.704C225.648 402.087 223.159 401.696 220.647 401.535Z" fill="#0A38C2"></path><path d="M282.009 415.738V345.189H293.224V413.87C293.145 415.318 293.362 416.767 293.863 418.128C294.364 419.489 295.139 420.733 296.138 421.783C297.15 422.758 298.35 423.518 299.664 424.016C300.978 424.513 302.38 424.739 303.784 424.679V434.616C289.267 434.616 282.009 428.323 282.009 415.738Z" fill="#0A38C2"></path><path d="M365.095 444.085C363.335 448.397 360.074 451.927 355.915 454.022C351.151 456.697 345.766 458.068 340.303 457.997V448.058C344.549 448.18 348.736 447.052 352.346 444.814C353.805 444.052 355.037 442.918 355.918 441.527C356.799 440.136 357.297 438.538 357.363 436.893C357.356 433.432 356.737 429.999 355.534 426.753C354.306 423.421 352.731 419.299 350.81 414.39L333.691 370.85H345.144L363.738 419.241L380.441 370.85H391.894L365.095 444.085Z" fill="#0A38C2"></path><path d="M420.615 429.704L424.571 419.184C430.827 423.236 435.863 425.262 439.679 425.26C446.603 425.26 450.066 422.377 450.069 416.61C450.069 412.48 446.724 408.933 440.035 405.97C436.441 404.445 432.959 402.665 429.616 400.646C427.884 399.489 426.315 398.103 424.954 396.525C423.688 395.074 422.689 393.41 422.003 391.61C421.345 389.829 421.013 387.944 421.024 386.046C420.921 383.729 421.383 381.423 422.37 379.325C423.357 377.227 424.84 375.4 426.69 374.004C431.008 370.953 436.22 369.43 441.501 369.676C447.524 370.012 453.429 371.48 458.907 374.004L455.735 384.291C452.002 381.055 447.272 379.199 442.335 379.031C439.945 378.95 437.587 379.602 435.577 380.899C434.75 381.385 434.063 382.076 433.582 382.906C433.101 383.736 432.843 384.677 432.833 385.636C432.833 389.649 435.135 392.687 439.738 394.75L447.767 398.372C451.897 400.024 455.578 402.628 458.51 405.972C460.828 409.046 462.016 412.824 461.874 416.671C461.99 419.182 461.511 421.685 460.475 423.976C459.439 426.266 457.876 428.279 455.913 429.85C451.938 433.026 446.428 434.613 439.384 434.613C432.808 434.633 426.34 432.941 420.615 429.704Z" fill="#0A38C2"></path><path d="M503.283 433.448V380.201H494.606V370.85H514.498V433.448H503.283Z" fill="#0A38C2"></path><path d="M552.371 429.704L556.327 419.184C562.583 423.236 567.619 425.262 571.435 425.26C578.359 425.26 581.822 422.377 581.825 416.61C581.825 412.48 578.48 408.933 571.791 405.97C568.196 404.444 564.714 402.665 561.37 400.646C559.638 399.488 558.071 398.102 556.71 396.525C555.443 395.074 554.444 393.41 553.759 391.61C553.101 389.829 552.769 387.944 552.78 386.046C552.676 383.729 553.138 381.422 554.125 379.324C555.112 377.226 556.595 375.4 558.446 374.004C562.764 370.953 567.976 369.43 573.257 369.676C579.279 370.012 585.184 371.48 590.663 374.004L587.491 384.291C583.758 381.055 579.028 379.199 574.091 379.031C571.7 378.95 569.342 379.601 567.333 380.899C566.506 381.384 565.818 382.076 565.337 382.906C564.855 383.736 564.597 384.677 564.587 385.636C564.587 389.649 566.89 392.687 571.494 394.75L579.523 398.372C583.652 400.025 587.333 402.629 590.266 405.973C592.584 409.046 593.772 412.824 593.63 416.671C593.746 419.182 593.266 421.685 592.23 423.976C591.194 426.266 589.631 428.279 587.669 429.85C583.694 433.026 578.184 434.613 571.14 434.613C564.564 434.633 558.095 432.942 552.371 429.704Z" fill="#0A38C2"></path><path d="M893.816 433.45H880.711L874.746 415.389H842.581L836.206 433.448H822.984L858.104 346.653H861.231L893.816 433.45ZM859.108 369.095L845.714 406.796H871.384L859.108 369.095Z" fill="#0A38C2"></path><path d="M949.273 434.561C945.585 434.61 941.927 433.893 938.53 432.455C935.264 431.005 932.359 428.849 930.024 426.141C927.537 423.276 925.656 419.936 924.495 416.323C923.218 412.239 922.596 407.977 922.652 403.698C922.614 399.256 923.333 394.84 924.778 390.64C926.209 386.614 928.37 382.887 931.155 379.646C933.716 376.545 936.886 374.002 940.468 372.173C943.87 370.509 947.611 369.656 951.398 369.681C957.906 369.681 962.911 371.215 966.275 374.239V345.191H977.492V433.389H966.269V428.773C962.392 432.613 956.673 434.561 949.273 434.561ZM954.644 379.032C951.862 378.953 949.099 379.513 946.566 380.668C944.034 381.823 941.8 383.543 940.036 385.696C936.207 390.494 934.228 396.507 934.458 402.641C934.458 410.147 936.204 415.856 939.653 419.608C943.101 423.36 948.341 425.267 955.236 425.267C957.452 425.154 959.622 424.587 961.61 423.6C963.503 422.955 965.138 421.715 966.269 420.065V385.348C965.046 383.377 963.331 381.758 961.292 380.651C959.254 379.543 956.963 378.985 954.644 379.032Z" fill="#0A38C2"></path><path d="M1040.5 434.614H1037.56L1010.46 370.676H1022.75L1039.45 414.503L1056.5 370.676H1068.25L1040.5 434.614Z" fill="#0A38C2"></path><path d="M1106.53 433.448V380.201H1097.85V370.85H1117.74V433.448H1106.53Z" fill="#0A38C2"></path><path d="M1207.44 375.937L1201.89 383.769C1200.12 382.286 1198.06 381.19 1195.84 380.549C1193.1 379.566 1190.22 379.053 1187.31 379.032C1184.57 378.915 1181.83 379.426 1179.31 380.527C1176.8 381.627 1174.57 383.287 1172.79 385.38C1169.21 389.605 1167.42 395.4 1167.42 402.766C1167.42 410.091 1169.25 415.672 1172.91 419.51C1174.9 421.482 1177.29 423.014 1179.91 424.006C1182.53 424.998 1185.34 425.428 1188.14 425.269C1193.71 425.073 1199.07 423.038 1203.37 419.481L1207.79 428.839C1201.05 432.887 1193.28 434.895 1185.42 434.62C1181.46 434.74 1177.51 434.038 1173.84 432.558C1170.16 431.077 1166.83 428.851 1164.06 426.019C1158.43 420.295 1155.61 412.543 1155.61 402.762C1155.61 392.795 1158.53 384.788 1164.38 378.741C1170.22 372.694 1178.22 369.674 1188.37 369.681C1192.01 369.749 1195.6 370.442 1199 371.729C1202.02 372.682 1204.86 374.102 1207.44 375.937Z" fill="#0A38C2"></path><path d="M1269.15 434.616C1265.39 434.651 1261.65 433.972 1258.13 432.615C1254.7 431.236 1251.57 429.195 1248.92 426.608C1245.86 423.716 1243.49 420.183 1241.96 416.264C1240.36 411.986 1239.57 407.447 1239.64 402.881C1239.58 398.125 1240.38 393.399 1242.02 388.934C1243.58 384.831 1246.01 381.115 1249.15 378.043C1251.81 375.374 1254.96 373.245 1258.43 371.772C1261.87 370.366 1265.56 369.656 1269.27 369.683C1273.37 369.621 1277.45 370.259 1281.33 371.569C1284.75 372.762 1287.87 374.693 1290.46 377.226C1292.91 379.599 1294.82 382.476 1296.04 385.657C1297.33 389.111 1297.96 392.772 1297.9 396.456C1297.92 398.746 1297.63 401.027 1297.02 403.235H1251.45C1251.45 410.522 1253.5 416.205 1257.53 420.127C1259.38 421.849 1261.55 423.189 1263.92 424.072C1266.29 424.954 1268.81 425.361 1271.34 425.269C1277.19 425.456 1282.91 423.481 1287.39 419.719L1292.12 427.725C1289.81 429.764 1287.09 431.28 1284.15 432.167C1279.33 433.852 1274.26 434.681 1269.15 434.616ZM1269.81 379.032C1265.15 378.909 1260.63 380.627 1257.23 383.814C1254.05 386.777 1252.09 390.823 1251.74 395.158H1286.74C1286.86 391.003 1285.33 386.969 1282.49 383.933C1280.84 382.274 1278.85 380.981 1276.67 380.137C1274.48 379.292 1272.15 378.916 1269.81 379.032Z" fill="#0A38C2"></path><path d="M1538.19 429.529L1542.49 418.777C1545.01 420.529 1547.79 421.879 1550.73 422.778C1553.57 423.771 1556.54 424.313 1559.55 424.386C1563.59 424.582 1567.55 423.246 1570.65 420.644C1572.01 419.463 1573.09 417.997 1573.81 416.35C1574.53 414.703 1574.89 412.916 1574.84 411.117C1574.85 408.272 1574.04 405.484 1572.52 403.085C1570.96 400.61 1567.05 397.912 1560.8 394.991L1553.84 391.778C1548.87 389.801 1544.57 386.431 1541.47 382.073C1539.04 377.997 1537.82 373.312 1537.96 368.566C1537.88 365.58 1538.46 362.613 1539.64 359.869C1540.82 357.125 1542.58 354.67 1544.8 352.672C1549.63 348.364 1555.93 346.1 1562.39 346.356C1571.95 346.356 1578.6 347.895 1582.34 350.974L1578.86 361.142C1576.63 359.707 1574.21 358.603 1571.66 357.866C1568.77 356.873 1565.75 356.341 1562.69 356.289C1560.97 356.194 1559.24 356.445 1557.61 357.028C1555.98 357.611 1554.49 358.514 1553.22 359.684C1552.07 360.819 1551.17 362.178 1550.58 363.677C1549.98 365.177 1549.7 366.783 1549.76 368.394C1549.73 370.448 1550.16 372.482 1551 374.354C1551.79 376.102 1552.97 377.644 1554.45 378.86C1557.3 380.855 1560.33 382.559 1563.52 383.947L1570.6 387.279C1575.61 389.315 1579.92 392.753 1583.02 397.181C1585.56 401.632 1586.8 406.706 1586.59 411.826C1586.61 414.967 1585.91 418.071 1584.56 420.905C1583.2 423.74 1581.22 426.231 1578.77 428.191C1573.56 432.671 1566.58 434.911 1557.85 434.911C1550.91 435.117 1544.06 433.244 1538.19 429.533" fill="#0A38C2"></path><path d="M1648.02 434.616C1643.9 434.686 1639.81 433.936 1635.99 432.41C1632.49 430.947 1629.39 428.679 1626.94 425.791C1624.38 422.754 1622.45 419.23 1621.28 415.43C1619.96 411.078 1619.33 406.55 1619.39 402.004C1619.33 397.557 1620 393.13 1621.36 388.897C1622.62 385.099 1624.63 381.595 1627.27 378.591C1629.78 375.712 1632.89 373.429 1636.39 371.907C1640.08 370.38 1644.03 369.621 1648.02 369.676C1652.13 369.606 1656.23 370.334 1660.07 371.819C1663.54 373.222 1666.62 375.423 1669.08 378.243C1671.64 381.222 1673.56 384.702 1674.7 388.463C1676.01 392.854 1676.64 397.42 1676.58 402.002C1676.65 406.586 1676 411.153 1674.67 415.541C1673.49 419.346 1671.53 422.864 1668.92 425.875C1666.44 428.725 1663.34 430.967 1659.86 432.429C1656.1 433.936 1652.07 434.68 1648.02 434.616ZM1648.02 378.737C1645.62 378.679 1643.25 379.214 1641.11 380.295C1638.98 381.376 1637.14 382.969 1635.77 384.932C1632.73 389.04 1631.2 394.783 1631.2 402.002C1631.2 409.817 1632.61 415.76 1635.4 419.666C1636.84 421.625 1638.75 423.19 1640.96 424.219C1643.16 425.248 1645.59 425.708 1648.02 425.556C1650.43 425.629 1652.83 425.089 1654.99 423.984C1657.14 422.879 1658.98 421.246 1660.33 419.238C1663.28 415.049 1664.78 409.25 1664.78 402C1664.78 394.279 1663.37 388.409 1660.59 384.549C1659.14 382.611 1657.23 381.064 1655.04 380.049C1652.84 379.034 1650.43 378.583 1648.02 378.737Z" fill="#0A38C2"></path><path d="M1713.45 415.738V345.189H1724.66V413.87C1724.58 415.319 1724.8 416.768 1725.31 418.129C1725.81 419.49 1726.58 420.734 1727.59 421.783C1728.6 422.758 1729.8 423.517 1731.11 424.015C1732.42 424.513 1733.82 424.739 1735.23 424.679V434.616C1720.71 434.616 1713.45 428.323 1713.45 415.738Z" fill="#0A38C2"></path><path d="M1783.02 370.85V410.767C1783.02 420.433 1787.25 425.266 1795.71 425.264C1799.34 425.285 1802.89 424.181 1805.87 422.104C1808.62 420.383 1810.75 417.822 1811.94 414.799V370.85H1823.15V433.448H1811.94V424.795C1810.14 427.751 1807.5 430.104 1804.36 431.554C1800.97 433.491 1797.14 434.547 1793.23 434.626C1786.31 434.626 1781.01 432.658 1777.33 428.721C1773.65 424.785 1771.81 419.19 1771.8 411.936V370.85H1783.02Z" fill="#0A38C2"></path><path d="M1866.63 379.613H1859.31V370.85H1866.63V357.757L1877.85 353.489V370.85H1895.2V379.613H1877.85V410.708C1877.85 415.968 1878.74 419.709 1880.53 421.931C1881.62 423.112 1882.96 424.027 1884.46 424.605C1885.96 425.183 1887.58 425.408 1889.18 425.263C1892.27 425.211 1895.32 424.471 1898.09 423.098L1899.75 432.859C1894.74 434.069 1889.61 434.657 1884.46 434.612C1882.07 434.649 1879.71 434.175 1877.53 433.221C1875.34 432.267 1873.39 430.856 1871.79 429.082C1868.31 425.294 1866.45 420.287 1866.63 415.142L1866.63 379.613Z" fill="#0A38C2"></path><path d="M1940.15 433.448V380.201H1931.47V370.85H1951.37V433.448H1940.15Z" fill="#0A38C2"></path><path d="M2017.86 434.616C2013.75 434.686 2009.66 433.936 2005.84 432.41C2002.34 430.947 1999.24 428.679 1996.79 425.791C1994.22 422.755 1992.29 419.231 1991.12 415.43C1989.81 411.078 1989.17 406.55 1989.23 402.004C1989.18 397.557 1989.84 393.13 1991.2 388.897C1992.46 385.099 1994.47 381.595 1997.12 378.591C1999.62 375.712 2002.74 373.429 2006.24 371.907C2009.92 370.38 2013.88 369.621 2017.86 369.676C2021.98 369.606 2026.08 370.334 2029.92 371.819C2033.38 373.222 2036.47 375.423 2038.93 378.243C2041.49 381.222 2043.41 384.702 2044.55 388.463C2045.86 392.854 2046.49 397.42 2046.42 402.002C2046.49 406.586 2045.85 411.153 2044.52 415.541C2043.34 419.346 2041.38 422.864 2038.77 425.875C2036.29 428.725 2033.19 430.967 2029.71 432.429C2025.94 433.936 2021.92 434.68 2017.86 434.616ZM2017.86 378.737C2015.47 378.679 2013.1 379.214 2010.96 380.295C2008.82 381.376 2006.99 382.969 2005.62 384.932C2002.58 389.04 2001.04 394.783 2001.04 402.002C2001.04 409.817 2002.46 415.76 2005.25 419.666C2006.69 421.625 2008.6 423.19 2010.8 424.219C2013.01 425.248 2015.44 425.708 2017.86 425.556C2020.28 425.629 2022.68 425.088 2024.83 423.984C2026.98 422.879 2028.82 421.246 2030.17 419.238C2033.13 415.049 2034.63 409.252 2034.63 402C2034.63 394.279 2033.22 388.409 2030.44 384.549C2028.99 382.611 2027.08 381.064 2024.89 380.049C2022.69 379.034 2020.28 378.583 2017.86 378.737Z" fill="#0A38C2"></path><path d="M2121.32 433.446V397.033C2121.32 390.368 2120.31 385.701 2118.28 383.033C2116.25 380.365 2112.86 379.031 2108.09 379.031C2105.27 379.105 2102.51 379.888 2100.07 381.309C2097.5 382.63 2095.29 384.555 2093.63 386.918V433.446H2082.42V370.848H2090.09L2093.63 378.913C2097.33 372.755 2103.37 369.676 2111.75 369.676C2125.6 369.676 2132.53 378.015 2132.53 394.692V433.446H2121.32Z" fill="#0A38C2"></path><path d="M2168.51 429.705L2172.46 419.184C2178.72 423.236 2183.76 425.262 2187.58 425.261C2194.5 425.261 2197.96 422.377 2197.96 416.61C2197.96 412.48 2194.62 408.933 2187.93 405.971C2184.33 404.445 2180.85 402.665 2177.51 400.646C2175.78 399.49 2174.21 398.104 2172.85 396.525C2171.58 395.074 2170.58 393.41 2169.9 391.61C2169.24 389.83 2168.9 387.945 2168.92 386.046C2168.81 383.729 2169.28 381.422 2170.26 379.324C2171.25 377.226 2172.74 375.4 2174.59 374.004C2178.91 370.952 2184.12 369.429 2189.4 369.676C2195.42 370.012 2201.33 371.48 2206.81 374.004L2203.63 384.291C2199.9 381.056 2195.17 379.199 2190.23 379.032C2187.84 378.952 2185.48 379.603 2183.47 380.899C2182.65 381.385 2181.96 382.077 2181.48 382.907C2181 383.737 2180.74 384.677 2180.73 385.636C2180.73 389.649 2183.03 392.687 2187.64 394.75L2195.66 398.373C2199.79 400.024 2203.47 402.628 2206.41 405.973C2208.73 409.046 2209.91 412.824 2209.77 416.671C2209.89 419.183 2209.41 421.686 2208.37 423.976C2207.33 426.266 2205.77 428.279 2203.81 429.85C2199.83 433.026 2194.32 434.614 2187.28 434.614C2180.7 434.634 2174.23 432.942 2168.51 429.705Z" fill="#0A38C2"></path><path d="M11.7373 252.512H45.2277V7.52441H11.7373V252.512Z" fill="#0A38C2"></path><path d="M703.289 455.364H712.811V355.384H703.289V455.364Z" fill="#0A38C2"></path><path d="M1415.29 454.684H1425.49V354.706H1415.29V454.684Z" fill="#0A38C2"></path><path d="M2308 217.952C2308 225.515 2305.76 232.908 2301.56 239.196C2297.36 245.484 2291.38 250.385 2284.4 253.279C2277.41 256.173 2269.72 256.931 2262.31 255.455C2254.89 253.98 2248.08 250.338 2242.73 244.99C2237.39 239.643 2233.74 232.829 2232.27 225.412C2230.79 217.995 2231.55 210.306 2234.44 203.319C2237.34 196.332 2242.24 190.36 2248.53 186.159C2254.81 181.957 2262.21 179.714 2269.77 179.714C2274.79 179.714 2279.76 180.703 2284.4 182.625C2289.04 184.547 2293.25 187.363 2296.8 190.914C2300.35 194.465 2303.17 198.68 2305.09 203.319C2307.01 207.958 2308 212.931 2308 217.952Z" fill="#F26521"></path><path d="M690.011 24.6535C690.012 28.5997 688.842 32.4573 686.65 35.7387C684.458 39.02 681.343 41.5775 677.698 43.0878C674.052 44.5982 670.041 44.9934 666.171 44.2237C662.301 43.4539 658.747 41.5537 655.957 38.7633C653.167 35.9729 651.267 32.4177 650.497 28.5473C649.727 24.677 650.123 20.6652 651.633 17.0195C653.143 13.3738 655.7 10.2578 658.981 8.06567C662.262 5.87353 666.119 4.7037 670.065 4.7041C675.355 4.7041 680.428 6.8059 684.169 10.5471C687.91 14.2884 690.011 19.3626 690.011 24.6535Z" fill="#F26521"></path><path d="M516.478 354.022C516.478 355.724 515.973 357.387 515.028 358.802C514.083 360.216 512.739 361.319 511.167 361.97C509.594 362.62 507.865 362.79 506.196 362.457C504.528 362.125 502.995 361.304 501.793 360.1C500.59 358.897 499.772 357.363 499.441 355.694C499.111 354.025 499.282 352.295 499.935 350.723C500.587 349.152 501.691 347.809 503.107 346.865C504.523 345.921 506.187 345.418 507.888 345.42C510.169 345.42 512.356 346.327 513.969 347.94C515.582 349.553 516.488 351.741 516.488 354.022" fill="#F26521"></path><path d="M1120.98 354.022C1120.98 355.724 1120.47 357.387 1119.53 358.802C1118.58 360.216 1117.24 361.319 1115.67 361.97C1114.09 362.62 1112.36 362.79 1110.7 362.457C1109.03 362.125 1107.49 361.304 1106.29 360.1C1105.09 358.897 1104.27 357.363 1103.94 355.694C1103.61 354.025 1103.78 352.295 1104.43 350.723C1105.09 349.152 1106.19 347.809 1107.61 346.865C1109.02 345.921 1110.69 345.418 1112.39 345.42C1114.67 345.42 1116.86 346.327 1118.47 347.94C1120.08 349.553 1120.99 351.741 1120.99 354.022" fill="#F26521"></path><path d="M1953.35 354.022C1953.35 355.724 1952.84 357.387 1951.9 358.802C1950.95 360.216 1949.61 361.319 1948.03 361.97C1946.46 362.62 1944.73 362.79 1943.06 362.457C1941.4 362.125 1939.86 361.304 1938.66 360.1C1937.46 358.897 1936.64 357.363 1936.31 355.694C1935.98 354.025 1936.15 352.295 1936.8 350.723C1937.46 349.152 1938.56 347.809 1939.98 346.865C1941.39 345.921 1943.05 345.418 1944.76 345.42C1947.04 345.42 1949.22 346.327 1950.84 347.94C1952.45 349.553 1953.36 351.741 1953.36 354.022" fill="#F26521"></path></svg>