<svg width="204" height="70" viewBox="0 0 204 70" fill="none" xmlns="http://www.w3.org/2000/svg">
<path d="M156.599 8.26542C156.919 8.24425 157.534 8.26806 157.877 8.27132C157.846 11.1511 157.831 14.0311 157.833 16.9111C157.844 18.6888 157.824 20.6516 158.064 22.4011C159.835 22.7121 161.348 22.672 163.111 22.4598C163.499 18.2701 163.177 13.937 163.22 9.7317C163.225 9.21454 162.55 9.35736 162.106 8.96681C162.051 8.66283 162.03 8.78912 162.219 8.4922C162.852 8.10764 166.02 8.30313 166.863 8.33578C166.87 11.4277 166.856 14.5196 166.82 17.6113C166.797 19.11 166.869 21.3091 166.556 22.7175C165.786 26.1818 161.889 27.1375 158.951 26.5555C158.578 26.2201 157.624 25.0097 157.221 24.542C155.164 26.4482 153.905 27.2326 150.94 26.7373C149.392 26.4787 148.828 25.5991 148.019 24.4047C146.051 25.9803 145.268 26.6333 142.663 26.6875C140.603 26.7302 138.481 26.8199 136.418 26.8892C135.912 31.3898 132.117 34.1423 128.953 36.8537C126.983 38.5422 126.288 35.0476 126.631 34.6256C127.179 33.9508 129.438 32.0935 130.187 31.3042C131.581 29.8158 132.345 28.9355 132.869 26.9712C131.85 26.9449 130.789 26.869 129.773 26.8682C126.62 26.8768 124.294 24.0817 123.492 21.25C122.097 16.3209 124.36 9.38707 130.042 8.5594C132.095 8.26026 134.429 8.4507 136.507 8.59784C136.706 12.8584 136.583 18.2107 136.606 22.5449C139.327 22.5197 141.8 22.8225 144.525 22.4505C144.969 20.412 144.811 17.4273 144.828 15.3054C144.844 13.3434 144.98 10.3323 144.32 8.54844C145.717 8.42373 147.313 8.45028 148.71 8.49072L148.697 16.1711C148.7 17.8154 148.669 20.9399 148.998 22.4701C150.561 22.8764 152.375 22.9004 153.903 22.3384C154.826 19.5916 153.979 12.7737 153.992 9.65534C153.993 9.46954 153.45 8.9726 153.296 8.80123L153.326 8.65187C153.863 8.3143 155.894 8.29923 156.599 8.26542Z" fill="#F6F6F6"/>
<path d="M130.754 10.8801C131.32 10.8568 132.112 10.7743 132.587 11.0873C133.033 11.8084 132.692 20.9935 132.635 22.4551C131.441 22.5941 130.238 22.6375 129.038 22.5848C127.1 22.2717 127.133 20.5028 127.003 18.9192C126.719 15.5042 126.54 11.6709 130.754 10.8801Z" fill="#181818"/>
<path d="M77.076 8.35687C79.1367 8.2032 80.2 8.53835 81.7293 9.95449C85.1685 13.1391 87.3144 17.3485 88.7714 21.7462C89.4138 23.6853 90.0223 24.4051 90.1385 26.5708C77.4657 26.9987 64.8061 26.5516 52.1841 26.9676C52.106 27.2686 52.0254 27.5691 51.9423 27.8688C50.984 31.3408 49.524 32.8658 46.8101 35.1287C46.1775 35.6562 44.5745 37.7931 43.5795 37.2665C39.9819 35.3624 46.1478 31.2896 47.3885 29.6996C48.109 28.7761 48.4225 28.1639 48.8196 27.0417C45.107 26.8095 43.4105 27.5444 40.626 24.2629C38.5864 21.8593 38.56 19.0685 38.8093 16.1135C38.8453 15.8551 38.8895 15.5979 38.9421 15.3424C39.4314 13.0585 41.2565 11.0678 43.176 9.83874C46.2306 7.88268 49.011 8.33739 52.2982 9.04614L52.59 22.6652C57.8072 22.7476 63.3086 22.651 68.5489 22.6479L77.8228 22.55C80.0522 22.5243 82.3789 22.5529 84.5927 22.4132C84.3927 21.6355 84.1532 20.7689 83.8868 20.0151C82.9091 17.2494 79.0051 10.4307 75.6814 10.9502C74.9779 11.0631 74.3503 11.4564 73.9422 12.04C73.445 12.7578 73.3531 13.4816 73.2627 14.3013C72.8501 18.0396 75.4458 18.3021 76.0281 21.762C75.5031 21.8333 73.584 22.0855 73.3156 21.7112C71.3325 18.9458 70.8581 13.1198 73.0002 10.3216C74.0654 8.93018 75.5884 8.53709 77.076 8.35687Z" fill="#F6F6F6"/>
<path d="M46.2662 11.0839C47.1097 10.9945 47.8056 11.0242 48.6402 11.1406C48.7495 12.3324 48.6674 14.4624 48.6524 15.7115C48.6251 17.9732 48.6257 20.3619 48.5232 22.6145C47.3285 22.7052 46.0872 22.6983 44.8904 22.663C43.6831 22.5269 42.9081 21.7641 42.7436 20.5745C42.2361 16.9038 41.8786 12.1462 46.2662 11.0839Z" fill="#181818"/>
<path d="M184.965 8.4214C186.159 8.25298 188.347 8.30059 189.566 8.31123C189.624 12.2981 189.331 18.7329 189.827 22.5075C192.71 22.6763 196.087 22.7038 198.946 22.3524C199.09 19.8999 199.394 10.4127 198.791 8.44015C200.068 8.2613 201.808 8.3186 203.099 8.35726C203.143 11.4399 203.115 14.5931 203.119 17.6813C203.129 20.6226 203.383 23.6933 200.769 25.6775C200.154 26.1481 199.437 26.468 198.676 26.6116C197.51 26.8344 190.236 26.6471 188.884 26.4579C188.27 25.9375 188.052 25.6922 187.534 25.0694C187.077 25.5656 186.291 26.4872 185.618 26.5718C182.694 26.94 179.319 26.6775 176.367 26.5884C176.207 27.6038 175.969 28.6136 175.61 29.5778C174.579 32.3542 172.642 33.7329 170.522 35.6037C170.021 36.0457 169.351 36.8379 168.752 37.0979C168.408 37.2474 168.02 37.2187 167.681 37.0727C167.079 36.8143 166.5 36.2084 166.268 35.5964C166.185 35.3765 166.126 35.1086 166.215 34.882C166.864 33.2375 171.2 31.1123 172.171 28.816C172.879 27.1405 172.693 13.2941 172.455 10.7513C172.378 9.92833 172.226 9.2023 171.922 8.43278L174.03 8.37337L176.617 8.3364C176.54 13.0435 176.55 17.7516 176.648 22.4584C179.618 22.5706 182.591 22.5531 185.559 22.4062C185.733 18.5645 185.977 12.0222 184.965 8.4214Z" fill="#F6F6F6"/>
<path d="M70.0935 46.4992C82.3505 45.9669 83.032 67.3711 71.4471 68.8256C65.6058 69.1751 62.6335 64.4332 61.9036 59.241C61.0741 53.3415 63.7488 47.4063 70.0935 46.4992Z" fill="#F6F6F6"/>
<path d="M69.598 47.942C71.8126 47.8176 73.3601 48.6062 74.4195 50.6487C76.178 54.0389 76.089 58.9691 75.2576 62.6446C74.8257 64.5536 73.4087 66.0925 71.7534 67.0125C71.6778 67.037 71.6017 67.0606 71.5255 67.0834C68.8908 67.869 67.1389 65.6454 66.5226 63.3717C65.5198 59.6718 64.9597 49.2531 69.598 47.942Z" fill="#181818"/>
<path d="M19.6085 8.67461C20.9522 8.46858 24.3833 8.70515 25.7343 8.85924L25.7427 20.82C25.739 23.4131 25.8615 26.5129 25.4083 29.0436C24.93 31.716 22.044 33.7567 20.288 35.6003C19.1085 36.8386 16.7418 38.4407 16.0573 35.8521C15.8816 35.2 16.3486 34.5109 16.7635 33.9908C17.8027 32.7439 22.3324 28.2761 22.504 27.3099C21.9893 26.5842 19.4325 26.8688 18.1633 26.6018C17.1357 26.3819 16.1681 25.9424 15.3266 25.3132C13.6439 24.0739 12.6509 22.4285 12.3684 20.3533C11.6299 14.9307 13.5923 9.51239 19.6085 8.67461Z" fill="#F6F6F6"/>
<path d="M19.9596 10.8951C20.8558 10.8935 21.3431 10.918 22.2302 11.0304C22.6378 13.1759 22.4648 20.3375 22.4434 22.6795C21.1899 22.7283 19.8749 22.6707 18.6161 22.6347C18.2466 22.6057 17.5082 22.5624 17.2452 22.3239C16.4114 21.5678 16.1672 19.9529 16.0845 18.9113C15.9123 16.7438 16.0096 13.8084 17.481 12.058C18.2368 11.1588 18.886 10.9867 19.9596 10.8951Z" fill="#181818"/>
<path d="M34.9473 46.6051C39.7947 46.3971 45.4315 46.8989 44.8014 53.5439C44.6104 55.5579 43.1472 57.2987 41.5741 58.4948C44.2752 61.975 44.5092 66.0713 46.6852 68.673C45.3775 68.6537 44.0701 68.6149 42.7636 68.5568C41.1711 66.3776 40.7662 64.3943 39.871 61.9108C38.5019 58.5121 38.0059 58.9566 34.6677 58.8206C34.6249 60.9771 34.4834 65.4663 35.0417 67.6249C35.121 67.9315 35.5939 68.0049 35.8343 68.2986C35.2102 68.5213 31.0896 68.4373 30.2422 68.4002C31.827 65.616 31.4288 60.8152 31.4413 57.6149C31.4539 54.4059 31.4835 50.939 31.3506 47.7388C30.6628 47.5326 29.9695 47.1941 29.313 46.8943C30.7398 46.6312 33.3824 46.6574 34.9473 46.6051Z" fill="#F6F6F6"/>
<path d="M34.5425 47.8868C36.1039 47.9343 38.4553 47.8705 39.6882 48.8856C41.6954 50.5382 41.8362 54.125 40.2663 56.0953C38.7578 57.4127 36.7251 57.1658 34.7278 57.2108C34.7056 54.1382 34.7293 50.9474 34.5425 47.8868Z" fill="#181818"/>
<path d="M162.112 46.6048C163.671 46.5641 165.524 46.5331 167.018 47.0803C170.153 48.2289 171.463 51.7062 170.307 54.752C169.701 56.3487 168.549 57.5803 166.981 58.2738C167.81 59.3918 168.239 60.0565 168.894 61.3272C170.297 64.0515 170.627 66.4621 173.01 68.5113L168.494 68.459C168.052 67.0404 167.171 64.8905 166.614 63.5225C166.069 62.065 165.116 60.2544 164.195 59.0026C163.106 58.911 161.783 58.9137 160.672 58.8911C160.631 61.3481 160.44 66.1323 161.049 68.3017C159.607 68.2592 158.252 68.2595 156.799 68.1734C157.043 67.4375 157.226 66.6302 157.269 65.8546C157.536 61.1586 157.364 56.4353 157.379 51.7333C157.385 50.075 157.36 48.4101 157.211 46.758C158.791 46.7874 160.522 46.6763 162.112 46.6048Z" fill="#F6F6F6"/>
<path d="M160.602 47.9446C162.224 47.904 164.538 47.6757 165.825 48.8164C167.751 50.5247 167.825 54.164 166.191 56.0694C164.779 57.2491 162.539 57.18 160.705 57.3124C160.629 54.1904 160.595 51.0675 160.602 47.9446Z" fill="#181818"/>
<path d="M101.55 0.0229668C102.961 0.00877903 104.372 0.0370282 105.782 0.107693C105.858 3.16055 105.546 20.6947 106.472 22.3208C107.913 23.267 114.044 22.5655 115.906 22.2719C116.064 20.326 116.024 17.9321 116.029 15.9526C116.034 13.603 116.105 10.7078 115.782 8.4193C117.159 8.38549 118.537 8.40298 119.914 8.47197L119.973 12.1613C120.002 15.4494 120.114 18.8369 119.708 22.0973C119.377 24.7559 116.992 26.6561 114.355 26.6293C112.086 26.6076 108.863 27.0122 106.697 26.3648C104.215 25.6235 101.962 21.6773 101.883 19.2121C101.673 12.7682 101.92 6.47462 101.55 0.0229668Z" fill="#F6F6F6"/>
<path d="M5.42072 46.7102C5.82887 46.6934 6.23711 46.6827 6.64546 46.6782C11.4461 46.6536 14.2234 49.0276 14.2455 53.8922C14.2591 56.8764 12.3464 58.4453 9.74145 59.5113C8.0641 60.1977 6.18463 60.0622 4.42656 60.0423C4.38926 62.1448 4.39421 64.2479 4.44142 66.3501L4.56503 67.2878C4.91416 67.6852 5.24527 67.9664 5.64055 68.3148C5.46235 68.3414 5.28352 68.3636 5.10427 68.3814C4.2217 68.4756 0.613855 68.668 0 68.1713C0.00795627 67.6163 0.925846 67.3873 0.937849 66.3112C1.00503 60.2892 1.31272 54.1898 1.13618 48.1694C0.691267 47.9738 0.249331 47.8807 0.165142 47.3703C0.644046 46.7541 4.49242 46.7554 5.42072 46.7102Z" fill="#F6F6F6"/>
<path d="M4.30543 48.0541C8.44406 47.9947 10.3277 48.5082 10.8159 53.2928C10.9745 54.847 10.9203 56.1902 9.86091 57.4337C8.25205 58.7828 6.49946 58.5185 4.46477 58.3682C4.42419 54.9572 4.29879 51.4511 4.30543 48.0541Z" fill="#181818"/>
<path d="M105.539 46.3865C106.808 46.2989 108.157 50.8909 108.665 52.0776C110.574 56.5354 111.463 61.3312 112.929 65.9241C113.125 66.5375 114.402 67.7693 114.872 68.3118C113.273 68.5375 110.99 68.4645 109.324 68.4483C109.388 65.9115 109.327 64.3848 108.549 61.9415C107.794 61.8268 106.814 61.8315 106.032 61.8133L100.937 61.8099C100.616 63.5251 100.019 65.8496 100.377 67.5975C100.418 67.798 100.775 68.2608 100.915 68.4416C99.6909 68.5093 98.3175 68.5128 97.0803 68.5426C97.9657 66.7719 98.5307 64.7149 99.1914 62.8378C99.7046 61.0623 100.626 59.1735 101.08 57.3989C101.98 53.8778 103.279 50.2771 103.663 46.6664C104.335 46.5051 104.849 46.4579 105.539 46.3865Z" fill="#F6F6F6"/>
<path d="M104.14 50.6308C104.785 52.0063 105.463 53.5286 105.982 54.9529C106.567 56.5549 107.026 58.1939 107.658 59.7867L105.149 59.8473C104.016 59.8823 102.883 59.9026 101.75 59.9083C102.711 57.2548 104.102 53.4021 104.14 50.6308Z" fill="#181818"/>
<path d="M84.0902 46.8161L85.0744 46.785C86.7861 49.9752 88.4957 52.8049 90.3109 55.9115C91.8643 58.5698 92.7974 60.8582 94.7261 63.4439C94.5698 61.8913 94.775 59.2638 94.809 57.6109C94.8572 54.5717 94.8273 51.5318 94.7192 48.4942C94.2127 48.4169 93.5007 48.3909 93.193 48.0168C93.1233 47.6911 93.0492 47.472 93.1311 47.1493C93.7016 46.8264 96.3643 46.978 97.0789 47.0776C96.095 48.8383 96.3529 49.767 96.3072 51.7283C96.2505 53.9411 96.2227 56.1545 96.2237 58.368C96.2105 61.8243 95.9985 65.1134 96.2371 68.5577C95.4857 68.5095 94.6673 68.4948 93.9095 68.4662C93.5737 68.3431 92.0448 65.371 91.7454 64.8552C90.669 63.0539 89.5934 61.212 88.4748 59.4376C87.0528 57.1821 85.7577 54.2531 83.8701 52.3897C83.9569 53.832 83.9934 55.2769 83.9796 56.7218C83.9208 60.0949 83.4836 65.2345 84.5994 68.2956C83.3593 68.4251 81.8566 68.3886 80.615 68.352C81.1325 67.5473 81.4823 66.8973 81.6422 65.9306C82.2631 62.1785 82.2054 58.1526 82.2139 54.3599C82.2189 52.1255 82.3354 49.8736 82.2755 47.6821C81.8789 47.9658 81.7487 48.1705 81.3052 47.9442C81.1087 47.6083 81.0934 47.3252 81.3244 46.9983C81.9182 46.82 83.3726 46.8416 84.0902 46.8161Z" fill="#F6F6F6"/>
<path d="M130.397 46.3919C133.456 46.2844 135.956 47.053 136.96 50.2563C137.22 51.0853 136.738 52.6199 135.856 52.8044C135.24 52.5271 135.302 51.5622 135 50.9277C133.579 47.9545 130.156 46.9514 127.464 48.9579C125.84 50.1686 125.145 53.4343 124.97 55.4013C124.63 59.4918 124.743 66.8327 130.096 67.4229C134.55 67.9143 133.891 63.3262 134.144 60.355C133.82 60.269 133.362 60.0652 133.04 59.9334C132.541 59.7447 132.665 58.3997 132.667 57.9194C134.248 57.7986 136.268 57.8933 137.873 57.952C136.858 60.3629 137.187 64.3927 136.998 67.2677C134.899 67.6558 133.344 68.7744 131.16 69.0027C121.389 70.024 118.086 55.3515 124.097 49.5114C126.097 47.569 127.576 46.5562 130.397 46.3919Z" fill="#F6F6F6"/>
<path d="M52.2911 46.4979C53.3464 46.377 54.2911 46.5116 55.3098 46.5527C57.9584 46.6596 60.4338 47.8592 60.1149 50.9083C60.0645 51.3901 59.9881 51.9729 59.5787 52.3046C59.0443 52.3248 58.7294 51.9746 58.4744 51.5361C57.1313 49.2266 55.5617 47.5094 52.6551 47.8578C50.1268 48.161 49.7155 51.0126 50.8518 52.8352C51.7635 53.9092 53.2824 54.7075 54.6172 55.2637C59.2868 57.2091 62.5994 60.296 60.369 65.6562C59.6276 67.4382 56.7036 68.6921 54.723 68.9748C52.7041 69.0591 49.3758 68.5063 47.755 67.11C47.1247 66.567 47.5232 62.5409 47.5866 61.6349C49.2292 64.7821 50.5804 68.1485 54.9453 67.2918C56.8613 66.9156 58.1471 65.0724 57.5826 63.1644C56.5903 60.2892 52.9773 59.4366 50.4296 57.9924C47.6232 56.4016 46.5336 52.1835 48.0101 49.3829C48.7632 47.9542 50.6674 46.8886 52.2911 46.4979Z" fill="#F6F6F6"/>
<path d="M195.755 46.3909C197.449 46.294 199.156 46.3547 200.574 47.384C201.818 48.2708 202.776 49.6997 202.372 51.2873C202.214 51.9064 201.939 52.2282 201.563 52.7311C201.104 51.777 200.537 50.4829 199.872 49.6881C198.984 48.6416 197.718 47.9888 196.35 47.8727C192.915 47.5665 192.249 51.0362 193.516 52.8247C195.58 55.134 200.04 55.9292 201.924 58.4892C205.564 63.4342 202.597 69.5304 196.127 69.0114C194.604 68.7935 192.192 67.8861 190.72 67.3641C189.245 66.8408 190.616 62.8128 191.119 61.8442C191.613 63.3843 192.105 64.8321 193.326 65.9739C194.368 66.9554 195.797 67.36 197.21 67.3107C199.335 67.2365 200.859 65.8044 200.687 63.6201C200.51 61.3752 197.654 60.5142 195.994 59.611C194.653 58.9242 193.183 58.2242 192.038 57.2419C189.389 54.9683 189.258 50.7582 191.712 48.2684C193.08 46.8794 193.818 46.5073 195.755 46.3909Z" fill="#F6F6F6"/>
<path d="M20.0065 46.6047C22.1758 46.4854 25.9615 46.3555 28.072 46.8531C29.0577 47.0856 29.43 50.4141 28.1516 50.9174C27.5788 50.8407 26.4629 48.4727 25.1184 48.164C23.238 47.7323 21.5749 47.8946 19.6816 47.9443C19.4926 50.1066 19.6346 54.4783 19.6941 56.7475C22.14 56.7504 24.4947 56.5484 26.9201 56.2707C26.8816 57.8973 26.808 59.0397 26.4088 60.6234C26.1034 60.0117 25.8553 59.1908 25.6343 58.5298C24.0128 58.255 21.301 58.358 19.5934 58.3853C19.5287 59.8508 19.5739 61.5593 19.5789 63.0426C19.5798 64.14 19.5501 65.8323 19.726 66.8662C21.9697 66.9825 24.2177 66.9838 26.4615 66.87C27.6045 66.0383 27.7153 64.5151 28.5534 64.1595C29.4763 64.4691 28.6126 68.0046 28.4012 68.7047C26.0232 69.1383 18.7624 68.6072 15.9663 68.4737C16.1874 67.8756 16.379 67.2174 16.4018 66.5752C16.5788 61.6008 16.4295 56.6006 16.4022 51.6222C16.3936 50.0659 16.3526 48.3234 16.1317 46.7939C17.4229 46.7228 18.7145 46.6598 20.0065 46.6047Z" fill="#F6F6F6"/>
<path d="M151.525 46.8864C152.689 46.7861 153.702 46.7737 154.873 46.7614C154.47 48.5418 154.503 49.7709 154.507 51.5725C154.497 53.0206 154.554 54.513 154.494 55.9541C154.304 60.521 155.375 65.1523 150.866 67.9702C149.315 68.9539 147.433 69.2724 145.643 68.854C144.52 68.5921 143.55 68.0086 142.716 67.2233C139.798 64.4792 140.206 60.7633 140.173 57.0996L140.068 50.9922C140.06 50.2241 140.165 48.8851 139.988 48.1346C139.905 47.7882 139.144 48.0006 138.819 47.4733C138.943 46.6749 142.819 46.8379 143.608 46.8223C143.618 46.8378 143.706 46.974 143.706 46.974C143.508 49.9424 143.54 52.9221 143.554 55.8945C143.564 57.9117 143.563 59.9251 143.638 61.9415C143.695 63.4961 143.88 64.8283 145.046 65.9708C145.782 66.7019 146.78 67.1089 147.818 67.1017C149.844 67.0745 152.126 65.2993 152.533 63.3415C152.897 61.5922 152.783 59.2125 152.772 57.4122C152.752 54.4462 152.712 51.4804 152.652 48.515C152.285 48.4168 152.044 48.3792 151.755 48.1266C151.52 47.8007 151.547 47.3027 151.525 46.8864Z" fill="#F6F6F6"/>
<path d="M186.09 48.0028C185.596 47.9158 185.238 47.8814 184.969 47.4286C185.165 46.5178 188.085 46.5543 188.373 46.9251L188.25 47.5842C187.998 48.9966 187.97 50.9749 187.917 52.4379C187.825 54.5889 187.762 56.7411 187.729 58.8938C187.713 60.2041 187.769 62.0348 187.56 63.2884C187.271 65.1145 186.252 66.7452 184.738 67.8068C183.048 68.9993 181.147 69.1464 179.146 68.827C177.451 68.5443 175.765 67.624 174.793 66.1782C173.111 63.6806 173.337 60.3548 173.315 57.4787C173.302 54.8531 173.307 52.2236 173.255 49.5985C173.242 48.9002 173.179 48.1304 172.93 47.4776C172.849 47.2694 172.763 47.1334 172.805 46.9025L173.079 46.8134C174.361 46.7933 175.642 46.7911 176.922 46.8065C176.562 49.5418 176.636 53.0501 176.663 55.8688C176.683 57.8682 176.563 62.828 177.202 64.5367C178.709 68.5636 185.336 67.6535 186.092 63.3176C186.487 61.0455 186.34 58.5561 186.289 56.2048L186.09 48.0028Z" fill="#F6F6F6"/>
<path d="M6.47325 9.01608C7.88241 9.08181 9.35015 9.10551 10.7649 9.14869C10.4796 12.846 10.7273 16.4239 10.6449 20.0683C10.5434 24.555 10.9389 29.4434 7.44792 32.8279C6.1158 34.1192 4.72551 35.1409 3.37694 36.4817C3.07152 36.7678 2.65572 37.1057 2.33142 37.3847C1.0578 36.6424 0.747122 36.276 0.020752 34.9899C0.917787 34.0127 1.80991 33.1017 2.75219 32.1766C3.74863 31.1378 6.06416 29.5738 6.26945 28.0996C6.67168 25.212 6.59381 21.8264 6.57168 18.9068C6.5467 15.6184 6.623 12.2754 6.47325 9.01608Z" fill="#F6F6F6"/>
<path d="M32.4415 9.20409C33.7475 9.143 35.056 9.16891 36.3586 9.28151C36.6916 14.2674 36.6129 19.7606 36.5143 24.7725C36.3948 30.8411 33.4148 32.6438 29.2647 36.3839C28.8653 36.7227 28.5395 37.0689 28.003 37.1714C27.4009 37.2954 26.8467 37.0739 26.6243 36.4772C26.0509 34.9479 27.2985 33.5244 28.3526 32.5873C29.9748 31.1446 32.0207 29.7303 32.4481 27.4534C32.6629 26.3097 32.6898 25.2436 32.6839 24.0951C32.6766 22.6896 32.7107 21.2794 32.6863 19.8775C32.6244 16.3226 32.8156 12.743 32.4415 9.20409Z" fill="#F6F6F6"/>
<path d="M80.3052 30.7899C83.3332 30.6061 83.62 34.7867 81.0649 35.3304C78.3688 35.2856 77.2068 31.7378 80.3052 30.7899Z" fill="#F6F6F6"/>
<path d="M198.08 30.6765C201.582 30.3869 201.786 34.2175 199.998 35.1646C199.841 35.1729 199.468 35.1593 199.343 35.1813C196.567 35.6719 196.212 31.7727 198.08 30.6765Z" fill="#F6F6F6"/>
<path d="M7.63285 0.0231494C7.99873 -0.000454652 8.69509 -0.0496324 8.99827 0.148311C10.729 1.27823 10.2831 3.83661 8.38084 4.48255C7.23114 4.54854 6.36606 4.32988 6.00102 3.12039C5.50942 1.49136 6.14213 0.487995 7.63285 0.0231494Z" fill="#F6F6F6"/>
<path d="M187.237 30.8785C189.993 30.5986 190.507 35.0143 188.058 35.2477C186.977 35.202 186.142 34.9672 185.689 33.8481C185.452 33.2739 185.464 32.6272 185.72 32.0615C186.054 31.3257 186.543 31.1508 187.237 30.8785Z" fill="#F6F6F6"/>
<path d="M181.457 30.7744C184.569 30.5352 184.427 34.7714 182.5 35.1575C180.392 35.1233 179.459 34.876 180.118 32.2746C180.314 31.499 180.757 31.1198 181.457 30.7744Z" fill="#F6F6F6"/>
<path d="M115.456 0.123704C116.511 0.0393045 117.375 0.339659 117.562 1.46563C117.807 2.93335 117.315 4.21377 115.819 4.53647C114.813 4.46867 114.105 4.02051 113.783 3.03131C113.572 2.39603 113.625 1.70207 113.933 1.10699C114.273 0.452508 114.801 0.335498 115.456 0.123704Z" fill="#F6F6F6"/>
</svg>
