<svg width="106" height="124" viewBox="0 0 106 124" fill="none" xmlns="http://www.w3.org/2000/svg">
<path d="M26.5448 0.210157C37.0757 -0.213915 50.0362 0.134791 60.7215 0.13589L72.7375 0.140285C75.1352 0.142263 77.7051 -0.0346185 80.0753 0.329468C82.1044 0.64148 100.773 11.9904 101.905 13.5581C103.349 15.5589 103.835 18.8326 104.298 21.1991C106.816 34.0711 106.32 46.5949 104.167 59.4658C101.298 76.6194 93.5485 94.3937 80.8179 106.511C77.7855 109.397 74.3125 111.763 70.9129 114.187C66.6487 116.912 57.8541 121.964 53.1025 123.371C41.8945 120.695 26.6817 109.666 19.7061 100.494C5.64642 82.0058 -1.83439 57.327 0.385946 34.0645C0.723666 30.5269 2.14903 15.9991 4.79103 12.672C8.92716 10.3918 23.0092 0.746729 26.5448 0.210157Z" fill="black"/>
<path d="M5.90261 68.0341C4.09207 63.6382 3.15252 58.4197 2.56321 53.7202C1.18838 42.7601 1.92688 31.846 4.04504 21.0322C4.44033 19.0138 4.80288 15.9308 6.11553 14.314C7.2959 12.8601 24.422 2.63073 26.478 2.40309C28.7375 2.15282 31.1492 2.31036 33.4231 2.30948L46.4881 2.3119L69.6758 2.29916C71.052 2.29718 79.3075 2.1983 79.927 2.4857C86.2375 5.41356 93.4223 10.1827 99.2743 13.7728C102.212 15.5748 103.648 28.2636 103.959 31.8504C98.1199 33.6724 91.0095 36.5682 85.2013 38.7525C85.1369 37.6787 84.8772 36.2023 84.7183 35.1087C81.616 35.1107 78.259 34.3766 75.1554 34.0701C69.21 33.483 62.6795 32.4465 56.7636 32.1492C56.7759 31.3119 56.8812 30.4138 56.4566 29.7103C55.8557 29.1306 55.6863 29.0775 54.8691 28.9786C54.9355 28.4903 56.8719 26.4599 57.349 25.9195C55.9603 24.5625 54.5433 23.2347 53.0992 21.9366C51.5187 23.0018 49.9536 24.5179 48.5318 25.818C49.1266 26.459 50.9204 28.2596 51.1439 28.9291C50.3436 29.1618 50.2195 29.2638 49.5467 29.727C49.0716 30.3119 49.2312 31.3584 49.258 32.1578C40.9888 32.2494 29.9787 34.5638 21.5592 35.087C19.053 44.9459 16.2447 54.8705 13.6242 64.7081C13.4696 65.2886 12.7434 65.484 12.2406 65.7221C10.9785 66.1097 7.47344 67.3321 6.28911 67.9361L5.90261 68.0341Z" fill="white"/>
<path d="M72.0421 9.66589C72.1785 9.7116 72.3925 9.86298 72.5246 9.9467C72.4721 12.2855 72.1744 14.989 72.0504 17.4088C73.8168 17.6609 75.6502 18.1295 77.3821 18.5565C77.9824 17.2153 78.526 15.5354 80.2049 15.5528C80.284 15.7752 79.3533 17.9087 79.1397 18.8019C80.7134 19.2132 83.1055 20.1627 84.6953 20.7414C85.1362 19.7305 85.8112 18.1781 87.0013 17.9129L87.2118 18.2882C87.2063 19.193 86.5069 20.2912 86.0664 21.1295C87.0457 21.5474 89.0428 22.1424 90.1225 22.499L91.3097 17.9825C91.5604 17.0037 91.7781 15.9604 92.6628 15.3832L93.042 15.5139C94.2092 18.0243 91.4215 22.6737 89.9803 24.702C83.7996 22.0453 77.4623 20.2653 70.8487 19.0284C70.6398 17.6791 70.6248 15.4772 70.7428 14.0677C70.8927 12.276 70.7424 10.8487 72.0421 9.66589Z" fill="black"/>
<path d="M41.8371 8.10388C42.2133 8.17134 42.7226 8.25461 42.992 8.5185C44.3163 9.81511 44.7164 15.8813 44.7061 17.6284C39.5278 18.4251 36.0838 18.956 30.9418 19.9175C30.3701 17.7668 25.8435 11.2644 29.2839 10.8623L29.5419 11.1994C30.0101 13.7027 30.8001 15.4674 31.7603 17.7899C32.7139 17.6332 36.1664 17.2786 36.6542 16.7497L36.4787 16.3164C35.5015 15.6313 35.8973 15.7963 34.4653 15.9694L34.2355 15.7159L34.3161 15.0031C35.9474 12.2996 40.8561 13.2165 40.452 15.0655L39.5887 15.5524L39.6109 15.8169C40.5832 16.1142 42.2726 15.965 43.3451 15.9286C42.6446 13.4716 41.5489 10.5855 41.8371 8.10388Z" fill="black"/>
<path d="M24.3681 15.6906C26.9578 15.6642 28.8657 18.7079 27.0993 20.7487C26.5118 21.4277 25.242 21.1987 24.3861 21.1271C23.3257 21.7568 19.1637 24.0112 18.1281 24.0558C17.882 23.7187 17.6612 23.4474 17.3942 23.1268C16.654 23.1066 16.7601 23.1771 16.2288 23.795C15.01 25.2124 13.8316 25.328 11.9962 25.4939C11.2456 21.8385 13.4216 21.5204 14.4413 17.1298C15.8814 18.7057 16.5681 20.3982 18.1308 21.9565C19.6899 21.6092 20.9143 21.1805 22.2963 20.387C22.7501 18.8153 23.2012 16.842 24.3681 15.6906Z" fill="black"/>
<path d="M14.923 20.6986C15.5009 21.1238 16.0049 21.5217 16.1422 22.1545C15.7408 22.7078 14.8718 22.7904 14.1702 22.9506C13.7819 23.1125 13.6198 23.0906 13.208 23.1035L13.0981 22.7988C13.4701 22.0334 14.3005 21.3121 14.923 20.6986Z" fill="#F0F0F1"/>
<path d="M59.5619 10.1765C60.3347 10.6028 60.4762 14.5526 60.5395 15.484C61.6726 15.6321 66.0089 16.1586 66.9403 16.0078C67.2521 14.9553 66.2686 15.0298 66.4471 13.8886C67.1232 13.5436 67.2607 13.4555 67.8056 12.9165L67.9342 12.7882L68.193 12.8378C68.1743 14.7963 68.897 16.3636 67.9643 17.9876C67.1649 18.5314 67.1065 18.3391 65.9454 18.3424C64.0716 17.9766 61.1807 18.139 59.7072 17.2642C59.576 17.1864 59.5764 16.7189 59.5514 16.4956C58.8215 15.5785 57.1542 16.948 56.3744 16.8061C55.4049 16.6297 53.9853 16.195 53.02 15.9197C55.1013 12.4841 57.1072 12.659 59.5619 10.1765Z" fill="black"/>
<path d="M57.6232 13.2565C57.8663 13.2769 58.1706 13.3701 58.4149 13.432C58.9574 13.9989 59.3345 14.3037 58.8357 15.0134L58.1229 15.0426C57.2901 15.0149 56.6644 15.1211 56.1089 14.6348C56.3899 14.004 57.0284 13.6729 57.6232 13.2565Z" fill="#F0F0F1"/>
<path d="M96.6315 18.041C96.8985 18.2287 96.8659 18.2383 97.0679 18.5101C96.913 20.9155 95.0802 24.3164 93.391 26.0602L93.1655 26.0173L93.0293 25.6482C93.4512 23.3226 94.6548 19.4635 96.6315 18.041Z" fill="black"/>
<path d="M46.4716 8.96259C46.9644 9.1454 47.2336 9.13946 47.4021 9.62924C48.2935 12.2203 48.9953 14.6342 48.1742 17.219L47.7438 17.4038L47.403 17.0514C46.6941 14.6805 46.125 11.4231 46.4716 8.96259Z" fill="black"/>
<path d="M54.4283 7.31042C55.3079 7.37217 56.06 8.08408 56.1659 8.07925C57.16 8.03508 57.7189 7.48335 58.6741 7.94917C58.9982 8.60022 58.9248 8.86674 58.8571 9.57163C57.597 9.54196 54.4327 9.83398 53.8491 8.77116C53.9036 8.01442 54.0089 7.90215 54.4283 7.31042Z" fill="black"/>
<path d="M12.1358 16.132C12.6495 16.1716 12.673 16.2171 13.1061 16.5313L13.0698 16.934C12.4702 17.6213 10.3312 18.433 9.37207 18.8474L8.68608 18.8806L8.45361 18.5879C8.8946 17.5275 11.0725 16.6468 12.1358 16.132Z" fill="black"/>
<path d="M72.3091 21.4463C73.3091 21.374 76.3784 21.6076 77.18 22.2745C77.4946 22.5364 77.4078 22.6878 77.4667 23.1751C76.4292 23.2193 73.6703 22.7779 72.6723 22.2978C72.3853 22.1598 72.4053 21.8438 72.3091 21.4463Z" fill="black"/>
<path d="M63.7686 18.8652C65.0248 19.4811 65.2274 20.228 64.8442 21.5439C63.9301 21.4861 63.8844 21.4343 63.4537 20.7103C63.392 19.8703 63.5021 19.6558 63.7686 18.8652Z" fill="black"/>
<path d="M85.1581 13.8517C85.8474 13.9264 87.108 14.3957 87.502 14.965L87.2506 15.3287C86.4484 15.5161 85.9292 15.6679 85.21 15.283C84.88 14.5375 84.972 14.769 85.1581 13.8517Z" fill="black"/>
<path d="M100.062 68.8569C98.6662 74.6111 97.0822 77.8857 94.803 83.0792C89.178 95.8963 80.3681 106.154 68.4923 113.574C64.0011 116.381 57.9434 119.822 52.8482 121.122C43.7436 118.29 33.8636 112.379 27.0371 105.746C24.5355 103.316 22.598 100.645 20.3183 98.2104L19.9694 97.5236C18.1494 95.88 11.9054 85.4825 12.3168 83.5958C13.5692 83.0405 17.3173 84.8732 18.7772 85.1743C26.7293 86.8143 31.9808 83.5771 34.0189 75.8144C38.7639 73.7742 44.4175 72.377 48.5932 70.4965C48.4985 75.1354 47.7699 82.1917 47.2025 87.0046C47.0199 87.2241 46.8657 87.4098 46.7396 87.5616C46.8228 87.7925 46.8762 88.0013 47.0103 88.2008C48.2522 91.8258 44.7974 102.725 46.9874 106.791C47.8918 108.47 51.4589 111.888 52.944 113.351C54.5583 111.685 58.0581 108.451 59.1056 106.576C60.133 104.736 59.1673 100.544 59.2016 98.3304L58.5319 98.3047C58.545 97.5198 58.4688 96.4739 58.4347 95.6686C58.8819 94.6375 58.6171 92.4824 58.7529 90.988C58.7793 88.5328 58.7184 86.5306 58.3387 84.1031L57.9729 83.2517C60.7531 81.7413 68.5217 79.7387 72.183 78.145C72.6376 78.8442 72.3808 78.6541 73.1283 78.8936C74.6475 81.9997 76.0794 83.6902 79.4674 84.8174C85.6931 86.8888 93.1318 84.6636 95.2748 77.9461C95.396 77.5596 95.5072 77.1703 95.6083 76.7781C94.8432 74.8884 94.2445 72.7962 93.6417 70.8378C95.7527 70.0861 97.8948 69.4251 100.062 68.8569Z" fill="white"/>
<path d="M34.0189 75.8144C38.7639 73.7742 44.4175 72.377 48.5932 70.4966C48.4985 75.1354 47.7699 82.1917 47.2025 87.0046C47.0199 87.2241 46.8657 87.4098 46.7396 87.5616C46.8228 87.7926 46.8762 88.0013 47.0103 88.2008C43.7104 89.6156 40.4785 90.622 37.114 91.829C33.3411 93.2229 29.5769 94.6397 25.8214 96.0793C24.7368 96.4889 20.9854 97.7323 20.3183 98.2105L19.9694 97.5236C18.1494 95.8801 11.9054 85.4826 12.3168 83.5958C13.5692 83.0405 17.3173 84.8733 18.7772 85.1743C26.7293 86.8144 31.9808 83.5771 34.0189 75.8144Z" fill="#BEB8B8"/>
<path d="M19.9692 97.5236C20.5755 97.0995 45.412 87.7213 46.7394 87.5616C46.8227 87.7925 46.8761 88.0013 47.0101 88.2008C43.7103 89.6156 40.4783 90.6219 37.1138 91.8289C33.3409 93.2228 29.5768 94.6396 25.8212 96.0793C24.7367 96.4889 20.9853 97.7323 20.3182 98.2104L19.9692 97.5236Z" fill="#0D0809"/>
<path d="M72.1833 78.145C72.6379 78.8442 72.3811 78.6541 73.1286 78.8936C71.5397 79.1558 59.5727 83.3567 58.339 84.1031L57.9731 83.2517C60.7533 81.7413 68.522 79.7387 72.1833 78.145Z" fill="#0D0809"/>
<path d="M58.7527 90.988C58.8947 92.0774 59.2669 97.2957 59.2014 98.3304L58.5317 98.3047C58.5449 97.5199 58.4686 96.474 58.4346 95.6687C58.8817 94.6375 58.6169 92.4824 58.7527 90.988Z" fill="#0D0809"/>
<path d="M22.7832 35.954C26.4546 36.5429 30.8041 36.8877 34.6335 37.4212C38.9124 38.0173 46.1355 39.4277 50.265 39.5367C50.1112 43.6449 49.8392 47.7052 49.6753 51.7884C42.8126 54.0716 35.6115 57.2631 28.7881 59.4336C27.6095 54.7976 26.5262 50.5938 25.2263 45.9799L24.3426 46.4495C23.8897 45.0041 23.5197 41.9972 22.7318 41.1963C22.4435 40.3332 22.9423 39.5253 23.3358 38.7865C23.1771 37.8861 23.0189 36.8244 22.7832 35.954Z" fill="white"/>
<path d="M23.3358 38.7865C24.0848 40.1134 24.8244 44.2326 25.2263 45.9799L24.3426 46.4495C23.8897 45.0041 23.5197 41.9971 22.7318 41.1962C22.4435 40.3331 22.9423 39.5252 23.3358 38.7865Z" fill="#0D0809"/>
<path d="M81.1284 41.2114C81.5707 41.2433 81.3725 41.1747 81.7412 41.4327C80.44 47.2816 78.5587 52.7302 77.4978 58.6852C71.315 60.8433 63.1018 63.9914 56.9833 66.4261C56.7104 61.0705 56.5153 55.8408 56.0815 50.4753C57.7315 49.8851 59.4713 49.2251 61.0816 48.5285C67.6328 45.6943 74.4285 43.6818 81.1284 41.2114Z" fill="#DEDEDE"/>
<path d="M29.5742 60.1644C31.7044 59.2011 35.0416 58.0723 37.3319 57.2697C41.1175 55.943 45.6799 53.6919 49.5309 53.065C49.2566 58.4371 49.2061 64.1746 48.5403 69.4562C46.509 70.2751 44.4134 71.0885 42.3904 71.8644C40.1178 72.736 35.1845 73.9217 33.4425 75.269C33.0206 75.4567 32.3263 75.8012 31.8991 75.8722C31.0147 72.6136 30.2176 68.9123 29.4268 65.5991L29.6348 65.409C29.3492 64.6358 29.4334 64.4679 29.6487 63.6804L29.6722 63.979C29.8946 63.7795 29.96 63.2333 30.0466 62.8806C29.7686 61.7901 29.6821 61.2848 29.5742 60.1644Z" fill="#DEDEDE"/>
<path d="M30.0466 62.8806C30.9789 66.5336 32.1259 71.8639 33.4425 75.269C33.0206 75.4567 32.3263 75.8012 31.8991 75.8722C31.0147 72.6136 30.2176 68.9123 29.4268 65.5991L29.6348 65.409C29.3492 64.6358 29.4334 64.4679 29.6487 63.6804L29.6722 63.979C29.8946 63.7795 29.96 63.2333 30.0466 62.8806Z" fill="#051B0A"/>
<path d="M57.1445 67.4964C59.3772 66.2877 61.8651 65.5101 64.2542 64.6158C68.3306 63.0797 72.4237 61.5882 76.5325 60.1415C75.8457 64.3222 74.969 67.252 73.8049 71.353C73.2538 73.2945 72.2802 76.2894 72.1833 78.145C68.522 79.7387 60.7533 81.7413 57.9731 83.2517L57.1445 67.4964Z" fill="#BEB8B8"/>
<path d="M103.416 32.8774L103.887 32.9286C104.837 34.4964 104.054 46.9696 103.849 49.3736C101.058 49.8847 92.3782 53.243 89.7263 54.3036C89.5752 53.4764 89.3818 52.7642 89.1647 51.9521C88.8377 50.1196 85.3977 40.6498 85.9037 39.6419C88.1698 38.1909 93.0525 36.755 95.6609 35.749C98.0234 34.8381 101.041 33.5643 103.416 32.8774Z" fill="#DEDEDE"/>
<path d="M82.1814 36.2785C82.5205 36.1533 82.5829 36.2113 82.9344 36.3042C83.0803 36.9236 82.5205 38.9278 82.3559 39.757L56.5859 49.2655L56.3618 49.3158C55.8239 48.6287 55.6969 40.9758 55.6387 39.5056C64.2579 39.0304 73.0808 36.8285 82.1814 36.2785Z" fill="white"/>
<path d="M89.8306 55.064C94.1247 53.6051 99.4733 51.1788 103.66 50.2758C103.173 56.091 101.77 62.6396 100.078 68.2364C98.1233 68.5346 95.4283 69.3753 93.591 70.13C92.7945 66.626 92.0566 63.2563 91.0648 59.7956C90.9784 59.1028 90.0595 55.9201 89.8306 55.064Z" fill="#BEB8B8"/>
<path d="M83.1205 57.7443C83.228 57.899 83.2899 58.1556 83.3099 58.3369C83.4607 59.6935 83.4776 73.4576 83.0812 73.8507C82.048 74.875 78.3591 75.8864 76.908 76.1114C75.9579 76.2586 74.9023 76.1881 73.9401 76.176C73.6191 75.0501 77.6337 62.1017 78.0084 59.3072L83.1205 57.7443Z" fill="#BEB8B8"/>
<path d="M27.9628 59.9211L28.2151 60.8752C28.4454 62.083 28.9391 64.4767 29.4269 65.5991C30.2177 68.9124 31.0148 72.6136 31.8992 75.8722C30.0072 76.3299 24.8405 76.2347 22.7153 76.2433C22.7235 71.7385 22.8182 66.9049 22.6775 62.4258L22.6099 61.6609C24.2095 61.2105 26.5177 60.6082 27.9628 59.9211Z" fill="#DEDEDE"/>
<path d="M27.9628 59.9211L28.2151 60.8752C27.2878 61.2674 23.6206 62.4478 22.6775 62.4258L22.6099 61.6609C24.2095 61.2105 26.5177 60.6082 27.9628 59.9211Z" fill="#0D0809"/>
<path d="M88.8421 55.4743C89.3391 55.4178 89.3958 55.344 89.8304 55.0641C90.0594 55.9201 90.9783 59.1029 91.0646 59.7957L90.2734 60.8517C90.886 63.3021 92.4645 68.4564 92.5821 70.6737L92.8943 71.392C91.4342 72.0259 89.7102 72.5187 88.175 72.9951L87.112 72.5328L84.626 73.4515C84.7231 68.1616 84.637 62.6014 84.6339 57.291C86.1146 56.2475 87.1478 56.0843 88.8421 55.4743Z" fill="#BEB8B8"/>
<path d="M88.8423 55.4743C89.3393 55.4178 89.396 55.344 89.8306 55.0641C90.0596 55.9201 90.9785 59.1029 91.0648 59.7957L90.2736 60.8517C89.5417 58.9895 89.0194 57.4749 88.8423 55.4743Z" fill="#0D0809"/>
<path d="M87.1123 72.5328C88.9591 71.9841 90.7839 71.364 92.5824 70.6736L92.8946 71.3919C91.4346 72.0258 89.7106 72.5187 88.1753 72.9951L87.1123 72.5328Z" fill="#0D0809"/>
<path d="M20.8419 63.4233L21.1531 63.4849C21.5323 64.0709 21.3587 74.7026 21.3543 76.2413L12.3365 76.1829L12.1339 76.1255C11.8665 75.6518 14.0544 67.1101 14.2501 65.7568C16.1176 65.2165 19.1195 64.1792 20.8419 63.4233Z" fill="#DEDEDE"/>
<path d="M50.5378 92.3077C52.4746 92.1055 53.3503 92.1154 55.2764 92.3C56.816 93.6634 57.2636 93.9899 58.4352 95.6686C58.4692 96.4739 58.5455 97.5198 58.5323 98.3047C56.7499 100.96 55.2232 102.634 51.51 101.977C49.4734 101.617 48.3258 100.119 47.2832 98.4482C47.2392 97.522 47.3001 96.3091 47.3203 95.3608L50.5378 92.3077Z" fill="white"/>
<path d="M21.4018 39.0334C21.5967 42.2705 21.3992 46.5964 21.3412 49.929C21.4664 53.898 21.3827 58.1578 21.3697 62.1489L14.3745 64.783C15.3617 62.7795 15.7847 61.0643 16.3042 58.8943C17.448 54.1126 18.606 49.35 20.087 44.6602C20.4537 42.7686 20.8923 40.8917 21.4018 39.0334Z" fill="white"/>
<path d="M21.4018 39.0334C21.5967 42.2705 21.3991 46.5964 21.3411 49.929C20.801 48.5872 21.3321 45.9001 20.0869 44.6602C20.4536 42.7686 20.8922 40.8917 21.4018 39.0334Z" fill="#F0F0F1"/>
<path d="M6.28884 67.9361C7.47317 67.3321 10.9782 66.1098 12.2404 65.7222C12.5924 65.8635 12.9452 66.0025 13.2988 66.1399L13.2891 66.2994C12.4197 70.1745 11.7086 73.0052 10.4338 76.8049C11.176 79.4878 12.6288 81.0883 12.9077 82.1685C12.5963 82.5915 12.3524 82.7677 11.9609 83.0977C10.2206 82.4937 5.95112 70.1193 5.90234 68.0341L6.28884 67.9361Z" fill="#DEDEDE"/>
<path d="M6.28906 67.9361C7.47339 67.3321 10.9785 66.1098 12.2406 65.7222C12.5926 65.8635 12.9455 66.0025 13.299 66.1399L13.2893 66.2994C11.7897 66.4756 7.2251 68.8311 6.28906 67.9361Z" fill="#0D0809"/>
<path d="M22.732 41.1962C23.52 41.9971 23.89 45.0041 24.3428 46.4495C25.2584 49.5122 26.1141 52.5923 26.909 55.6885C27.1727 56.7039 27.6706 59.1534 27.9628 59.9211C26.5177 60.6082 24.2095 61.2105 22.6099 61.6609C22.7951 60.0351 22.7081 56.4178 22.7112 54.5879L22.732 41.1962Z" fill="white"/>
<path d="M51.9482 82.9931C58.4778 82.148 58.243 89.586 54.561 90.1766C52.0238 90.5912 49.2715 90.1234 48.7031 87.1439C48.5293 86.2631 48.7132 85.3494 49.2142 84.6044C50.0032 83.4418 50.6402 83.2653 51.9482 82.9931Z" fill="white"/>
<path d="M82.9307 40.715C83.6861 41.6559 83.3367 54.7294 83.2543 56.8676L78.8018 58.2984L78.6407 58.1714C78.4597 57.3789 82.4591 43.085 82.9307 40.715Z" fill="#DEDEDE"/>
<path d="M52.0365 73.5439C57.1295 72.9928 58.2013 78.1635 54.0107 79.622C50.6718 79.992 48.1383 77.953 50.1018 74.4127C50.4815 73.7278 51.271 73.6569 52.0365 73.5439Z" fill="white"/>
<path d="M92.894 71.392C93.4297 72.909 93.8204 74.607 94.2144 76.1787C92.2836 76.1994 85.4369 76.643 84.3486 75.3741C84.5367 73.9358 86.9566 73.3603 88.1747 72.9951C89.71 72.5187 91.4339 72.0259 92.894 71.392Z" fill="white"/>
<path d="M84.9442 40.9484C85.1659 41.1863 88.1571 53.3251 88.3634 54.4222C88.105 54.9983 88.2777 54.7986 87.5396 55.1214C87.4234 55.1403 87.3072 55.1594 87.1909 55.1783L87.0171 55.2128C85.9785 55.4123 85.6634 55.6639 84.7357 56.226C84.5219 52.0525 84.636 45.1067 84.9442 40.9484Z" fill="#DEDEDE"/>
<path d="M51.9833 65.6109C56.4691 65.2033 57.549 69.2751 53.7069 70.2008C50.9102 71.5745 47.4572 66.8141 51.9833 65.6109Z" fill="white"/>
<path d="M52.5258 103.806C55.1025 103.716 57.0154 106.361 53.5958 108.195C50.3709 108.338 49.2237 105.712 52.5258 103.806Z" fill="#F0F0F1"/>
<path d="M52.883 59.0365C53.8785 59.151 54.1317 59.372 54.7952 60.0237C55.41 61.7569 54.4595 62.1037 53.0557 62.7464C52.3347 62.5091 50.9592 62.1672 50.7149 61.3781C50.2181 59.7737 51.7399 59.3522 52.883 59.0365Z" fill="white"/>
</svg>
