<svg width="370" height="186" viewBox="0 0 370 186" fill="none" xmlns="http://www.w3.org/2000/svg">
<path d="M227.19 63.86L143 83.71V19.85L227.19 0V63.86Z" fill="#CBCBCB"/>
<path d="M199.07 12.72C201.16 15.72 202.29 19.28 202.29 22.93V58.68L218.1 54.86V17.32L199.07 12.72Z" fill="white"/>
<path d="M174.59 25.23C176.68 28.22 177.81 31.78 177.81 35.44V64.59L193.62 60.77V29.83L174.59 25.23Z" fill="white"/>
<path d="M150.1 37.74C152.2 40.73 153.32 44.3 153.32 47.95V70.51L169.13 66.69V42.34L150.1 37.74Z" fill="white"/>
<path d="M161.47 83.71L227.19 68.21V83.71H161.47Z" fill="white"/>
<path d="M208.71 0L143 15.5V0H208.71Z" fill="white"/>
<path d="M9.48494 175.05L0.917898 143.719H4.77307L11.3207 169.237H11.6267L18.2968 143.719H22.5803L29.2503 169.237H29.5563L36.104 143.719H39.9592L31.3921 175.05H27.4757L20.5609 150.083H20.3161L13.4013 175.05H9.48494ZM44.1968 175.05V151.552H47.8072V175.05H44.1968ZM46.0326 147.635C45.3289 147.635 44.722 147.396 44.2121 146.916C43.7123 146.437 43.4625 145.861 43.4625 145.188C43.4625 144.515 43.7123 143.938 44.2121 143.459C44.722 142.98 45.3289 142.74 46.0326 142.74C46.7363 142.74 47.338 142.98 47.8378 143.459C48.3477 143.938 48.6027 144.515 48.6027 145.188C48.6027 145.861 48.3477 146.437 47.8378 146.916C47.338 147.396 46.7363 147.635 46.0326 147.635ZM58.0303 160.914V175.05H54.4199V151.552H57.9079V155.223H58.2138C58.7646 154.03 59.6009 153.071 60.7228 152.347C61.8446 151.613 63.2929 151.246 65.0675 151.246C66.6585 151.246 68.0506 151.572 69.2439 152.225C70.4372 152.867 71.3653 153.847 72.0282 155.162C72.6911 156.468 73.0226 158.12 73.0226 160.119V175.05H69.4122V160.364C69.4122 158.518 68.9328 157.08 67.9742 156.05C67.0155 155.009 65.6998 154.489 64.0272 154.489C62.8747 154.489 61.8446 154.739 60.9369 155.239C60.0394 155.738 59.3306 156.468 58.8105 157.426C58.2903 158.385 58.0303 159.548 58.0303 160.914ZM79.2069 143.719L88.5083 170.093H88.8754L98.1768 143.719H102.154L90.6501 175.05H86.7337L75.2294 143.719H79.2069ZM114.209 175.54C111.945 175.54 109.992 175.04 108.35 174.04C106.718 173.031 105.459 171.623 104.572 169.818C103.694 168.003 103.256 165.891 103.256 163.484C103.256 161.078 103.694 158.956 104.572 157.12C105.459 155.274 106.693 153.836 108.274 152.806C109.865 151.766 111.721 151.246 113.842 151.246C115.066 151.246 116.275 151.45 117.468 151.858C118.661 152.266 119.747 152.929 120.727 153.847C121.706 154.754 122.486 155.958 123.067 157.457C123.648 158.956 123.939 160.802 123.939 162.995V164.525H105.826V161.404H120.268C120.268 160.078 120.002 158.895 119.472 157.855C118.952 156.814 118.207 155.993 117.238 155.392C116.28 154.79 115.148 154.489 113.842 154.489C112.404 154.489 111.16 154.846 110.109 155.56C109.069 156.264 108.269 157.182 107.708 158.314C107.147 159.446 106.866 160.659 106.866 161.955V164.035C106.866 165.81 107.172 167.314 107.784 168.548C108.406 169.772 109.268 170.705 110.37 171.348C111.471 171.98 112.751 172.296 114.209 172.296C115.158 172.296 116.015 172.164 116.78 171.899C117.555 171.623 118.223 171.215 118.784 170.675C119.345 170.124 119.778 169.441 120.084 168.625L123.572 169.604C123.205 170.787 122.588 171.827 121.721 172.725C120.854 173.612 119.783 174.305 118.508 174.805C117.233 175.295 115.8 175.54 114.209 175.54ZM146.076 156.814L142.833 157.732C142.629 157.192 142.328 156.667 141.93 156.157C141.542 155.636 141.012 155.208 140.339 154.872C139.666 154.535 138.804 154.367 137.754 154.367C136.315 154.367 135.117 154.698 134.158 155.361C133.21 156.014 132.736 156.845 132.736 157.855C132.736 158.752 133.062 159.461 133.715 159.981C134.367 160.501 135.387 160.935 136.774 161.282L140.262 162.138C142.363 162.648 143.929 163.428 144.959 164.479C145.989 165.519 146.504 166.86 146.504 168.502C146.504 169.849 146.117 171.052 145.341 172.113C144.577 173.173 143.506 174.01 142.129 174.622C140.752 175.234 139.151 175.54 137.325 175.54C134.928 175.54 132.945 175.019 131.374 173.979C129.803 172.939 128.809 171.419 128.391 169.42L131.818 168.564C132.144 169.828 132.761 170.777 133.669 171.409C134.587 172.041 135.785 172.357 137.264 172.357C138.947 172.357 140.283 172.001 141.272 171.287C142.272 170.562 142.771 169.696 142.771 168.686C142.771 167.87 142.486 167.187 141.915 166.636C141.344 166.075 140.466 165.657 139.283 165.381L135.367 164.464C133.215 163.954 131.634 163.163 130.624 162.092C129.625 161.011 129.125 159.66 129.125 158.038C129.125 156.712 129.498 155.54 130.242 154.52C130.997 153.5 132.022 152.699 133.317 152.118C134.622 151.537 136.101 151.246 137.754 151.246C140.079 151.246 141.904 151.756 143.23 152.776C144.566 153.796 145.515 155.142 146.076 156.814ZM162.158 151.552V154.611H149.981V151.552H162.158ZM153.53 145.922H157.14V168.319C157.14 169.339 157.288 170.104 157.584 170.613C157.89 171.113 158.277 171.45 158.747 171.623C159.226 171.786 159.731 171.868 160.261 171.868C160.659 171.868 160.985 171.848 161.24 171.807C161.495 171.756 161.699 171.715 161.852 171.684L162.586 174.928C162.342 175.019 162 175.111 161.561 175.203C161.123 175.305 160.567 175.356 159.894 175.356C158.874 175.356 157.875 175.137 156.895 174.698C155.927 174.26 155.121 173.592 154.478 172.694C153.846 171.797 153.53 170.664 153.53 169.298V145.922ZM176.883 175.54C174.761 175.54 172.9 175.035 171.299 174.025C169.708 173.015 168.464 171.603 167.566 169.787C166.679 167.972 166.235 165.851 166.235 163.423C166.235 160.976 166.679 158.839 167.566 157.013C168.464 155.188 169.708 153.77 171.299 152.76C172.9 151.751 174.761 151.246 176.883 151.246C179.004 151.246 180.86 151.751 182.451 152.76C184.053 153.77 185.297 155.188 186.184 157.013C187.082 158.839 187.53 160.976 187.53 163.423C187.53 165.851 187.082 167.972 186.184 169.787C185.297 171.603 184.053 173.015 182.451 174.025C180.86 175.035 179.004 175.54 176.883 175.54ZM176.883 172.296C178.494 172.296 179.82 171.883 180.86 171.057C181.901 170.231 182.671 169.145 183.17 167.799C183.67 166.452 183.92 164.994 183.92 163.423C183.92 161.853 183.67 160.389 183.17 159.033C182.671 157.676 181.901 156.58 180.86 155.744C179.82 154.907 178.494 154.489 176.883 154.489C175.271 154.489 173.945 154.907 172.905 155.744C171.865 156.58 171.095 157.676 170.595 159.033C170.095 160.389 169.846 161.853 169.846 163.423C169.846 164.994 170.095 166.452 170.595 167.799C171.095 169.145 171.865 170.231 172.905 171.057C173.945 171.883 175.271 172.296 176.883 172.296ZM196.652 160.914V175.05H193.042V151.552H196.53V155.223H196.836C197.386 154.03 198.223 153.071 199.344 152.347C200.466 151.613 201.915 151.246 203.689 151.246C205.28 151.246 206.672 151.572 207.866 152.225C209.059 152.867 209.987 153.847 210.65 155.162C211.313 156.468 211.644 158.12 211.644 160.119V175.05H208.034V160.364C208.034 158.518 207.555 157.08 206.596 156.05C205.637 155.009 204.321 154.489 202.649 154.489C201.496 154.489 200.466 154.739 199.559 155.239C198.661 155.738 197.952 156.468 197.432 157.426C196.912 158.385 196.652 159.548 196.652 160.914ZM256.059 153.51H252.265C252.041 152.419 251.648 151.46 251.087 150.634C250.536 149.808 249.863 149.114 249.068 148.553C248.282 147.982 247.41 147.554 246.452 147.268C245.493 146.983 244.494 146.84 243.453 146.84C241.556 146.84 239.838 147.319 238.298 148.278C236.768 149.237 235.549 150.649 234.641 152.516C233.744 154.382 233.295 156.672 233.295 159.385C233.295 162.097 233.744 164.387 234.641 166.253C235.549 168.12 236.768 169.532 238.298 170.491C239.838 171.45 241.556 171.929 243.453 171.929C244.494 171.929 245.493 171.786 246.452 171.501C247.41 171.215 248.282 170.792 249.068 170.231C249.863 169.66 250.536 168.961 251.087 168.135C251.648 167.299 252.041 166.34 252.265 165.259H256.059C255.773 166.86 255.253 168.293 254.499 169.558C253.744 170.823 252.806 171.899 251.684 172.786C250.562 173.663 249.302 174.331 247.905 174.79C246.518 175.249 245.034 175.478 243.453 175.478C240.781 175.478 238.405 174.826 236.324 173.52C234.244 172.215 232.607 170.359 231.413 167.952C230.22 165.545 229.624 162.689 229.624 159.385C229.624 156.08 230.22 153.224 231.413 150.817C232.607 148.411 234.244 146.554 236.324 145.249C238.405 143.943 240.781 143.291 243.453 143.291C245.034 143.291 246.518 143.52 247.905 143.979C249.302 144.438 250.562 145.111 251.684 145.999C252.806 146.876 253.744 147.947 254.499 149.211C255.253 150.466 255.773 151.899 256.059 153.51ZM268.615 175.601C267.126 175.601 265.775 175.32 264.561 174.759C263.347 174.188 262.384 173.367 261.67 172.296C260.956 171.215 260.599 169.91 260.599 168.38C260.599 167.034 260.864 165.942 261.394 165.106C261.925 164.26 262.634 163.597 263.521 163.117C264.408 162.638 265.387 162.281 266.458 162.046C267.539 161.802 268.625 161.608 269.717 161.465C271.144 161.282 272.302 161.144 273.189 161.052C274.087 160.95 274.74 160.782 275.148 160.547C275.566 160.313 275.775 159.905 275.775 159.323V159.201C275.775 157.692 275.362 156.519 274.536 155.682C273.72 154.846 272.481 154.428 270.818 154.428C269.094 154.428 267.743 154.805 266.764 155.56C265.785 156.315 265.097 157.12 264.699 157.977L261.272 156.753C261.884 155.325 262.7 154.214 263.72 153.418C264.75 152.612 265.872 152.052 267.085 151.735C268.309 151.409 269.513 151.246 270.696 151.246C271.45 151.246 272.317 151.338 273.296 151.521C274.286 151.695 275.239 152.057 276.157 152.607C277.085 153.158 277.855 153.989 278.467 155.101C279.079 156.213 279.385 157.702 279.385 159.568V175.05H275.775V171.868H275.591C275.346 172.378 274.938 172.924 274.367 173.505C273.796 174.086 273.036 174.581 272.088 174.989C271.139 175.397 269.982 175.601 268.615 175.601ZM269.166 172.357C270.594 172.357 271.797 172.077 272.776 171.516C273.766 170.955 274.51 170.231 275.01 169.344C275.52 168.456 275.775 167.523 275.775 166.544V163.24C275.622 163.423 275.285 163.592 274.765 163.745C274.255 163.887 273.664 164.015 272.99 164.127C272.328 164.229 271.68 164.321 271.048 164.402C270.425 164.474 269.921 164.535 269.533 164.586C268.595 164.708 267.718 164.907 266.902 165.183C266.096 165.448 265.443 165.851 264.944 166.391C264.454 166.921 264.209 167.646 264.209 168.564C264.209 169.818 264.673 170.766 265.601 171.409C266.54 172.041 267.728 172.357 269.166 172.357ZM285.975 183.862V151.552H289.463V155.285H289.891C290.156 154.877 290.524 154.356 290.993 153.724C291.472 153.082 292.155 152.51 293.043 152.011C293.94 151.501 295.154 151.246 296.684 151.246C298.662 151.246 300.406 151.74 301.916 152.73C303.425 153.719 304.603 155.121 305.45 156.937C306.296 158.752 306.719 160.894 306.719 163.362C306.719 165.851 306.296 168.008 305.45 169.833C304.603 171.649 303.43 173.056 301.931 174.056C300.432 175.045 298.703 175.54 296.745 175.54C295.235 175.54 294.027 175.29 293.119 174.79C292.211 174.28 291.513 173.704 291.023 173.061C290.534 172.408 290.156 171.868 289.891 171.44H289.585V183.862H285.975ZM289.524 163.301C289.524 165.075 289.784 166.641 290.304 167.997C290.824 169.344 291.584 170.399 292.584 171.164C293.583 171.919 294.807 172.296 296.255 172.296C297.765 172.296 299.024 171.899 300.034 171.103C301.054 170.297 301.819 169.216 302.329 167.86C302.849 166.493 303.109 164.974 303.109 163.301C303.109 161.649 302.854 160.16 302.344 158.834C301.844 157.498 301.084 156.442 300.065 155.667C299.055 154.882 297.785 154.489 296.255 154.489C294.787 154.489 293.553 154.861 292.553 155.606C291.554 156.34 290.799 157.37 290.289 158.696C289.779 160.012 289.524 161.547 289.524 163.301ZM312.227 175.05V151.552H315.837V175.05H312.227ZM314.063 147.635C313.359 147.635 312.752 147.396 312.242 146.916C311.742 146.437 311.492 145.861 311.492 145.188C311.492 144.515 311.742 143.938 312.242 143.459C312.752 142.98 313.359 142.74 314.063 142.74C314.766 142.74 315.368 142.98 315.868 143.459C316.378 143.938 316.633 144.515 316.633 145.188C316.633 145.861 316.378 146.437 315.868 146.916C315.368 147.396 314.766 147.635 314.063 147.635ZM332.669 151.552V154.611H320.492V151.552H332.669ZM324.041 145.922H327.651V168.319C327.651 169.339 327.799 170.104 328.095 170.613C328.401 171.113 328.788 171.45 329.258 171.623C329.737 171.786 330.242 171.868 330.772 171.868C331.17 171.868 331.496 171.848 331.751 171.807C332.006 171.756 332.21 171.715 332.363 171.684L333.097 174.928C332.853 175.019 332.511 175.111 332.072 175.203C331.634 175.305 331.078 175.356 330.405 175.356C329.385 175.356 328.386 175.137 327.406 174.698C326.438 174.26 325.632 173.592 324.989 172.694C324.357 171.797 324.041 170.664 324.041 169.298V145.922ZM345.015 175.601C343.526 175.601 342.174 175.32 340.961 174.759C339.747 174.188 338.783 173.367 338.069 172.296C337.355 171.215 336.999 169.91 336.999 168.38C336.999 167.034 337.264 165.942 337.794 165.106C338.324 164.26 339.033 163.597 339.92 163.117C340.808 162.638 341.787 162.281 342.858 162.046C343.939 161.802 345.025 161.608 346.116 161.465C347.544 161.282 348.702 161.144 349.589 161.052C350.487 160.95 351.139 160.782 351.547 160.547C351.965 160.313 352.174 159.905 352.174 159.323V159.201C352.174 157.692 351.761 156.519 350.935 155.682C350.119 154.846 348.88 154.428 347.218 154.428C345.494 154.428 344.143 154.805 343.164 155.56C342.185 156.315 341.496 157.12 341.098 157.977L337.672 156.753C338.284 155.325 339.099 154.214 340.119 153.418C341.149 152.612 342.271 152.052 343.485 151.735C344.709 151.409 345.912 151.246 347.095 151.246C347.85 151.246 348.717 151.338 349.696 151.521C350.685 151.695 351.639 152.057 352.557 152.607C353.485 153.158 354.255 153.989 354.867 155.101C355.479 156.213 355.785 157.702 355.785 159.568V175.05H352.174V171.868H351.991C351.746 172.378 351.338 172.924 350.767 173.505C350.196 174.086 349.436 174.581 348.488 174.989C347.539 175.397 346.381 175.601 345.015 175.601ZM345.566 172.357C346.993 172.357 348.197 172.077 349.176 171.516C350.165 170.955 350.91 170.231 351.41 169.344C351.919 168.456 352.174 167.523 352.174 166.544V163.24C352.021 163.423 351.685 163.592 351.165 163.745C350.655 163.887 350.063 164.015 349.39 164.127C348.727 164.229 348.08 164.321 347.447 164.402C346.825 164.474 346.32 164.535 345.933 164.586C344.994 164.708 344.117 164.907 343.301 165.183C342.496 165.448 341.843 165.851 341.343 166.391C340.854 166.921 340.609 167.646 340.609 168.564C340.609 169.818 341.073 170.766 342.001 171.409C342.939 172.041 344.128 172.357 345.566 172.357ZM365.985 143.719V175.05H362.375V143.719H365.985Z" fill="#E0E0E0"/>
<path d="M23.31 127.6C21.64 127.6 20.08 127.43 18.96 125.83C17.26 127.19 15.8 127.85 13.43 127.85C8.88 127.85 7 124.03 7 119.89C7 114.29 10.23 111.3 14.13 111.3C15.59 111.3 16.91 111.54 18.2 112.31V111.3H20.29V123.12C20.29 124.82 21.96 125.48 22.97 125.48H24.71V127.6H23.32H23.31ZM18.1 120.2C18.1 118.18 18.17 116.13 18.2 115.19C17.4 112.44 14.1 112.3 14.1 112.3C11.32 112.3 9.34 115.5 9.34 120.36C9.34 123.32 10.45 127.03 13.82 127.07C16.15 127.07 18.23 125.23 18.48 124.98C18.17 124.15 18.1 122.2 18.1 120.18V120.2ZM12.02 108.03C11.22 108.03 10.53 107.33 10.53 106.53C10.53 105.73 11.22 105.07 12.02 105.07C12.82 105.07 13.51 105.77 13.51 106.53C13.51 107.29 12.85 108.03 12.02 108.03ZM16.71 108.03C15.88 108.03 15.22 107.33 15.22 106.53C15.22 105.73 15.88 105.07 16.71 105.07C17.54 105.07 18.17 105.77 18.17 106.53C18.17 107.29 17.54 108.03 16.71 108.03Z" fill="white"/>
<path d="M35 127.6C32.39 127.5 30.83 125.93 30.45 125.17L30.38 124.96V124.99C30.24 125.44 29.62 127.6 25.17 127.6H23.75V125.48H25.24C27.81 125.48 28.4 123.98 28.4 122.73V113.07H30.55V122.8C30.65 123.32 32.39 125.48 34.41 125.48H35.17V127.6H35ZM26.1 133.51C25.27 133.51 24.61 132.85 24.61 132.01C24.61 131.25 25.27 130.59 26.1 130.59C26.93 130.59 27.56 131.25 27.56 132.01C27.56 132.84 26.93 133.51 26.1 133.51ZM30.76 133.51C29.96 133.51 29.26 132.85 29.26 132.01C29.26 131.25 29.96 130.59 30.76 130.59C31.56 130.59 32.25 131.25 32.25 132.01C32.25 132.84 31.59 133.51 30.76 133.51Z" fill="white"/>
<path d="M36.67 127.6H33.75V125.48H36.57C37.82 125.48 39.39 125.03 39.39 122.52V105.28H41.55V123.25C41.55 126.73 38.8 127.6 36.68 127.6H36.67Z" fill="white"/>
<path d="M52.3101 127.6C49.7701 127.6 46.6401 127.15 46.6401 123.29V105.28H48.8001V122.52C48.8001 124.78 50.7801 125.48 51.7901 125.48H128.19V127.6H52.3101Z" fill="white"/>
<path d="M126.94 125.48H131.25C130.21 123.46 130.17 121.34 130.17 121.34C130.17 116.89 133.4 113.28 137.4 113.28C141.4 113.28 144.7 116.2 144.7 121.34C144.7 122.87 144.35 124.26 143.69 125.48H148.28V127.6H142.09C140.91 128.64 139.34 129.27 137.5 129.27C135.38 129.27 133.88 128.58 132.81 127.6H126.94V125.48ZM141.68 121.1C141.68 115.68 139.25 114.01 137.3 114.01C135.35 114.01 132.47 115.75 132.47 121.17C132.47 121.45 132.3 128.5 137.44 128.5C139.25 128.5 141.68 126.35 141.68 121.1Z" fill="white"/>
<path d="M149.92 127.6H147V125.48H149.82C151.07 125.48 152.64 125.03 152.64 122.52V105.28H154.8V123.25C154.8 126.73 152.05 127.6 149.93 127.6H149.92Z" fill="white"/>
<path d="M159.9 127.6V105.28H162.06V127.6H159.9Z" fill="white"/>
<path d="M197.41 127.6C195.6 127.6 193.62 126.66 192.82 125.1C191.92 130.07 187.88 134.03 182.32 134.03C177.35 134.03 173.07 130.94 172.03 125.2C171.86 123.01 171.82 123.71 171.82 119.6V114.7H173.97V122.76C173.97 127.56 176.86 132.88 182.35 132.88C183.74 132.88 184.89 132.53 185.34 132.32C187.49 131.38 190.87 128.74 190.87 123.14V114.66H193.02V122.9C193.3 123.6 194.93 125.47 196.84 125.47H197.54V127.59H197.4L197.41 127.6ZM182.11 112.9C181.31 112.9 180.62 112.24 180.62 111.44C180.62 110.64 181.32 109.98 182.11 109.98C182.9 109.98 183.57 110.64 183.57 111.44C183.57 112.24 182.94 112.9 182.11 112.9Z" fill="white"/>
<path d="M208.57 127.6C206.76 127.6 204.61 126.59 203.91 124.96C203.84 125.2 203.32 127.6 199.22 127.6H197.2V125.48H198.76C201.33 125.48 201.96 123.98 201.96 122.73V113.03H204.05V122.8C204.15 123.32 205.96 125.48 207.98 125.48H209.16V127.6H208.57ZM200.64 109.98C199.81 109.98 199.15 109.28 199.15 108.48C199.15 107.68 199.81 107.02 200.64 107.02C201.47 107.02 202.1 107.72 202.1 108.48C202.1 109.24 201.47 109.98 200.64 109.98ZM205.3 109.98C204.5 109.98 203.81 109.28 203.81 108.48C203.81 107.68 204.5 107.02 205.3 107.02C206.1 107.02 206.79 107.72 206.79 108.48C206.79 109.24 206.13 109.98 205.3 109.98Z" fill="white"/>
<path d="M225.05 124.89C224.98 125.17 224.49 127.6 220.36 127.6C218.38 127.6 216.71 126.87 215.35 125.38C214.38 127.26 212.71 127.6 209.16 127.6H207.53V125.48H210.55C213.09 125.48 213.75 123.98 213.75 122.73V114.7H215.87V123.22C216.84 124.72 218.03 125.48 219.9 125.48C222.23 125.48 223.1 123.92 223.1 122.66V114.7H225.22V122.87C226.3 124.61 227.48 125.48 229.5 125.48C231.83 125.48 232.7 123.92 232.7 122.66V111.29H234.86V122.87C235.1 123.5 236.84 125.48 238.75 125.48H239.44V127.6H239.3C237.08 127.6 235.65 126.87 234.57 124.89C233.74 126.91 231.72 127.6 229.98 127.6C228.03 127.6 225.91 126.77 225.04 124.89H225.05Z" fill="white"/>
<path d="M256.3 127.6C253.73 127.6 252.13 125.93 251.78 125.17C251.68 124.93 251.61 124.89 251.47 124.61C250.22 126.49 248.27 127.6 245.84 127.6H238.47V125.48H246.12C248.41 125.48 249.32 124.33 249.77 122.91C247.65 120.51 241.22 119.19 241.22 114.81C241.22 112.69 243.17 110.95 246.12 110.95C250.6 110.95 252.97 115.12 252.97 119.5C252.97 120.92 252.69 122.25 252.17 123.36C252.8 124.19 254.19 125.48 255.75 125.48H257.38V127.6H256.3ZM246.08 111.75C244.72 111.75 243.37 112.9 243.37 114.67C243.37 118.63 248.34 119.5 250.39 121.8C250.63 121.1 250.67 120.44 250.67 119.61C250.67 115.16 248.65 111.75 246.08 111.75ZM246.22 108.14C245.42 108.14 244.73 107.51 244.73 106.71C244.73 105.91 245.43 105.25 246.22 105.25C247.01 105.25 247.71 105.91 247.71 106.71C247.71 107.51 247.05 108.14 246.22 108.14Z" fill="white"/>
<path d="M267.67 127.6C265.86 127.6 263.71 126.59 263.01 124.96C262.94 125.2 262.42 127.6 258.32 127.6H256.3V125.48H257.86C260.43 125.48 261.06 123.98 261.06 122.73V113.03H263.21V122.8C263.31 123.32 265.05 125.48 267.07 125.48H268.25V127.6H267.66H267.67ZM262.07 109.87C261.27 109.87 260.61 109.24 260.61 108.41C260.61 107.65 261.27 106.99 262.07 106.99C262.87 106.99 263.56 107.65 263.56 108.41C263.56 109.24 262.9 109.87 262.07 109.87Z" fill="white"/>
<path d="M340.61 127.6H267.29V125.48H340.54C341.76 125.48 343.36 125.03 343.36 122.52V111.29H345.52V123.25C345.52 126.73 342.74 127.6 340.62 127.6H340.61ZM339.98 133.58C339.18 133.58 338.52 132.88 338.52 132.09C338.52 131.3 339.18 130.63 339.98 130.63C340.85 130.63 341.47 131.33 341.47 132.09C341.47 132.85 340.84 133.58 339.98 133.58ZM344.67 133.58C343.87 133.58 343.18 132.88 343.18 132.09C343.18 131.3 343.88 130.63 344.67 130.63C345.46 130.63 346.16 131.33 346.16 132.09C346.16 132.85 345.5 133.58 344.67 133.58Z" fill="white"/>
<path d="M357.33 133.58C359.8 133.58 361.43 131.84 361.43 129.96V126.35C361.43 126.35 359.87 127.74 356.74 127.74C352.22 127.74 350.34 123.92 350.34 119.85C350.34 114.22 353.47 111.3 357.29 111.3C360.14 111.3 363.51 112.27 363.51 115.82V126.32C363.51 128.89 363.44 134.56 357.04 134.56C356.83 134.56 354.19 134.56 352.52 133.38V131.64C353.81 133.17 355.09 133.59 357.32 133.59L357.33 133.58ZM361.4 115.12C360.64 112.34 357.23 112.34 357.23 112.34C354.48 112.34 352.68 115.54 352.68 120.3C352.68 123.26 353.79 126.94 357.16 127.01C357.3 127.01 359.52 126.97 361.4 125.27V115.12Z" fill="white"/>
</svg>
