<svg xmlns="http://www.w3.org/2000/svg" width="105" height="167" viewBox="0 0 105 167" fill="none"><path d="M42.748 167C42.7154 161.404 42.6925 155.809 42.6402 150.216C42.6337 149.455 43.0715 149.057 43.5779 148.616C50.599 142.528 57.9729 136.87 65.154 130.974C69.1432 127.7 73.1455 124.445 77.1608 121.2C77.5136 120.916 77.8599 120.341 78.3892 120.599C78.9185 120.857 78.6702 121.487 78.6734 121.937C78.7127 126.72 78.6963 131.503 78.7519 136.282C78.7649 137.402 78.2291 138.088 77.4352 138.737C68.0291 146.458 58.6328 154.189 49.2366 161.92C47.1815 163.611 45.1265 165.306 43.0715 166.997H42.7448L42.748 167Z" fill="url(#paint0_linear_2_864)"></path><path d="M18.8393 127.883C18.8393 125.385 18.8654 122.888 18.8262 120.39C18.8131 119.479 19.179 118.905 19.8684 118.33C25.599 113.57 31.2805 108.748 37.0241 104.001C38.1415 103.077 38.0859 102.578 36.9523 101.687C31.1858 97.1455 25.4944 92.5096 19.7475 87.9423C18.934 87.2959 18.6661 86.5842 18.6792 85.5722C18.7478 80.1887 18.7706 74.8052 18.7739 69.4217C18.7739 68.5011 19.215 67.933 19.8815 67.378C25.5107 62.6736 31.1335 57.9562 36.7366 53.2158C46.8582 44.6493 56.9471 36.0436 67.0883 27.4999C74.6975 21.0913 82.3752 14.7676 90.0007 8.37859C93.0424 5.82887 96.0809 3.27262 99.005 0.59231C100.269 -0.566654 100.443 0.154842 100.661 1.21913C102.004 7.74851 100.674 13.7 96.9467 19.2141C94.4375 22.9228 91.0723 25.7565 87.7203 28.5935C76.1023 38.43 64.4191 48.1915 52.7521 57.9725C45.4207 64.1199 38.0892 70.2706 30.7186 76.369C29.6339 77.2635 29.7482 77.6781 30.7774 78.5302C36.4328 83.2053 41.9706 88.0207 47.7044 92.6043C48.8087 93.489 49.5601 93.6294 50.7526 92.6174C58.2997 86.2186 65.9252 79.9079 73.5311 73.5744C74.8249 72.4971 76.1546 71.4589 77.468 70.4011C78.1443 69.8559 78.5462 69.9637 78.5625 70.8811C78.6605 76.1013 78.7487 81.3215 78.8565 86.5418C78.8696 87.1849 78.4808 87.5179 78.0594 87.8738C67.8071 96.4664 57.6953 105.229 47.3123 113.668C38.71 120.661 30.2154 127.788 21.649 134.827C20.8812 135.457 20.0546 136.71 19.1725 136.325C18.4897 136.028 18.8948 134.546 18.8752 133.592C18.8393 131.689 18.8654 129.786 18.8654 127.883C18.8556 127.883 18.8491 127.883 18.8393 127.883Z" fill="url(#paint1_linear_2_864)"></path><path d="M1.30022 0.0666504C1.60406 0.278855 1.98632 0.49106 2.3065 0.775088C13.0619 10.2035 24.3564 18.9855 35.3438 28.1364C38.5194 30.7808 41.6853 33.435 44.9001 36.0305C45.9522 36.8793 45.9358 37.4049 44.8642 38.257C42.0937 40.4509 39.3787 42.7198 36.7225 45.0508C35.7979 45.8637 35.1869 45.8964 34.2329 45.1128C26.3886 38.6553 18.5605 32.1716 10.6116 25.8446C6.46556 22.544 3.20496 18.6656 1.36556 13.6837C-0.134053 9.60934 -0.346417 5.40768 0.473634 1.15706C0.552045 0.742441 0.496504 0.109091 1.30022 0.0666504Z" fill="url(#paint2_linear_2_864)"></path><defs><linearGradient id="paint0_linear_2_864" x1="60.6961" y1="120.534" x2="60.6961" y2="167" gradientUnits="userSpaceOnUse"><stop stop-color="#3B82F6"></stop><stop offset="1" stop-color="#3B82F6" stop-opacity="0.8"></stop></linearGradient><linearGradient id="paint1_linear_2_864" x1="59.9253" y1="0" x2="59.9253" y2="136.397" gradientUnits="userSpaceOnUse"><stop stop-color="#3B82F6"></stop><stop offset="1" stop-color="#3B82F6" stop-opacity="0.8"></stop></linearGradient><linearGradient id="paint2_linear_2_864" x1="22.8393" y1="0.0666504" x2="22.8393" y2="45.681" gradientUnits="userSpaceOnUse"><stop stop-color="#3B82F6"></stop><stop offset="1" stop-color="#3B82F6" stop-opacity="0.8"></stop></linearGradient></defs></svg>
